<svg xmlns="http://www.w3.org/2000/svg" xmlns:xlink="http://www.w3.org/1999/xlink" width="113" height="113" viewBox="0 0 113 113">
  <defs>
    <filter id="Trazado_982547" x="0" y="0" width="113" height="113" filterUnits="userSpaceOnUse">
      <feOffset dy="3" input="SourceAlpha"/>
      <feGaussianBlur stdDeviation="3" result="blur"/>
      <feFlood flood-opacity="0.161"/>
      <feComposite operator="in" in2="blur"/>
      <feComposite in="SourceGraphic"/>
    </filter>
  </defs>
  <g id="Grupo_1209802" data-name="Grupo 1209802" transform="translate(-813 -3832.98)">
    <g id="Grupo_1209739" data-name="Grupo 1209739" transform="translate(822 3838.98)">
      <g id="Grupo_1209277" data-name="Grupo 1209277" transform="translate(0 0)">
        <g id="Grupo_1208028" data-name="Grupo 1208028">
          <g id="Grupo_1177675" data-name="Grupo 1177675">
            <g id="Grupo_1176928" data-name="Grupo 1176928">
              <g id="Grupo_1172322" data-name="Grupo 1172322">
                <g id="Grupo_1164700" data-name="Grupo 1164700">
                  <g id="Grupo_1160931" data-name="Grupo 1160931">
                    <g id="Grupo_1160749" data-name="Grupo 1160749">
                      <g id="Grupo_1158891" data-name="Grupo 1158891">
                        <g id="Grupo_1157406" data-name="Grupo 1157406">
                          <g id="Grupo_1155793" data-name="Grupo 1155793">
                            <g id="Grupo_1154704" data-name="Grupo 1154704">
                              <g id="Grupo_1150790" data-name="Grupo 1150790">
                                <g id="Grupo_1154214" data-name="Grupo 1154214">
                                  <g id="Grupo_1152583" data-name="Grupo 1152583">
                                    <g id="Grupo_1146973" data-name="Grupo 1146973">
                                      <g id="Grupo_1146954" data-name="Grupo 1146954">
                                        <g transform="matrix(1, 0, 0, 1, -9, -6)" filter="url(#Trazado_982547)">
                                          <g id="Trazado_982547-2" data-name="Trazado 982547" transform="translate(9 6)" fill="#fcebe9">
                                            <path d="M 47.5000114440918 93.49987030029297 C 41.28938293457031 93.49987030029297 35.26534652709961 92.28384399414062 29.5951976776123 89.88558959960938 C 24.11773109436035 87.56881713867188 19.19814491271973 84.25183868408203 14.97310447692871 80.02680206298828 C 10.74805164337158 75.80176544189453 7.43107795715332 70.88218688964844 5.114304542541504 65.40472412109375 C 2.716038227081299 59.73458862304688 1.500011444091797 53.71054840087891 1.500011444091797 47.49993515014648 C 1.500011444091797 41.28932189941406 2.716038227081299 35.26528167724609 5.114304542541504 29.59514808654785 C 7.43107795715332 24.1176815032959 10.74805164337158 19.1981086730957 14.97310447692871 14.97306823730469 C 19.19814491271973 10.74802875518799 24.11773109436035 7.431055068969727 29.5951976776123 5.11428165435791 C 35.26534652709961 2.716028451919556 41.28938293457031 1.500001788139343 47.5000114440918 1.500001788139343 C 53.71063995361328 1.500001788139343 59.73467636108398 2.716028451919556 65.40482330322266 5.11428165435791 C 70.88229370117188 7.431055068969727 75.8018798828125 10.74802875518799 80.02691650390625 14.97306823730469 C 84.25196838378906 19.1981086730957 87.56894683837891 24.1176815032959 89.88571929931641 29.59514808654785 C 92.28398132324219 35.26528167724609 93.50001525878906 41.28932189941406 93.50001525878906 47.49993515014648 C 93.50001525878906 53.71054840087891 92.28398132324219 59.73458862304688 89.88571929931641 65.40472412109375 C 87.56894683837891 70.88218688964844 84.25196838378906 75.80176544189453 80.02691650390625 80.02680206298828 C 75.8018798828125 84.25183868408203 70.88229370117188 87.56881713867188 65.40482330322266 89.88558959960938 C 59.73467636108398 92.28384399414062 53.71063995361328 93.49987030029297 47.5000114440918 93.49987030029297 Z" stroke="none"/>
                                            <path d="M 47.5000114440918 3 C 41.49122619628906 3 35.66378021240234 4.1761474609375 30.17951965332031 6.495796203613281 C 24.880859375 8.7369384765625 20.12153625488281 11.94596862792969 16.03376770019531 16.03373718261719 C 11.94598388671875 20.12149047851562 8.736968994140625 24.88081359863281 6.495811462402344 30.17947387695312 C 4.176162719726562 35.66371917724609 3.000007629394531 41.49116516113281 3.000007629394531 47.49993515014648 C 3.000007629394531 53.50870513916016 4.176162719726562 59.33615112304688 6.495811462402344 64.82039642333984 C 8.736968994140625 70.11905670166016 11.94598388671875 74.87837982177734 16.03376770019531 78.96613311767578 C 20.12153625488281 83.05390167236328 24.880859375 86.26293182373047 30.17951965332031 88.50407409667969 C 35.66378021240234 90.82372283935547 41.49122619628906 91.99987030029297 47.5000114440918 91.99987030029297 C 53.50879669189453 91.99987030029297 59.33624267578125 90.82372283935547 64.82050323486328 88.50407409667969 C 70.11916351318359 86.26293182373047 74.87848663330078 83.05390167236328 78.96625518798828 78.96613311767578 C 83.05403900146484 74.87837982177734 86.2630615234375 70.11905670166016 88.50421142578125 64.82039642333984 C 90.82386016845703 59.33615112304688 92.00001525878906 53.50870513916016 92.00001525878906 47.49993515014648 C 92.00001525878906 41.49116516113281 90.82386016845703 35.66371917724609 88.50421142578125 30.17947387695312 C 86.2630615234375 24.88081359863281 83.05403900146484 20.12149047851562 78.96625518798828 16.03373718261719 C 74.87848663330078 11.94596862792969 70.11916351318359 8.7369384765625 64.82050323486328 6.495796203613281 C 59.33624267578125 4.1761474609375 53.50879669189453 3 47.5000114440918 3 M 47.5000114440918 0 C 73.73353576660156 0 95.00001525878906 21.26644134521484 95.00001525878906 47.49993515014648 C 95.00001525878906 73.73342895507812 73.73353576660156 94.99987030029297 47.5000114440918 94.99987030029297 C 21.26648712158203 94.99987030029297 7.62939453125e-06 73.73342895507812 7.62939453125e-06 47.49993515014648 C 7.62939453125e-06 21.26644134521484 21.26648712158203 0 47.5000114440918 0 Z" stroke="none" fill="#e44b36"/>
                                          </g>
                                        </g>
                                      </g>
                                    </g>
                                  </g>
                                </g>
                              </g>
                            </g>
                          </g>
                        </g>
                      </g>
                    </g>
                  </g>
                </g>
              </g>
            </g>
          </g>
        </g>
      </g>
    </g>
    <g id="decrease_9108314" transform="translate(832.991 3852.969)">
      <g id="Grupo_1209800" data-name="Grupo 1209800" transform="translate(7.499 7.5)">
        <path id="Trazado_1051234" data-name="Trazado 1051234" d="M77.694,40.69V77.425h48.321V40.69Z" transform="translate(-69.358 -36.749)" fill="#dbedff"/>
        <path id="Trazado_1051235" data-name="Trazado 1051235" d="M27.4,40.69V77.425h6.363V40.69Z" transform="translate(-25.035 -36.749)" fill="#b5dcff"/>
        <path id="Trazado_1051236" data-name="Trazado 1051236" d="M384.241,230.412h-5.046v8.427h6.132V231.5A1.086,1.086,0,0,0,384.241,230.412Z" transform="translate(-335.054 -203.94)" fill="#ff3581"/>
        <path id="Trazado_1051237" data-name="Trazado 1051237" d="M364.266,89.255l-3.825,5.607a.488.488,0,0,1-.806,0l-3.825-5.607a.488.488,0,0,1,.4-.763h7.649A.488.488,0,0,1,364.266,89.255Z" transform="translate(-314.371 -78.874)" fill="#ff3581"/>
        <path id="Trazado_1051238" data-name="Trazado 1051238" d="M111.532,7.5H61.408l-.739.181-.475.742v2.662l.419.782.549.219.188.045h50.182a1.425,1.425,0,0,0,1.425-1.425V8.926A1.425,1.425,0,0,0,111.532,7.5Z" transform="translate(-53.936 -7.501)" fill="#8479c2"/>
        <path id="Trazado_1051239" data-name="Trazado 1051239" d="M13.862,10.707V8.926A1.425,1.425,0,0,1,15.287,7.5H8.924A1.425,1.425,0,0,0,7.5,8.926v1.781a1.425,1.425,0,0,0,1.425,1.425h6.363A1.425,1.425,0,0,1,13.862,10.707Z" transform="translate(-7.499 -7.501)" fill="#6e60b8"/>
        <path id="Trazado_1051240" data-name="Trazado 1051240" d="M111.164,343.364h-50.2c-.416.1-.812.207-.812.207l-.376.633v2.936l.584.667.68.189h50.123a1.425,1.425,0,0,0,1.425-1.425v-1.781A1.425,1.425,0,0,0,111.164,343.364Z" transform="translate(-53.569 -303.479)" fill="#8479c2"/>
        <path id="Trazado_1051241" data-name="Trazado 1051241" d="M13.862,346.57v-1.781a1.425,1.425,0,0,1,1.425-1.425H8.924A1.425,1.425,0,0,0,7.5,344.789v1.781A1.425,1.425,0,0,0,8.924,348h6.363A1.425,1.425,0,0,1,13.862,346.57Z" transform="translate(-7.499 -303.479)" fill="#6e60b8"/>
        <path id="Trazado_1051242" data-name="Trazado 1051242" d="M334.639,194.932h-5.194v12.64h6.28V196.018A1.086,1.086,0,0,0,334.639,194.932Z" transform="translate(-291.212 -172.674)" fill="#ffd500"/>
        <path id="Trazado_1051243" data-name="Trazado 1051243" d="M286.316,159.452h-5.171v16.854H287.4V160.538A1.086,1.086,0,0,0,286.316,159.452Z" transform="translate(-248.648 -141.407)" fill="#a2e82d"/>
        <path id="Trazado_1051244" data-name="Trazado 1051244" d="M241.5,123.972h-3.588a1.086,1.086,0,0,0-1.086,1.086v19.981h5.76V125.058A1.086,1.086,0,0,0,241.5,123.972Z" transform="translate(-209.594 -110.141)" fill="#60b9fe"/>
      </g>
      <g id="Grupo_1209801" data-name="Grupo 1209801" transform="translate(7.499 7.5)">
        <path id="Trazado_1051245" data-name="Trazado 1051245" d="M65.1,7.5H8.925A1.425,1.425,0,0,0,7.5,8.925v1.781a1.425,1.425,0,0,0,1.425,1.425H65.1a1.425,1.425,0,0,0,1.425-1.425V8.925A1.425,1.425,0,0,0,65.1,7.5Z" transform="translate(-7.5 -7.5)" fill="none" stroke="#000" stroke-linecap="round" stroke-linejoin="round" stroke-miterlimit="10" stroke-width="1"/>
        <circle id="Elipse_12611" data-name="Elipse 12611" cx="3.167" cy="3.167" r="3.167" transform="translate(26.343 52.687)" fill="none" stroke="#000" stroke-linecap="round" stroke-linejoin="round" stroke-miterlimit="10" stroke-width="1"/>
        <line id="Línea_826" data-name="Línea 826" y1="7.392" transform="translate(29.51 44.972)" fill="none" stroke="#000" stroke-linecap="round" stroke-linejoin="round" stroke-miterlimit="10" stroke-width="1"/>
        <line id="Línea_827" data-name="Línea 827" x2="6.967" transform="translate(11.143 9.618)" fill="none" stroke="#000" stroke-linecap="round" stroke-linejoin="round" stroke-miterlimit="10" stroke-width="1"/>
        <line id="Línea_828" data-name="Línea 828" x2="13.934" transform="translate(7.659 13.832)" fill="none" stroke="#000" stroke-linecap="round" stroke-linejoin="round" stroke-miterlimit="10" stroke-width="1"/>
        <line id="Línea_829" data-name="Línea 829" x2="13.934" transform="translate(7.659 18.045)" fill="none" stroke="#000" stroke-linecap="round" stroke-linejoin="round" stroke-miterlimit="10" stroke-width="1"/>
        <line id="Línea_830" data-name="Línea 830" x2="13.934" transform="translate(7.659 22.258)" fill="none" stroke="#000" stroke-linecap="round" stroke-linejoin="round" stroke-miterlimit="10" stroke-width="1"/>
        <line id="Línea_831" data-name="Línea 831" x2="13.934" transform="translate(7.659 26.472)" fill="none" stroke="#000" stroke-linecap="round" stroke-linejoin="round" stroke-miterlimit="10" stroke-width="1"/>
        <line id="Línea_832" data-name="Línea 832" x2="13.934" transform="translate(7.659 30.685)" fill="none" stroke="#000" stroke-linecap="round" stroke-linejoin="round" stroke-miterlimit="10" stroke-width="1"/>
        <line id="Línea_833" data-name="Línea 833" x2="13.934" transform="translate(7.659 34.899)" fill="none" stroke="#000" stroke-linecap="round" stroke-linejoin="round" stroke-miterlimit="10" stroke-width="1"/>
        <path id="Trazado_1051246" data-name="Trazado 1051246" d="M241.5,123.972h-3.588a1.086,1.086,0,0,0-1.086,1.086v19.981h5.76V125.058A1.085,1.085,0,0,0,241.5,123.972Z" transform="translate(-209.594 -110.14)" fill="none" stroke="#000" stroke-linecap="round" stroke-linejoin="round" stroke-miterlimit="10" stroke-width="1"/>
        <path id="Trazado_1051247" data-name="Trazado 1051247" d="M290,159.452h-4.674v16.854h5.76V160.538A1.086,1.086,0,0,0,290,159.452Z" transform="translate(-252.336 -141.407)" fill="none" stroke="#000" stroke-linecap="round" stroke-linejoin="round" stroke-miterlimit="10" stroke-width="1"/>
        <path id="Trazado_1051248" data-name="Trazado 1051248" d="M338.5,194.932h-4.674v12.64h5.76V196.018A1.086,1.086,0,0,0,338.5,194.932Z" transform="translate(-295.076 -172.674)" fill="none" stroke="#000" stroke-linecap="round" stroke-linejoin="round" stroke-miterlimit="10" stroke-width="1"/>
        <path id="Trazado_1051249" data-name="Trazado 1051249" d="M387,230.412h-4.674v8.427h5.76V231.5A1.086,1.086,0,0,0,387,230.412Z" transform="translate(-337.816 -203.94)" fill="none" stroke="#000" stroke-linecap="round" stroke-linejoin="round" stroke-miterlimit="10" stroke-width="1"/>
        <line id="Línea_834" data-name="Línea 834" x2="25.989" transform="translate(25.759 34.899)" fill="none" stroke="#000" stroke-linecap="round" stroke-linejoin="round" stroke-miterlimit="10" stroke-width="1"/>
        <path id="Trazado_1051250" data-name="Trazado 1051250" d="M364.267,89.255l-3.825,5.607a.488.488,0,0,1-.806,0l-3.825-5.607a.488.488,0,0,1,.4-.763h7.649A.488.488,0,0,1,364.267,89.255Z" transform="translate(-314.372 -78.874)" fill="none" stroke="#000" stroke-linecap="round" stroke-linejoin="round" stroke-miterlimit="10" stroke-width="1"/>
        <path id="Trazado_1051251" data-name="Trazado 1051251" d="M53.01,348H65.1a1.425,1.425,0,0,0,1.425-1.425v-1.781a1.425,1.425,0,0,0-1.425-1.425H8.925A1.425,1.425,0,0,0,7.5,344.789v1.781A1.425,1.425,0,0,0,8.925,348H48.853" transform="translate(-7.5 -303.479)" fill="none" stroke="#000" stroke-linecap="round" stroke-linejoin="round" stroke-miterlimit="10" stroke-width="1"/>
        <path id="Trazado_1051252" data-name="Trazado 1051252" d="M81.693,62.049V46.5H27.4V81.754H81.693V66.205" transform="translate(-25.036 -41.869)" fill="none" stroke="#000" stroke-linecap="round" stroke-linejoin="round" stroke-miterlimit="10" stroke-width="1"/>
      </g>
    </g>
  </g>
</svg>
