<svg xmlns="http://www.w3.org/2000/svg" xmlns:xlink="http://www.w3.org/1999/xlink" width="113" height="113" viewBox="0 0 113 113">
  <defs>
    <filter id="Trazado_982547" x="0" y="0" width="113" height="113" filterUnits="userSpaceOnUse">
      <feOffset dy="3" input="SourceAlpha"/>
      <feGaussianBlur stdDeviation="3" result="blur"/>
      <feFlood flood-opacity="0.161"/>
      <feComposite operator="in" in2="blur"/>
      <feComposite in="SourceGraphic"/>
    </filter>
  </defs>
  <g id="Grupo_1209819" data-name="Grupo 1209819" transform="translate(-2283.999 -4261.979)">
    <g id="Grupo_1209744" data-name="Grupo 1209744" transform="translate(1930 1165.979)">
      <g id="Grupo_1209277" data-name="Grupo 1209277" transform="translate(363 3102)">
        <g id="Grupo_1208028" data-name="Grupo 1208028" transform="translate(0)">
          <g id="Grupo_1177675" data-name="Grupo 1177675" transform="translate(0 0)">
            <g id="Grupo_1176928" data-name="Grupo 1176928" transform="translate(0)">
              <g id="Grupo_1172322" data-name="Grupo 1172322">
                <g id="Grupo_1164700" data-name="Grupo 1164700">
                  <g id="Grupo_1160931" data-name="Grupo 1160931">
                    <g id="Grupo_1160749" data-name="Grupo 1160749">
                      <g id="Grupo_1158891" data-name="Grupo 1158891">
                        <g id="Grupo_1157406" data-name="Grupo 1157406">
                          <g id="Grupo_1155793" data-name="Grupo 1155793">
                            <g id="Grupo_1154704" data-name="Grupo 1154704">
                              <g id="Grupo_1150790" data-name="Grupo 1150790">
                                <g id="Grupo_1154214" data-name="Grupo 1154214">
                                  <g id="Grupo_1152583" data-name="Grupo 1152583">
                                    <g id="Grupo_1146973" data-name="Grupo 1146973">
                                      <g id="Grupo_1146954" data-name="Grupo 1146954">
                                        <g transform="matrix(1, 0, 0, 1, -9, -6)" filter="url(#Trazado_982547)">
                                          <g id="Trazado_982547-2" data-name="Trazado 982547" transform="translate(9 6)" fill="#fcebe9">
                                            <path d="M 47.5000114440918 93.49987030029297 C 41.28938293457031 93.49987030029297 35.26534652709961 92.28384399414062 29.5951976776123 89.88558959960938 C 24.11773109436035 87.56881713867188 19.19814491271973 84.25183868408203 14.97310447692871 80.02680206298828 C 10.74805164337158 75.80176544189453 7.43107795715332 70.88218688964844 5.114304542541504 65.40472412109375 C 2.716038227081299 59.73458862304688 1.500011444091797 53.71054840087891 1.500011444091797 47.49993515014648 C 1.500011444091797 41.28932189941406 2.716038227081299 35.26528167724609 5.114304542541504 29.59514808654785 C 7.43107795715332 24.1176815032959 10.74805164337158 19.1981086730957 14.97310447692871 14.97306823730469 C 19.19814491271973 10.74802875518799 24.11773109436035 7.431055068969727 29.5951976776123 5.11428165435791 C 35.26534652709961 2.716028451919556 41.28938293457031 1.500001788139343 47.5000114440918 1.500001788139343 C 53.71063995361328 1.500001788139343 59.73467636108398 2.716028451919556 65.40482330322266 5.11428165435791 C 70.88229370117188 7.431055068969727 75.8018798828125 10.74802875518799 80.02691650390625 14.97306823730469 C 84.25196838378906 19.1981086730957 87.56894683837891 24.1176815032959 89.88571929931641 29.59514808654785 C 92.28398132324219 35.26528167724609 93.50001525878906 41.28932189941406 93.50001525878906 47.49993515014648 C 93.50001525878906 53.71054840087891 92.28398132324219 59.73458862304688 89.88571929931641 65.40472412109375 C 87.56894683837891 70.88218688964844 84.25196838378906 75.80176544189453 80.02691650390625 80.02680206298828 C 75.8018798828125 84.25183868408203 70.88229370117188 87.56881713867188 65.40482330322266 89.88558959960938 C 59.73467636108398 92.28384399414062 53.71063995361328 93.49987030029297 47.5000114440918 93.49987030029297 Z" stroke="none"/>
                                            <path d="M 47.5000114440918 3 C 41.49122619628906 3 35.66378021240234 4.1761474609375 30.17951965332031 6.495796203613281 C 24.880859375 8.7369384765625 20.12153625488281 11.94596862792969 16.03376770019531 16.03373718261719 C 11.94598388671875 20.12149047851562 8.736968994140625 24.88081359863281 6.495811462402344 30.17947387695312 C 4.176162719726562 35.66371917724609 3.000007629394531 41.49116516113281 3.000007629394531 47.49993515014648 C 3.000007629394531 53.50870513916016 4.176162719726562 59.33615112304688 6.495811462402344 64.82039642333984 C 8.736968994140625 70.11905670166016 11.94598388671875 74.87837982177734 16.03376770019531 78.96613311767578 C 20.12153625488281 83.05390167236328 24.880859375 86.26293182373047 30.17951965332031 88.50407409667969 C 35.66378021240234 90.82372283935547 41.49122619628906 91.99987030029297 47.5000114440918 91.99987030029297 C 53.50879669189453 91.99987030029297 59.33624267578125 90.82372283935547 64.82050323486328 88.50407409667969 C 70.11916351318359 86.26293182373047 74.87848663330078 83.05390167236328 78.96625518798828 78.96613311767578 C 83.05403900146484 74.87837982177734 86.2630615234375 70.11905670166016 88.50421142578125 64.82039642333984 C 90.82386016845703 59.33615112304688 92.00001525878906 53.50870513916016 92.00001525878906 47.49993515014648 C 92.00001525878906 41.49116516113281 90.82386016845703 35.66371917724609 88.50421142578125 30.17947387695312 C 86.2630615234375 24.88081359863281 83.05403900146484 20.12149047851562 78.96625518798828 16.03373718261719 C 74.87848663330078 11.94596862792969 70.11916351318359 8.7369384765625 64.82050323486328 6.495796203613281 C 59.33624267578125 4.1761474609375 53.50879669189453 3 47.5000114440918 3 M 47.5000114440918 0 C 73.73353576660156 0 95.00001525878906 21.26644134521484 95.00001525878906 47.49993515014648 C 95.00001525878906 73.73342895507812 73.73353576660156 94.99987030029297 47.5000114440918 94.99987030029297 C 21.26648712158203 94.99987030029297 7.62939453125e-06 73.73342895507812 7.62939453125e-06 47.49993515014648 C 7.62939453125e-06 21.26644134521484 21.26648712158203 0 47.5000114440918 0 Z" stroke="none" fill="#e44b36"/>
                                          </g>
                                        </g>
                                      </g>
                                    </g>
                                  </g>
                                </g>
                              </g>
                            </g>
                          </g>
                        </g>
                      </g>
                    </g>
                  </g>
                </g>
              </g>
            </g>
          </g>
        </g>
      </g>
    </g>
    <g id="benchmarking_10789334" transform="translate(2300.644 4254.296)">
      <g id="Grupo_1209818" data-name="Grupo 1209818" transform="translate(9.026 31.203)">
        <g id="Grupo_1209815" data-name="Grupo 1209815" transform="translate(26.491 26.521)">
          <path id="Trazado_1051321" data-name="Trazado 1051321" d="M223.131,350.881h3.545a.905.905,0,0,1,.9.9v8.65a.905.905,0,0,1-.9.9h-3.545a.905.905,0,0,1-.9-.9v-8.65A.905.905,0,0,1,223.131,350.881Z" transform="translate(-222.227 -337.233)" fill="#fe646f" fill-rule="evenodd"/>
          <path id="Trazado_1051322" data-name="Trazado 1051322" d="M249.826,350.881h.9a.905.905,0,0,1,.9.9v8.65a.905.905,0,0,1-.9.9h-.9a.905.905,0,0,0,.9-.9v-8.65A.905.905,0,0,0,249.826,350.881Z" transform="translate(-246.281 -337.233)" fill="#fd4755" fill-rule="evenodd"/>
          <path id="Trazado_1051323" data-name="Trazado 1051323" d="M300.5,299.294h3.545a.905.905,0,0,1,.9.9v15.277a.905.905,0,0,1-.9.9H300.5a.905.905,0,0,1-.9-.9V300.2A.905.905,0,0,1,300.5,299.294Z" transform="translate(-289.657 -292.273)" fill="#ffe177" fill-rule="evenodd"/>
          <path id="Trazado_1051324" data-name="Trazado 1051324" d="M327.2,299.294h.9a.905.905,0,0,1,.9.9v15.277a.905.905,0,0,1-.9.9h-.9a.905.905,0,0,0,.9-.9V300.2A.905.905,0,0,0,327.2,299.294Z" transform="translate(-313.711 -292.273)" fill="#ffd064" fill-rule="evenodd"/>
          <path id="Trazado_1051325" data-name="Trazado 1051325" d="M377.868,316.66h3.545a.905.905,0,0,1,.9.9v13.046a.905.905,0,0,1-.9.9h-3.545a.905.905,0,0,1-.9-.9V317.564A.905.905,0,0,1,377.868,316.66Z" transform="translate(-357.087 -307.408)" fill="#6cf5c2" fill-rule="evenodd"/>
          <path id="Trazado_1051326" data-name="Trazado 1051326" d="M404.563,316.66h.9a.905.905,0,0,1,.9.9v13.046a.905.905,0,0,1-.9.9h-.9a.905.905,0,0,0,.9-.9V317.564A.905.905,0,0,0,404.563,316.66Z" transform="translate(-381.141 -307.408)" fill="#00e499" fill-rule="evenodd"/>
          <path id="Trazado_1051327" data-name="Trazado 1051327" d="M455.235,244.637h3.545a.905.905,0,0,1,.9.9v22.3a.905.905,0,0,1-.9.9h-3.545a.905.905,0,0,1-.9-.9v-22.3A.905.905,0,0,1,455.235,244.637Z" transform="translate(-424.516 -244.637)" fill="#8ac9fe" fill-rule="evenodd"/>
          <path id="Trazado_1051328" data-name="Trazado 1051328" d="M481.931,244.637h.9a.905.905,0,0,1,.9.9v22.3a.905.905,0,0,1-.9.9h-.9a.905.905,0,0,0,.9-.9v-22.3A.905.905,0,0,0,481.931,244.637Z" transform="translate(-448.571 -244.637)" fill="#60b7ff" fill-rule="evenodd"/>
        </g>
        <g id="Grupo_1209816" data-name="Grupo 1209816" transform="translate(0 19.13)">
          <path id="Trazado_1051329" data-name="Trazado 1051329" d="M78.615,360.464a11.683,11.683,0,0,0,1.971,2.17l-5.359,5.253-2.04-2.1Z" transform="translate(-65.84 -338.194)" fill="#a79ba7" fill-rule="evenodd"/>
          <path id="Trazado_1051330" data-name="Trazado 1051330" d="M86.9,373.7a1.346,1.346,0,0,0,.583.782l-5.324,5.289-.652-.714Z" transform="translate(-73.094 -349.727)" fill="#837683" fill-rule="evenodd"/>
          <path id="Trazado_1051331" data-name="Trazado 1051331" d="M18.6,401.1l-2.3-2.373a1.059,1.059,0,0,1,.022-1.493l6.378-6.189a1.059,1.059,0,0,1,1.493.022l2.3,2.373a1.059,1.059,0,0,1-.022,1.493L20.1,401.126A1.059,1.059,0,0,1,18.6,401.1Z" transform="translate(-16.003 -364.592)" fill="#f1ba84" fill-rule="evenodd"/>
          <path id="Trazado_1051332" data-name="Trazado 1051332" d="M26.5,414.243l-6.378,6.189a1.059,1.059,0,0,1-1.493-.022l-2.3-2.373a1.047,1.047,0,0,1-.2-.292,1.06,1.06,0,0,0,.172,1.235l2.3,2.373a1.059,1.059,0,0,0,1.493.022l6.378-6.189a1.06,1.06,0,0,0,.223-1.2,1.046,1.046,0,0,1-.195.258Z" transform="translate(-16.002 -384.84)" fill="#e3a76f" fill-rule="evenodd"/>
          <circle id="Elipse_12613" data-name="Elipse 12613" cx="11.614" cy="11.614" r="11.614" transform="translate(5.049 16.422) rotate(-45)" fill="#8ac9fe"/>
          <path id="Trazado_1051333" data-name="Trazado 1051333" d="M179.371,224.542a11.614,11.614,0,1,1,0,23.227q-.284,0-.564-.014a11.613,11.613,0,0,0,0-23.2Q179.087,224.542,179.371,224.542Z" transform="translate(-157.894 -219.732)" fill="#60b7ff" fill-rule="evenodd"/>
          <circle id="Elipse_12614" data-name="Elipse 12614" cx="8.819" cy="8.819" r="8.819" transform="translate(12.658 7.604)" fill="#eceff1"/>
          <path id="Trazado_1051334" data-name="Trazado 1051334" d="M123.358,246.294c.2,0,.4.007.6.021a8.819,8.819,0,0,0,0,17.6c-.2.013-.4.021-.6.021a8.819,8.819,0,1,1,0-17.639Z" transform="translate(-101.881 -238.69)" fill="#d1d1d6" fill-rule="evenodd"/>
        </g>
        <g id="Grupo_1209817" data-name="Grupo 1209817" transform="translate(11.6 0)">
          <path id="Trazado_1051335" data-name="Trazado 1051335" d="M126.381,38.178a20.086,20.086,0,0,1,20.074,19.393.67.67,0,0,1-.67.692H138.71a.669.669,0,0,1-.668-.634,11.678,11.678,0,0,0-23.321,0,.669.669,0,0,1-.668.634h-7.075a.67.67,0,0,1-.67-.692A20.086,20.086,0,0,1,126.381,38.178Z" transform="translate(-106.307 -38.178)" fill="#6cf5c2" fill-rule="evenodd"/>
          <path id="Trazado_1051336" data-name="Trazado 1051336" d="M127.146,48.219l7.283,4.2a11.672,11.672,0,0,1,10.115-5.838V38.178a20.076,20.076,0,0,0-17.4,10.041Z" transform="translate(-124.469 -38.178)" fill="#00e499" fill-rule="evenodd"/>
          <path id="Trazado_1051337" data-name="Trazado 1051337" d="M184.387,40.867l4.2,7.283a11.691,11.691,0,0,1,11.679,0l4.2-7.283a20.111,20.111,0,0,0-20.089,0Z" transform="translate(-174.357 -38.179)" fill="#ffe177" fill-rule="evenodd"/>
          <path id="Trazado_1051338" data-name="Trazado 1051338" d="M262.579,38.178v8.408a11.672,11.672,0,0,1,10.115,5.838l7.283-4.2a20.076,20.076,0,0,0-17.4-10.041Z" transform="translate(-242.505 -38.178)" fill="#ffd064" fill-rule="evenodd"/>
          <path id="Trazado_1051339" data-name="Trazado 1051339" d="M312.245,59.1l-4.2,7.283a11.735,11.735,0,0,1,4.275,4.275,11.612,11.612,0,0,1,1.546,5.206.669.669,0,0,0,.668.634H321.6a.67.67,0,0,0,.669-.692,19.976,19.976,0,0,0-2.676-9.352A20.182,20.182,0,0,0,312.245,59.1Z" transform="translate(-282.126 -56.416)" fill="#fe646f" fill-rule="evenodd"/>
          <path id="Trazado_1051340" data-name="Trazado 1051340" d="M348.6,116.344l-7.283,4.2a11.611,11.611,0,0,1,1.546,5.206.669.669,0,0,0,.668.634h7.075a.67.67,0,0,0,.67-.692A19.976,19.976,0,0,0,348.6,116.344Z" transform="translate(-311.131 -106.303)" fill="#fd4755" fill-rule="evenodd"/>
          <circle id="Elipse_12615" data-name="Elipse 12615" cx="2.378" cy="2.378" r="2.378" transform="translate(17.696 17.707)" fill="#9facba"/>
          <path id="Trazado_1051341" data-name="Trazado 1051341" d="M260.084,176.02a2.378,2.378,0,1,1-.368,4.728,2.379,2.379,0,0,0,0-4.7A2.4,2.4,0,0,1,260.084,176.02Z" transform="translate(-240.01 -158.313)" fill="#8d9ca8" fill-rule="evenodd"/>
        </g>
      </g>
      <path id="Trazado_1051342" data-name="Trazado 1051342" d="M30.5,74.547A7.792,7.792,0,1,1,38.3,66.755,7.8,7.8,0,0,1,30.5,74.547Zm0-17.64a9.848,9.848,0,1,0,9.847,9.847A9.859,9.859,0,0,0,30.5,56.908ZM39.842,80.8h-3.3V77.857a12.749,12.749,0,0,0,3.3-2.591ZM19.918,66.755A10.586,10.586,0,1,0,30.5,56.169,10.6,10.6,0,0,0,19.918,66.755ZM18.781,79.94,12.4,86.129a.033.033,0,0,1-.04,0l-2.3-2.374a.023.023,0,0,1-.007-.019.024.024,0,0,1,.008-.021l6.378-6.189a.025.025,0,0,1,.019-.007.023.023,0,0,1,.021.008l2.3,2.373a.021.021,0,0,1,.006.02A.026.026,0,0,1,18.781,79.94Zm2.694-4.347-2.066,2-.609-.628,2.083-2.022Q21.168,75.28,21.474,75.593ZM42.262,62.115l6.071-4.727,9.391,3.047a1.025,1.025,0,0,0,1.046-.253l7.893-7.96-.037.333a1.028,1.028,0,0,0,.907,1.135,1.119,1.119,0,0,0,.116.007,1.028,1.028,0,0,0,1.02-.913l.361-3.228a1.028,1.028,0,0,0-1.111-1.138l-3.236.284a1.028,1.028,0,1,0,.18,2.048l.4-.035-7.508,7.572-9.308-3.02a1.025,1.025,0,0,0-.947.166l-6.171,4.8A12.638,12.638,0,0,0,19.669,73.261l-2.427,2.356a2.091,2.091,0,0,0-.753-.152,2.051,2.051,0,0,0-1.483.586L8.63,82.241a2.086,2.086,0,0,0-.045,2.947l2.3,2.373a2.083,2.083,0,0,0,2.946.044l6.378-6.188a2.088,2.088,0,0,0,.5-2.221l2.318-2.249a12.625,12.625,0,0,0,11.458,1.806v3.076a1.028,1.028,0,0,0,1.028,1.028H40.87A1.029,1.029,0,0,0,41.9,81.828v-9.6a12.641,12.641,0,0,0,.364-10.113ZM69.656,80.8h-3.3V58.751h3.3Zm1.028-24.1a1.028,1.028,0,0,1,1.028,1.028v24.1a1.028,1.028,0,0,1-1.028,1.028H65.331A1.029,1.029,0,0,1,64.3,81.828v-24.1A1.028,1.028,0,0,1,65.331,56.7ZM59.718,80.8h-3.3V68h3.3Zm1.028-14.853a1.028,1.028,0,0,1,1.028,1.028V81.828a1.028,1.028,0,0,1-1.028,1.028H55.394a1.028,1.028,0,0,1-1.028-1.028V66.975a1.028,1.028,0,0,1,1.028-1.028ZM49.78,80.8h-3.3V65.771h3.3Zm1.028-17.085a1.029,1.029,0,0,1,1.028,1.028V81.828a1.028,1.028,0,0,1-1.028,1.028H45.456a1.028,1.028,0,0,1-1.028-1.028V64.743a1.029,1.029,0,0,1,1.028-1.028ZM40.7,52.321a1.033,1.033,0,1,1,1.034-1.034A1.035,1.035,0,0,1,40.7,52.321Zm5.185-6.22a1.027,1.027,0,0,1,0,1.454l-2.4,2.4A3.084,3.084,0,1,1,42.034,48.5l2.4-2.4A1.027,1.027,0,0,1,45.886,46.1ZM23.71,42.663l5.512,3.183a12.6,12.6,0,0,0-1.185,4.413H21.671A18.913,18.913,0,0,1,23.71,42.663Zm6.59-7.337a19.2,19.2,0,0,0-5.561,5.558l5.513,3.183a12.813,12.813,0,0,1,3.229-3.229Zm26.362,5.558-5.513,3.183a12.814,12.814,0,0,0-3.229-3.229L51.1,35.326a19.2,19.2,0,0,1,5.559,5.558Zm-3.3,9.375a12.628,12.628,0,0,0-1.186-4.413l5.513-3.183a18.923,18.923,0,0,1,2.039,7.6ZM39.673,38.625a12.589,12.589,0,0,0-4.413,1.183L32.077,34.3a18.931,18.931,0,0,1,7.6-2.037v6.366Zm2.055-6.366v6.366a12.588,12.588,0,0,1,4.414,1.183L49.324,34.3A18.927,18.927,0,0,0,41.728,32.259ZM20.616,52.314a1.027,1.027,0,0,1-1.027-1.028,21.112,21.112,0,0,1,42.224,0,1.028,1.028,0,0,1-1.028,1.028H52.378a1.027,1.027,0,0,1-1.027-1.028,10.65,10.65,0,0,0-21.3,0,1.028,1.028,0,0,1-1.028,1.028Z" transform="translate(0 0)" fill-rule="evenodd"/>
    </g>
  </g>
</svg>
