<svg xmlns="http://www.w3.org/2000/svg" xmlns:xlink="http://www.w3.org/1999/xlink" width="108" height="108" viewBox="0 0 108 108">
  <defs>
    <filter id="Trazado_904820" x="0" y="0" width="108" height="108" filterUnits="userSpaceOnUse">
      <feOffset dy="3" input="SourceAlpha"/>
      <feGaussianBlur stdDeviation="3" result="blur"/>
      <feFlood flood-opacity="0.161"/>
      <feComposite operator="in" in2="blur"/>
      <feComposite in="SourceGraphic"/>
    </filter>
  </defs>
  <g id="Grupo_1174993" data-name="Grupo 1174993" transform="translate(9 6)">
    <g id="Grupo_1173585" data-name="Grupo 1173585" transform="translate(0 0)">
      <g id="Grupo_1173428" data-name="Grupo 1173428">
        <g id="Grupo_1171958" data-name="Grupo 1171958">
          <g id="Grupo_1167341" data-name="Grupo 1167341">
            <g id="Grupo_1166792" data-name="Grupo 1166792">
              <g transform="matrix(1, 0, 0, 1, -9, -6)" filter="url(#Trazado_904820)">
                <g id="Trazado_904820-2" data-name="Trazado 904820" transform="translate(9 6)" fill="#fcebe9">
                  <path d="M 44.99999618530273 88.50002288818359 C 39.12687301635742 88.50002288818359 33.43022155761719 87.35009765625 28.06829643249512 85.08218383789062 C 22.88852119445801 82.89133453369141 18.23629570007324 79.75460815429688 14.24084663391113 75.75916290283203 C 10.24540901184082 71.76371002197266 7.108683586120605 67.11148834228516 4.917821407318115 61.93171310424805 C 2.649921178817749 56.56978607177734 1.499996185302734 50.87313461303711 1.499996185302734 45.0000114440918 C 1.499996185302734 39.12688827514648 2.649921178817749 33.43023681640625 4.917821407318115 28.06829833984375 C 7.108683586120605 22.88852310180664 10.24540901184082 18.2363109588623 14.24084663391113 14.2408618927002 C 18.23629570007324 10.24541187286377 22.88852119445801 7.108686447143555 28.06829643249512 4.917823791503906 C 33.43022155761719 2.649924039840698 39.12687301635742 1.499998927116394 44.99999618530273 1.499998927116394 C 50.87311935424805 1.499998927116394 56.56977081298828 2.649924039840698 61.93169784545898 4.917823791503906 C 67.11147308349609 7.108686447143555 71.76369476318359 10.24541187286377 75.75914764404297 14.2408618927002 C 79.75458526611328 18.2363109588623 82.89131164550781 22.88852310180664 85.08216857910156 28.06829833984375 C 87.35007476806641 33.43023681640625 88.5 39.12688827514648 88.5 45.0000114440918 C 88.5 50.87313461303711 87.35007476806641 56.56978607177734 85.08216857910156 61.93171310424805 C 82.89131164550781 67.11148834228516 79.75458526611328 71.76371002197266 75.75914764404297 75.75916290283203 C 71.76369476318359 79.75460815429688 67.11147308349609 82.89133453369141 61.93169784545898 85.08218383789062 C 56.56977081298828 87.35009765625 50.87311935424805 88.50002288818359 44.99999618530273 88.50002288818359 Z" stroke="none"/>
                  <path d="M 44.99999618530273 3 C 39.32870864868164 3 33.82865142822266 4.110054016113281 28.65262603759766 6.299339294433594 C 23.65165710449219 8.414566040039062 19.15968322753906 11.44333648681641 15.301513671875 15.30152893066406 C 11.44333648681641 19.15969848632812 8.414566040039062 23.65165710449219 6.299339294433594 28.65264129638672 C 4.110054016113281 33.82866668701172 2.999992370605469 39.3287239074707 2.999992370605469 45.0000114440918 C 2.999992370605469 50.67129898071289 4.110054016113281 56.17135620117188 6.299339294433594 61.34738159179688 C 8.414566040039062 66.34836578369141 11.44333648681641 70.84032440185547 15.301513671875 74.69849395751953 C 19.15968322753906 78.55668640136719 23.65165710449219 81.58545684814453 28.65262603759766 83.70068359375 C 33.82865142822266 85.88996887207031 39.32870864868164 87.00002288818359 44.99999618530273 87.00002288818359 C 50.67128372192383 87.00002288818359 56.17134094238281 85.88996887207031 61.34736633300781 83.70068359375 C 66.34834289550781 81.58545684814453 70.84030914306641 78.55668640136719 74.69847869873047 74.69849395751953 C 78.55665588378906 70.84032440185547 81.58542633056641 66.34836578369141 83.70065307617188 61.34738159179688 C 85.88993835449219 56.17135620117188 87 50.67129898071289 87 45.0000114440918 C 87 39.3287239074707 85.88993835449219 33.82866668701172 83.70065307617188 28.65264129638672 C 81.58542633056641 23.65165710449219 78.55665588378906 19.15969848632812 74.69847869873047 15.30152893066406 C 70.84030914306641 11.44333648681641 66.34834289550781 8.414566040039062 61.34736633300781 6.299339294433594 C 56.17134094238281 4.110054016113281 50.67128372192383 3 44.99999618530273 3 M 44.99999618530273 0 C 69.85281372070312 0 90 20.14719390869141 90 45.0000114440918 C 90 69.85282897949219 69.85281372070312 90.00002288818359 44.99999618530273 90.00002288818359 C 20.14717864990234 90.00002288818359 -7.62939453125e-06 69.85282897949219 -7.62939453125e-06 45.0000114440918 C -7.62939453125e-06 20.14719390869141 20.14717864990234 0 44.99999618530273 0 Z" stroke="none" fill="#e44b36"/>
                </g>
              </g>
            </g>
          </g>
        </g>
      </g>
    </g>
    <g id="traffic-cone_16609344" transform="translate(14.043 15.043)">
      <g id="color" transform="translate(2.481 2.481)">
        <g id="Grupo_1209015" data-name="Grupo 1209015">
          <path id="Trazado_1048586" data-name="Trazado 1048586" d="M51.176,29.963a1.968,1.968,0,0,1-1.963,1.963H9.963a1.963,1.963,0,1,1,0-3.925H49.213A1.968,1.968,0,0,1,51.176,29.963Z" transform="translate(3.775 23.026)" fill="#43b3ff"/>
          <path id="Trazado_1048587" data-name="Trazado 1048587" d="M34.4,27.663H3a15.657,15.657,0,0,1,7.34-13.286l-.628-1.9A17.5,17.5,0,0,1,18.7,10a16.961,16.961,0,0,1,4.71.648,16.563,16.563,0,0,1,3.356,1.315c.314.157.628.334.922.51l-.628,1.9a15.934,15.934,0,0,1,3.866,3.474,14.911,14.911,0,0,1,2.963,5.888A15.267,15.267,0,0,1,34.4,27.663Z" transform="translate(-1.037 5.7)" fill="#f45151"/>
          <path id="Trazado_1048588" data-name="Trazado 1048588" d="M37.325,20.963a1.968,1.968,0,0,1-1.963,1.963H3.963a1.963,1.963,0,0,1,0-3.925h31.4A1.968,1.968,0,0,1,37.325,20.963Z" transform="translate(-2 14.363)" fill="#43b3ff"/>
          <path id="Trazado_1048589" data-name="Trazado 1048589" d="M34.064,10.888H13.85L14.969,5H32.945Z" transform="translate(9.406 0.888)" fill="#ffc943"/>
          <path id="Trazado_1048590" data-name="Trazado 1048590" d="M32.4,7.888H14.42L15.558,2h15.7Z" transform="translate(9.955 -2)" fill="#f2f2f2"/>
          <path id="Trazado_1048591" data-name="Trazado 1048591" d="M35.128,16.888H19.271A15.933,15.933,0,0,0,15.4,13.414l.628-1.9c-.294-.177-.608-.353-.922-.51h18.88Z" transform="translate(10.619 6.663)" fill="#ffc943"/>
          <path id="Trazado_1048592" data-name="Trazado 1048592" d="M35.635,13.888H16.756A16.563,16.563,0,0,0,13.4,12.573L14.283,8H34.5l1.138,5.888Z" transform="translate(8.973 3.775)" fill="#f2f2f2"/>
          <path id="Trazado_1048593" data-name="Trazado 1048593" d="M33.891,22.888H21.213a1.968,1.968,0,0,0-1.963-1.963A15.267,15.267,0,0,0,18.74,17H32.752l1.138,5.888Z" transform="translate(14.113 12.438)" fill="#ffc943"/>
          <path id="Trazado_1048594" data-name="Trazado 1048594" d="M34.206,19.888H20.193A14.911,14.911,0,0,0,17.23,14H33.087Z" transform="translate(12.659 9.55)" fill="#f2f2f2"/>
          <path id="Trazado_1048595" data-name="Trazado 1048595" d="M44.214,28.888H10.38L11.518,23H43.076Z" transform="translate(6.066 18.213)" fill="#ffc943"/>
          <g id="Grupo_1209014" data-name="Grupo 1209014" transform="translate(15.7 35.325)">
            <path id="Trazado_1048596" data-name="Trazado 1048596" d="M42.517,25.888H10.96l.765-3.925H26.739A1.968,1.968,0,0,0,28.7,20H41.379l1.138,5.888Z" transform="translate(-9.076 -20)" fill="#f2f2f2"/>
            <path id="Trazado_1048597" data-name="Trazado 1048597" d="M45.325,29.925H10L10.746,26H44.58Z" transform="translate(-10 -14.225)" fill="#f2f2f2"/>
          </g>
        </g>
      </g>
      <g id="line" transform="translate(1.5 1.5)">
        <g id="Grupo_1209016" data-name="Grupo 1209016">
          <path id="Trazado_1048598" data-name="Trazado 1048598" d="M17.2,32.045a.981.981,0,0,0-.981-.981H4.444a.981.981,0,1,1,0-1.963h31.4a.981.981,0,1,1,0,1.963H24.069a.981.981,0,1,0,0,1.963H35.844a2.936,2.936,0,0,0,.93-5.723,16.5,16.5,0,0,0-7.116-12.847l.405-1.216a.981.981,0,0,0-.427-1.153,18.858,18.858,0,0,0-18.983,0,.981.981,0,0,0-.427,1.153l.405,1.216A16.5,16.5,0,0,0,3.514,27.3a2.936,2.936,0,0,0,.93,5.723H16.219a.981.981,0,0,0,.981-.981Zm17.6-4.906H25.43l.654-1.963h1.91a.981.981,0,0,0,0-1.963H26.738l2.27-6.811A14.548,14.548,0,0,1,34.8,27.139ZM27.946,13.386,24.67,23.214H22.107a.981.981,0,1,0,0,1.963h1.909l-.654,1.963H16.926l-.654-1.963h1.909a.981.981,0,1,0,0-1.963H15.618l-3.276-9.828a16.855,16.855,0,0,1,15.6,0ZM11.279,16.4l2.27,6.811H12.294a.981.981,0,1,0,0,1.963H14.2l.654,1.963H5.487A14.548,14.548,0,0,1,11.279,16.4Z" transform="translate(-1.5 6.224)"/>
          <path id="Trazado_1048599" data-name="Trazado 1048599" d="M49.694,52.526H48.543l-1.719-8.939a1.083,1.083,0,0,0-.03-.157L38.883,2.3a.981.981,0,0,0-.964-.8h-15.7a.981.981,0,0,0-.964.8L18.991,14.071a.988.988,0,0,0,.972,1.166H39.373l.755,3.925H28.107a.981.981,0,1,0,0,1.963h12.4l.755,3.925H32.032a.981.981,0,0,0,0,1.963h9.606l.755,3.925h-8.4a.981.981,0,1,0,0,1.963H42.77l.755,3.925H35.957a.981.981,0,0,0,0,1.963H43.9l.755,3.925H14.293a.982.982,0,0,0-.964.8L11.6,52.526H10.444a2.944,2.944,0,0,0,0,5.888H49.694a2.944,2.944,0,1,0,0-5.888ZM37.108,3.463l.755,3.925H22.275l.755-3.925H37.108ZM21.143,13.275,21.9,9.35H38.241L39,13.275H21.143Zm23.891,31.4.755,3.925H14.347l.754-3.925ZM13.97,50.563h32.2l.377,1.963H13.594Zm35.724,5.888H10.444a.981.981,0,0,1,0-1.963H49.694a.981.981,0,0,1,0,1.963Z" transform="translate(4.275 -1.5)"/>
          <circle id="Elipse_12552" data-name="Elipse 12552" cx="1.049" cy="1.049" r="1.049" transform="translate(17.442 37.374)"/>
        </g>
      </g>
    </g>
  </g>
</svg>
