<svg xmlns="http://www.w3.org/2000/svg" xmlns:xlink="http://www.w3.org/1999/xlink" width="108" height="108" viewBox="0 0 108 108">
  <defs>
    <filter id="Trazado_904820" x="0" y="0" width="108" height="108" filterUnits="userSpaceOnUse">
      <feOffset dy="3" input="SourceAlpha"/>
      <feGaussianBlur stdDeviation="3" result="blur"/>
      <feFlood flood-opacity="0.161"/>
      <feComposite operator="in" in2="blur"/>
      <feComposite in="SourceGraphic"/>
    </filter>
  </defs>
  <g id="Grupo_1209799" data-name="Grupo 1209799" transform="translate(-200 -2066.035)">
    <g id="Grupo_1209737" data-name="Grupo 1209737" transform="translate(209 2072.035)">
      <g id="Grupo_1173585" data-name="Grupo 1173585" transform="translate(0 0)">
        <g id="Grupo_1173428" data-name="Grupo 1173428">
          <g id="Grupo_1171958" data-name="Grupo 1171958">
            <g id="Grupo_1167341" data-name="Grupo 1167341">
              <g id="Grupo_1166792" data-name="Grupo 1166792">
                <g transform="matrix(1, 0, 0, 1, -9, -6)" filter="url(#Trazado_904820)">
                  <g id="Trazado_904820-2" data-name="Trazado 904820" transform="translate(9 6)" fill="#eaf5f4">
                    <path d="M 44.99999618530273 88.5 C 39.12687301635742 88.5 33.43022155761719 87.35008239746094 28.06829643249512 85.08216857910156 C 22.88852119445801 82.89131927490234 18.23629570007324 79.75459289550781 14.24084663391113 75.75914001464844 C 10.24540901184082 71.76369476318359 7.108683586120605 67.11146545410156 4.917821407318115 61.93170547485352 C 2.649921178817749 56.56976699829102 1.499996185302734 50.87312698364258 1.499996185302734 45.00000381469727 C 1.499996185302734 39.12688064575195 2.649921178817749 33.43022918701172 4.917821407318115 28.06830406188965 C 7.108683586120605 22.88852882385254 10.24540901184082 18.23630332946777 14.24084663391113 14.24085426330566 C 18.23629570007324 10.24541664123535 22.88852119445801 7.108691215515137 28.06829643249512 4.917829036712646 C 33.43022155761719 2.64992880821228 39.12687301635742 1.500003814697266 44.99999618530273 1.500003814697266 C 50.87311935424805 1.500003814697266 56.56977081298828 2.64992880821228 61.93169784545898 4.917829036712646 C 67.11147308349609 7.108691215515137 71.76369476318359 10.24541664123535 75.75914764404297 14.24085426330566 C 79.75458526611328 18.23630332946777 82.89131164550781 22.88852882385254 85.08216857910156 28.06830406188965 C 87.35007476806641 33.43022918701172 88.5 39.12688064575195 88.5 45.00000381469727 C 88.5 50.87312698364258 87.35007476806641 56.56976699829102 85.08216857910156 61.93170547485352 C 82.89131164550781 67.11146545410156 79.75458526611328 71.76369476318359 75.75914764404297 75.75914001464844 C 71.76369476318359 79.75459289550781 67.11147308349609 82.89131927490234 61.93169784545898 85.08216857910156 C 56.56977081298828 87.35008239746094 50.87311935424805 88.5 44.99999618530273 88.5 Z" stroke="none"/>
                    <path d="M 44.99999618530273 3.000007629394531 C 39.32870864868164 3.000007629394531 33.82865142822266 4.110061645507812 28.65262603759766 6.299346923828125 C 23.65165710449219 8.414573669433594 19.15968322753906 11.44334411621094 15.301513671875 15.30152130126953 C 11.44333648681641 19.15969085693359 8.414566040039062 23.65166473388672 6.299339294433594 28.65263366699219 C 4.110054016113281 33.82865905761719 2.999992370605469 39.32871627807617 2.999992370605469 45.00000381469727 C 2.999992370605469 50.67129135131836 4.110054016113281 56.17133331298828 6.299339294433594 61.34737396240234 C 8.414566040039062 66.34834289550781 11.44333648681641 70.84030151367188 15.301513671875 74.698486328125 C 19.15968322753906 78.55666351318359 23.65165710449219 81.58543395996094 28.65262603759766 83.70066070556641 C 33.82865142822266 85.88994598388672 39.32870864868164 87 44.99999618530273 87 C 50.67128372192383 87 56.17134094238281 85.88994598388672 61.34736633300781 83.70066070556641 C 66.34834289550781 81.58543395996094 70.84030914306641 78.55666351318359 74.69847869873047 74.698486328125 C 78.55665588378906 70.84030151367188 81.58542633056641 66.34834289550781 83.70065307617188 61.34737396240234 C 85.88993835449219 56.17133331298828 87 50.67129135131836 87 45.00000381469727 C 87 39.32871627807617 85.88993835449219 33.82865905761719 83.70065307617188 28.65263366699219 C 81.58542633056641 23.65166473388672 78.55665588378906 19.15969085693359 74.69847869873047 15.30152130126953 C 70.84030914306641 11.44334411621094 66.34834289550781 8.414573669433594 61.34736633300781 6.299346923828125 C 56.17134094238281 4.110061645507812 50.67128372192383 3.000007629394531 44.99999618530273 3.000007629394531 M 44.99999618530273 7.62939453125e-06 C 69.85281372070312 7.62939453125e-06 90 20.14718627929688 90 45.00000381469727 C 90 69.85280609130859 69.85281372070312 90 44.99999618530273 90 C 20.14717864990234 90 -7.62939453125e-06 69.85280609130859 -7.62939453125e-06 45.00000381469727 C -7.62939453125e-06 20.14718627929688 20.14717864990234 7.62939453125e-06 44.99999618530273 7.62939453125e-06 Z" stroke="none" fill="#235a53"/>
                  </g>
                </g>
              </g>
            </g>
          </g>
        </g>
      </g>
    </g>
    <g id="instrumentation_18133454" transform="translate(201.333 2062.657)">
      <g id="Grupo_1209798" data-name="Grupo 1209798" transform="translate(25.307 26.258)">
        <path id="Trazado_1051216" data-name="Trazado 1051216" d="M221.227,195.44l1.6.037a1.082,1.082,0,0,1,.976,1.622l-.788,2a2.554,2.554,0,0,1-2.222,1.551l-1.6-.034Z" transform="translate(-194.319 -173.842)" fill="#ff9aa2" fill-rule="evenodd"/>
        <path id="Trazado_1051217" data-name="Trazado 1051217" d="M64.5,195.44l-1.6.037a1.079,1.079,0,0,0-.976,1.622l.784,2a2.565,2.565,0,0,0,2.226,1.551l1.6-.034Z" transform="translate(-57.779 -173.842)" fill="#ff9aa2" fill-rule="evenodd"/>
        <path id="Trazado_1051218" data-name="Trazado 1051218" d="M55.341,288.457c5.146.372,9.23,4.422,9.23,9.32V308.34a2.737,2.737,0,0,1-2.733,2.729H34.109a2.734,2.734,0,0,1-2.729-2.729V297.777a9.638,9.638,0,0,1,8.972-9.3A83.327,83.327,0,0,1,55.341,288.457Z" transform="translate(-31.38 -254.257)" fill="#608ea9" fill-rule="evenodd"/>
        <path id="Trazado_1051219" data-name="Trazado 1051219" d="M79.467,288.292c5.139.442,9.23,4.422,9.23,9.32v10.563a2.737,2.737,0,0,1-2.733,2.729H69.684c-4.4-2.433-10.793-15.841-10.484-20.534a10.3,10.3,0,0,1,5.278-2.057A77.43,77.43,0,0,1,79.467,288.292Z" transform="translate(-55.506 -254.092)" fill="#769fb6" fill-rule="evenodd"/>
        <path id="Trazado_1051220" data-name="Trazado 1051220" d="M140.507,420.613a2.831,2.831,0,0,1-2.823,2.826H133.34V417.79h4.343A2.83,2.83,0,0,1,140.507,420.613Z" transform="translate(-119.838 -366.747)" fill="#ff9aa2" fill-rule="evenodd"/>
        <path id="Trazado_1051221" data-name="Trazado 1051221" d="M161.652,320.25H179.53l-5.69,21.232H155.96Z" transform="translate(-139.463 -282.124)" fill="#31a7fb" fill-rule="evenodd"/>
        <path id="Trazado_1051222" data-name="Trazado 1051222" d="M195.687,320.25h17.879l-5.117,19.1c-.244,0-.485-.008-.728-.026-6.922-.481-12.53-7.29-12.53-15.2a15.765,15.765,0,0,1,.323-3.221Z" transform="translate(-173.498 -282.124)" fill="#64b9fc" fill-rule="evenodd"/>
        <path id="Trazado_1051223" data-name="Trazado 1051223" d="M121.711,238.92h9.729v6.423a4.865,4.865,0,0,1-9.73,0V238.92Z" transform="translate(-109.748 -211.564)" fill="#ff9aa2" fill-rule="evenodd"/>
        <path id="Trazado_1051224" data-name="Trazado 1051224" d="M91.3,119.61c5.661,0,10.248,3.8,10.248,8.479S96.962,140.848,91.3,140.848,81.05,132.774,81.05,128.089,85.636,119.61,91.3,119.61Z" transform="translate(-74.473 -108.053)" fill="#ff9aa2" fill-rule="evenodd"/>
        <path id="Trazado_1051225" data-name="Trazado 1051225" d="M85.35,184.332a5.586,5.586,0,0,1,3.462-.064,13.9,13.9,0,0,0,.792,5.616c-2.5.518-3.877-3.844-4.253-5.553Z" transform="translate(-78.203 -163.938)" fill="#ffb703" fill-rule="evenodd"/>
        <path id="Trazado_1051226" data-name="Trazado 1051226" d="M100.4,65.428a9.361,9.361,0,0,1,6.84,8.761c-.034,0-.072,0-.1,0h-18.5c-.037,0-.072,0-.109,0a9.364,9.364,0,0,1,6.84-8.761v-3.16a.561.561,0,0,1,.559-.559H99.84a.561.561,0,0,1,.559.559Z" transform="translate(-80.962 -57.821)" fill="#fb8500" fill-rule="evenodd"/>
        <path id="Trazado_1051227" data-name="Trazado 1051227" d="M112.25,130.287v1.043a.3.3,0,0,0,.3.3h.424a.3.3,0,0,0,.3-.3v-1.043a.3.3,0,0,0-.3-.3h-.424A.3.3,0,0,0,112.25,130.287Zm5.747.184v.679a.484.484,0,0,1-.481.481h-2.752a.484.484,0,0,1-.481-.481v-.679a.482.482,0,0,1,.481-.481h2.752A.481.481,0,0,1,118,130.471Z" transform="translate(-101.541 -117.059)" fill="#fff2af" fill-rule="evenodd"/>
        <path id="Trazado_1051228" data-name="Trazado 1051228" d="M207.973,184.332a5.586,5.586,0,0,0-3.462-.064,13.9,13.9,0,0,1-.792,5.616C206.218,190.4,207.6,186.04,207.973,184.332Z" transform="translate(-180.898 -163.938)" fill="#ffb703" fill-rule="evenodd"/>
        <path id="Trazado_1051229" data-name="Trazado 1051229" d="M76.362,155.93H94.857a1.982,1.982,0,0,1,0,3.965H76.362a1.982,1.982,0,1,1,0-3.965Z" transform="translate(-68.686 -139.564)" fill="#ba562f" fill-rule="evenodd"/>
        <path id="Trazado_1051230" data-name="Trazado 1051230" d="M298.731,32.34A12.949,12.949,0,1,1,285.78,45.287,12.95,12.95,0,0,1,298.731,32.34Z" transform="translate(-252.091 -32.34)" fill="#0bda64" fill-rule="evenodd"/>
        <path id="Trazado_1051231" data-name="Trazado 1051231" d="M298.74,32.34a12.948,12.948,0,0,1,11.216,19.423h0l-5.045-3.044a7.056,7.056,0,1,0-12.3.064l-5.081,2.98v0A12.951,12.951,0,0,1,298.74,32.34Z" transform="translate(-252.1 -32.34)" fill="#ed2024" fill-rule="evenodd"/>
        <path id="Trazado_1051232" data-name="Trazado 1051232" d="M369.759,130.81a2.108,2.108,0,1,1-2.109,2.106A2.1,2.1,0,0,1,369.759,130.81Z" transform="translate(-323.12 -117.77)" fill="#ffc843" fill-rule="evenodd"/>
      </g>
      <path id="Trazado_1051233" data-name="Trazado 1051233" d="M71.947,38.371a3.068,3.068,0,0,1,1.085.2l1.731-2.162A.923.923,0,1,1,76.2,37.559l-1.731,2.162a3.038,3.038,0,1,1-2.527-1.351Zm.834,2.2a1.181,1.181,0,1,0,0,1.67A1.182,1.182,0,0,0,72.781,40.571ZM69.9,47.353a.927.927,0,0,1,0-1.854H73.99a.927.927,0,0,1,0,1.854ZM64.616,36.04,61.1,34.009a12.045,12.045,0,0,0,0,10.386l3.507-2.057a7.969,7.969,0,0,1,.011-6.3Zm-2.589-3.627,3.513,2.027a7.964,7.964,0,0,1,5.481-3.165V27.218a12,12,0,0,0-8.994,5.195Zm16.328,2.027,3.513-2.027a12.017,12.017,0,0,0-8.994-5.195v4.057A7.983,7.983,0,0,1,78.355,34.441Zm4.438-.432L79.279,36.04a7.956,7.956,0,0,1,.03,6.235L82.8,44.38a12.041,12.041,0,0,0-.008-10.371Zm-.916,11.978-4.238-2.56a.926.926,0,0,1-.323-1.261,6.131,6.131,0,1,0-10.695.078.923.923,0,0,1-.4,1.283l-4.2,2.466a12.031,12.031,0,0,0,19.853-.007ZM71.947,25.33A13.876,13.876,0,1,1,58.069,39.2,13.878,13.878,0,0,1,71.947,25.33ZM52.462,41.87a2.911,2.911,0,0,1,.826,5.011l-.008.075a3.705,3.705,0,0,1,1.328.162,2.017,2.017,0,0,1,1.04,2.733l-.784,2a3.487,3.487,0,0,1-3.1,2.136l-.961-.023a15.886,15.886,0,0,1-2.872,3.509v1.966l1.408.094a11.122,11.122,0,0,1,7.759,3.922h8.28a.925.925,0,0,1,.882,1.213L60.579,85.853a.929.929,0,0,1-.9.687v0H41.8a.925.925,0,0,1-.878-1.216L41.279,84H28.036a3.661,3.661,0,0,1-3.656-3.656V69.781c0-5.413,4.44-9.7,9.813-10.218l2.151-.18V57.476a16.04,16.04,0,0,1-2.875-3.509,3.929,3.929,0,0,1-2.846-.585,3.458,3.458,0,0,1-1.242-1.528l-.788-2a2,2,0,0,1,1.821-2.879l.571-.015c-.015-.195.008-.229-.057-.293A2.911,2.911,0,0,1,32,41.872a10.287,10.287,0,0,1,6.787-8.679V30.706a1.5,1.5,0,0,1,1.487-1.487h3.912a1.5,1.5,0,0,1,1.487,1.487v2.486a10.3,10.3,0,0,1,6.788,8.678ZM51.2,47.515H49.841a16.483,16.483,0,0,1-.307,3.277A8.734,8.734,0,0,0,51.2,47.515Zm-3.209,0H36.846a11.227,11.227,0,0,0,.714,4.332.927.927,0,0,1-.669,1.261v0a2.813,2.813,0,0,1-1.952-.282c1.516,2.515,4.121,5.3,7.2,5.3,2.987,0,5.514-2.627,7.02-5.019a2.856,2.856,0,0,1-1.209,0v0a.928.928,0,0,1-.669-1.261A11.226,11.226,0,0,0,47.991,47.515Zm-13,0H33.636A8.718,8.718,0,0,0,35.3,50.792,16.376,16.376,0,0,1,35,47.515Zm-2.012-3.963a1.056,1.056,0,0,0-.743,1.8,1.045,1.045,0,0,0,.743.307H51.478a1.055,1.055,0,0,0,0-2.11ZM43.449,65.679v3.8a.927.927,0,0,1-1.854,0V65.8a5.809,5.809,0,0,1-5.127-4.575l-2.1.172c-4.426.424-8.135,3.922-8.135,8.378V80.343a1.808,1.808,0,0,0,1.8,1.8h9.846v-3.8h-5.1a.926.926,0,0,1-.927-.927V73.4a.927.927,0,1,1,1.854,0v3.1h8.551l-4.759-7.1a.924.924,0,1,1,1.536-1.028l4.6,6.858L46.6,64.146a.925.925,0,0,1,.894-.687h6.979a9.416,9.416,0,0,0-5.27-2.076l-1.416-.1a5.831,5.831,0,0,1-4.341,4.4Zm2.222-30.5v1.866a.927.927,0,0,1-1.854,0V31.073H40.642v5.972a.927.927,0,1,1-1.854,0V35.181a8.448,8.448,0,0,0-4.91,6.517h16.7A8.446,8.446,0,0,0,45.671,35.181ZM52.984,48.8a17.251,17.251,0,0,1-1.2,3.341,1.643,1.643,0,0,0,1.355-.965c.121-.307.837-2.034.841-2.226,0-.09-.011-.127-.188-.131ZM46.072,58.848a7.4,7.4,0,0,1-7.875,0v1.19a3.938,3.938,0,0,0,7.877,0v-1.19Zm-13.6-6.709A17.285,17.285,0,0,1,31.283,48.8a4.653,4.653,0,0,0-1.006.06c-.041.06,0,.225.037.319l.788,2a1.622,1.622,0,0,0,1.375.965Zm9.3,30,1.017-3.8H39.736v3.8ZM64.169,65.311H48.2l-3.28,12.237c-.045.372.008.154-.124.469l-1.351,5.052a.951.951,0,0,1-.127.469l-.307,1.148H58.976Z" fill="#010101"/>
    </g>
  </g>
</svg>
