<svg xmlns="http://www.w3.org/2000/svg" xmlns:xlink="http://www.w3.org/1999/xlink" width="113" height="113" viewBox="0 0 113 113">
  <defs>
    <filter id="Trazado_982547" x="0" y="0" width="113" height="113" filterUnits="userSpaceOnUse">
      <feOffset dy="3" input="SourceAlpha"/>
      <feGaussianBlur stdDeviation="3" result="blur"/>
      <feFlood flood-opacity="0.161"/>
      <feComposite operator="in" in2="blur"/>
      <feComposite in="SourceGraphic"/>
    </filter>
  </defs>
  <g id="Grupo_1209807" data-name="Grupo 1209807" transform="translate(-1132 -3832.979)">
    <g id="Grupo_1209740" data-name="Grupo 1209740" transform="translate(1141 3838.979)">
      <g id="Grupo_1209278" data-name="Grupo 1209278" transform="translate(0 0)">
        <g id="Grupo_1208038" data-name="Grupo 1208038">
          <g id="Grupo_1202104" data-name="Grupo 1202104">
            <g id="Grupo_1201923" data-name="Grupo 1201923">
              <g id="Grupo_1176928" data-name="Grupo 1176928">
                <g id="Grupo_1172322" data-name="Grupo 1172322">
                  <g id="Grupo_1164700" data-name="Grupo 1164700">
                    <g id="Grupo_1160931" data-name="Grupo 1160931">
                      <g id="Grupo_1160749" data-name="Grupo 1160749">
                        <g id="Grupo_1158891" data-name="Grupo 1158891">
                          <g id="Grupo_1157406" data-name="Grupo 1157406">
                            <g id="Grupo_1155793" data-name="Grupo 1155793">
                              <g id="Grupo_1154704" data-name="Grupo 1154704">
                                <g id="Grupo_1150790" data-name="Grupo 1150790">
                                  <g id="Grupo_1154214" data-name="Grupo 1154214">
                                    <g id="Grupo_1152583" data-name="Grupo 1152583">
                                      <g id="Grupo_1146973" data-name="Grupo 1146973">
                                        <g id="Grupo_1146954" data-name="Grupo 1146954">
                                          <g transform="matrix(1, 0, 0, 1, -9, -6)" filter="url(#Trazado_982547)">
                                            <g id="Trazado_982547-2" data-name="Trazado 982547" transform="translate(9 6)" fill="#fcebe9">
                                              <path d="M 47.5000114440918 93.49987030029297 C 41.28938293457031 93.49987030029297 35.26534652709961 92.28384399414062 29.5951976776123 89.88558959960938 C 24.11773109436035 87.56881713867188 19.19814491271973 84.25183868408203 14.97310447692871 80.02680206298828 C 10.74805164337158 75.80176544189453 7.43107795715332 70.88218688964844 5.114304542541504 65.40472412109375 C 2.716038227081299 59.73458862304688 1.500011444091797 53.71054840087891 1.500011444091797 47.49993515014648 C 1.500011444091797 41.28932189941406 2.716038227081299 35.26528167724609 5.114304542541504 29.59514808654785 C 7.43107795715332 24.1176815032959 10.74805164337158 19.1981086730957 14.97310447692871 14.97306823730469 C 19.19814491271973 10.74802875518799 24.11773109436035 7.431055068969727 29.5951976776123 5.11428165435791 C 35.26534652709961 2.716028451919556 41.28938293457031 1.500001788139343 47.5000114440918 1.500001788139343 C 53.71063995361328 1.500001788139343 59.73467636108398 2.716028451919556 65.40482330322266 5.11428165435791 C 70.88229370117188 7.431055068969727 75.8018798828125 10.74802875518799 80.02691650390625 14.97306823730469 C 84.25196838378906 19.1981086730957 87.56894683837891 24.1176815032959 89.88571929931641 29.59514808654785 C 92.28398132324219 35.26528167724609 93.50001525878906 41.28932189941406 93.50001525878906 47.49993515014648 C 93.50001525878906 53.71054840087891 92.28398132324219 59.73458862304688 89.88571929931641 65.40472412109375 C 87.56894683837891 70.88218688964844 84.25196838378906 75.80176544189453 80.02691650390625 80.02680206298828 C 75.8018798828125 84.25183868408203 70.88229370117188 87.56881713867188 65.40482330322266 89.88558959960938 C 59.73467636108398 92.28384399414062 53.71063995361328 93.49987030029297 47.5000114440918 93.49987030029297 Z" stroke="none"/>
                                              <path d="M 47.5000114440918 3 C 41.49122619628906 3 35.66378021240234 4.1761474609375 30.17951965332031 6.495796203613281 C 24.880859375 8.7369384765625 20.12153625488281 11.94596862792969 16.03376770019531 16.03373718261719 C 11.94598388671875 20.12149047851562 8.736968994140625 24.88081359863281 6.495811462402344 30.17947387695312 C 4.176162719726562 35.66371917724609 3.000007629394531 41.49116516113281 3.000007629394531 47.49993515014648 C 3.000007629394531 53.50870513916016 4.176162719726562 59.33615112304688 6.495811462402344 64.82039642333984 C 8.736968994140625 70.11905670166016 11.94598388671875 74.87837982177734 16.03376770019531 78.96613311767578 C 20.12153625488281 83.05390167236328 24.880859375 86.26293182373047 30.17951965332031 88.50407409667969 C 35.66378021240234 90.82372283935547 41.49122619628906 91.99987030029297 47.5000114440918 91.99987030029297 C 53.50879669189453 91.99987030029297 59.33624267578125 90.82372283935547 64.82050323486328 88.50407409667969 C 70.11916351318359 86.26293182373047 74.87848663330078 83.05390167236328 78.96625518798828 78.96613311767578 C 83.05403900146484 74.87837982177734 86.2630615234375 70.11905670166016 88.50421142578125 64.82039642333984 C 90.82386016845703 59.33615112304688 92.00001525878906 53.50870513916016 92.00001525878906 47.49993515014648 C 92.00001525878906 41.49116516113281 90.82386016845703 35.66371917724609 88.50421142578125 30.17947387695312 C 86.2630615234375 24.88081359863281 83.05403900146484 20.12149047851562 78.96625518798828 16.03373718261719 C 74.87848663330078 11.94596862792969 70.11916351318359 8.7369384765625 64.82050323486328 6.495796203613281 C 59.33624267578125 4.1761474609375 53.50879669189453 3 47.5000114440918 3 M 47.5000114440918 0 C 73.73353576660156 0 95.00001525878906 21.26644134521484 95.00001525878906 47.49993515014648 C 95.00001525878906 73.73342895507812 73.73353576660156 94.99987030029297 47.5000114440918 94.99987030029297 C 21.26648712158203 94.99987030029297 7.62939453125e-06 73.73342895507812 7.62939453125e-06 47.49993515014648 C 7.62939453125e-06 21.26644134521484 21.26648712158203 0 47.5000114440918 0 Z" stroke="none" fill="#e44b36"/>
                                            </g>
                                          </g>
                                        </g>
                                      </g>
                                    </g>
                                  </g>
                                </g>
                              </g>
                            </g>
                          </g>
                        </g>
                      </g>
                    </g>
                  </g>
                </g>
              </g>
            </g>
          </g>
        </g>
      </g>
    </g>
    <g id="chart_1041970" transform="translate(1158.287 3853.315)">
      <g id="Grupo_1209805" data-name="Grupo 1209805" transform="translate(0.841 6.413)">
        <g id="Grupo_1209804" data-name="Grupo 1209804" transform="translate(0 0)">
          <path id="Trazado_1051253" data-name="Trazado 1051253" d="M9.338,79.559H20.016L20,78.853l-.324-14.295h-9.7A14.931,14.931,0,0,0,7.858,75.71,14.5,14.5,0,0,0,9.338,79.559Z" transform="translate(-7.527 -58.807)" fill="#60bec8"/>
          <path id="Trazado_1051254" data-name="Trazado 1051254" d="M11.969,168.218H22.647l-.016-.707-1.964-3.143H10.489A14.5,14.5,0,0,0,11.969,168.218Z" transform="translate(-10.158 -147.466)" fill="#4aaaaf"/>
          <g id="Grupo_1209803" data-name="Grupo 1209803" transform="translate(9.301)">
            <path id="Trazado_1051255" data-name="Trazado 1051255" d="M105.076,13.41a10.9,10.9,0,0,1-3.911.667s-10.389.049-10.389,7.552v6.754c0,5.537,5.667,8.665,10.544,8.665h5.23a2.268,2.268,0,0,0,0-4.536h2.268a2.268,2.268,0,1,0,0-4.535h.578a2.268,2.268,0,1,0,0-4.535h8.028a2.267,2.267,0,0,0,0-4.535H105.257a7.788,7.788,0,0,0,2.33-.97,2.588,2.588,0,1,0-2.511-4.527Z" transform="translate(-90.775 -13.085)" fill="#f9ddb4"/>
            <path id="Trazado_1051256" data-name="Trazado 1051256" d="M90.775,137.363v1.414c0,5.537,5.667,8.665,10.544,8.665h5.23a2.269,2.269,0,0,0,2.155-2.975,2.267,2.267,0,0,1-2.155,1.561h-5.23C96.442,146.028,90.775,142.9,90.775,137.363Z" transform="translate(-90.775 -123.478)" fill="#e0c096"/>
            <path id="Trazado_1051257" data-name="Trazado 1051257" d="M221.357,162.616a.707.707,0,0,0,.707.707h2.745a2.269,2.269,0,0,0,2.155-2.975,2.267,2.267,0,0,1-2.155,1.561h-2.745a.707.707,0,0,0-.707.707Z" transform="translate(-206.767 -143.895)" fill="#e0c096"/>
            <path id="Trazado_1051258" data-name="Trazado 1051258" d="M222.219,122.027a.707.707,0,0,0,.707.707h3.227a2.269,2.269,0,0,0,2.155-2.975,2.266,2.266,0,0,1-2.155,1.561h-3.227a.707.707,0,0,0-.707.707Z" transform="translate(-207.533 -107.841)" fill="#e0c096"/>
            <path id="Trazado_1051259" data-name="Trazado 1051259" d="M223.245,81.438a.707.707,0,0,0,.707.707h11.14a2.269,2.269,0,0,0,2.155-2.975,2.267,2.267,0,0,1-2.155,1.561h-11.14a.707.707,0,0,0-.707.707Z" transform="translate(-208.444 -71.786)" fill="#e0c096"/>
          </g>
          <path id="Trazado_1051260" data-name="Trazado 1051260" d="M191.35,25.022c.535,1.946-3.049,3.028-6.752,3.141a.676.676,0,0,0-.659.663h0a.674.674,0,0,0,.674.685h3.4a7.788,7.788,0,0,0,2.33-.97A2.587,2.587,0,0,0,191.35,25.022Z" transform="translate(-164.229 -23.688)" fill="#e0c096"/>
        </g>
        <circle id="Elipse_12612" data-name="Elipse 12612" cx="1.508" cy="1.508" r="1.508" transform="translate(3.578 8.227)" fill="#efefef"/>
        <rect id="Rectángulo_419450" data-name="Rectángulo 419450" width="10.425" height="11.165" transform="translate(0.679 42.338)" fill="#fc6947"/>
        <rect id="Rectángulo_419451" data-name="Rectángulo 419451" width="10.425" height="17.849" transform="translate(15.227 35.654)" fill="#60bec8"/>
        <rect id="Rectángulo_419452" data-name="Rectángulo 419452" width="10.425" height="30.767" transform="translate(29.774 22.736)" fill="#efcf4a"/>
        <rect id="Rectángulo_419453" data-name="Rectángulo 419453" width="10.425" height="49.609" transform="translate(44.322 3.894)" fill="#40d39b"/>
      </g>
      <g id="Grupo_1209806" data-name="Grupo 1209806" transform="translate(0 5.574)">
        <path id="Trazado_1051261" data-name="Trazado 1051261" d="M2.652,73.734h6.6a.838.838,0,1,0,0-1.676h-6.1a13.594,13.594,0,0,1-1.166-3.2,14.188,14.188,0,0,1,1.76-10.13H7.964a.838.838,0,1,0,0-1.676H3.294a.838.838,0,0,0-.68.348A15.662,15.662,0,0,0,.355,69.231,15.4,15.4,0,0,0,1.919,73.3.838.838,0,0,0,2.652,73.734Z" transform="translate(0 -51.305)"/>
        <path id="Trazado_1051262" data-name="Trazado 1051262" d="M143.556,8.743a16.816,16.816,0,0,1,3.564-.5h0a11.2,11.2,0,0,0,4.315-.772,1.751,1.751,0,0,1,2.451,2.239.838.838,0,1,0,1.534.676,3.427,3.427,0,0,0-4.8-4.38,9.645,9.645,0,0,1-3.509.561,18.206,18.206,0,0,0-3.972.552.838.838,0,0,0,.411,1.625Z" transform="translate(-126.59 -5.574)"/>
        <path id="Trazado_1051263" data-name="Trazado 1051263" d="M105.261,44.205a3.092,3.092,0,0,0-.733-2,3.1,3.1,0,0,0,.962-3.963h5.272a3.105,3.105,0,0,0,0-6.211H94.513a.838.838,0,0,0,0,1.676H110.76a1.429,1.429,0,0,1,0,2.859H98.915a.838.838,0,1,0,0,1.676h3.819a1.43,1.43,0,0,1,0,2.859h-3.08a.838.838,0,0,0,0,1.676h2.5a1.43,1.43,0,1,1,0,2.859H98.7a.838.838,0,0,0,0,1.676h1.184a1.43,1.43,0,1,1,0,2.859h-5.23a11.614,11.614,0,0,1-6.607-2.1,7,7,0,0,1-3.1-5.731V35.589a5.631,5.631,0,0,1,3.307-5.211.838.838,0,1,0-.788-1.479,7.288,7.288,0,0,0-4.195,6.69v6.754a8.664,8.664,0,0,0,3.788,7.087,13.163,13.163,0,0,0,7.593,2.416h5.23a3.1,3.1,0,0,0,2.738-4.571A3.11,3.11,0,0,0,105.261,44.205Z" transform="translate(-73.973 -26.205)"/>
        <path id="Trazado_1051264" data-name="Trazado 1051264" d="M34.4,79.222a2.346,2.346,0,1,0,2.346,2.346A2.349,2.349,0,0,0,34.4,79.222Zm0,3.017a.67.67,0,1,1,.67-.67A.671.671,0,0,1,34.4,82.239Z" transform="translate(-28.469 -70.994)"/>
        <path id="Trazado_1051265" data-name="Trazado 1051265" d="M17.37,384.525H6.945a.838.838,0,0,0-.838.838v11.165a.838.838,0,0,0,.838.838H17.37a.838.838,0,0,0,.838-.838V385.363A.838.838,0,0,0,17.37,384.525Zm-.838,11.165H7.783V386.2h8.749v9.489Z" transform="translate(-5.425 -342.186)"/>
        <path id="Trazado_1051266" data-name="Trazado 1051266" d="M147.574,324.7H137.149a.838.838,0,0,0-.838.838v17.849a.838.838,0,0,0,.838.838h10.425a.838.838,0,0,0,.838-.838V325.536A.838.838,0,0,0,147.574,324.7Zm-.838,17.849h-8.749V326.374h8.749Z" transform="translate(-121.081 -289.043)"/>
        <path id="Trazado_1051267" data-name="Trazado 1051267" d="M277.779,209.081H267.354a.838.838,0,0,0-.838.838v30.767a.838.838,0,0,0,.838.838h10.425a.838.838,0,0,0,.838-.838v-12.17a.838.838,0,1,0-1.676,0v11.331h-8.749V210.757h8.749v14.966a.838.838,0,1,0,1.676,0v-15.8A.838.838,0,0,0,277.779,209.081Z" transform="translate(-236.739 -186.344)"/>
        <path id="Trazado_1051268" data-name="Trazado 1051268" d="M407.984,40.433H397.559a.838.838,0,0,0-.838.838V90.88a.838.838,0,0,0,.838.838h10.425a.838.838,0,0,0,.838-.838V41.271A.838.838,0,0,0,407.984,40.433Zm-.838,49.609H398.4V42.109h8.749Z" transform="translate(-352.396 -36.538)"/>
      </g>
    </g>
  </g>
</svg>
