<svg xmlns="http://www.w3.org/2000/svg" xmlns:xlink="http://www.w3.org/1999/xlink" width="113" height="113" viewBox="0 0 113 113">
  <defs>
    <filter id="Trazado_982547" x="0" y="0" width="113" height="113" filterUnits="userSpaceOnUse">
      <feOffset dy="3" input="SourceAlpha"/>
      <feGaussianBlur stdDeviation="3" result="blur"/>
      <feFlood flood-opacity="0.161"/>
      <feComposite operator="in" in2="blur"/>
      <feComposite in="SourceGraphic"/>
    </filter>
  </defs>
  <g id="Grupo_1209810" data-name="Grupo 1209810" transform="translate(-1945 -3824.98)">
    <g id="Grupo_1209741" data-name="Grupo 1209741" transform="translate(1591 728.979)">
      <g id="Grupo_1209277" data-name="Grupo 1209277" transform="translate(363 3102)">
        <g id="Grupo_1208028" data-name="Grupo 1208028" transform="translate(0)">
          <g id="Grupo_1177675" data-name="Grupo 1177675" transform="translate(0 0)">
            <g id="Grupo_1176928" data-name="Grupo 1176928" transform="translate(0)">
              <g id="Grupo_1172322" data-name="Grupo 1172322">
                <g id="Grupo_1164700" data-name="Grupo 1164700">
                  <g id="Grupo_1160931" data-name="Grupo 1160931">
                    <g id="Grupo_1160749" data-name="Grupo 1160749">
                      <g id="Grupo_1158891" data-name="Grupo 1158891">
                        <g id="Grupo_1157406" data-name="Grupo 1157406">
                          <g id="Grupo_1155793" data-name="Grupo 1155793">
                            <g id="Grupo_1154704" data-name="Grupo 1154704">
                              <g id="Grupo_1150790" data-name="Grupo 1150790">
                                <g id="Grupo_1154214" data-name="Grupo 1154214">
                                  <g id="Grupo_1152583" data-name="Grupo 1152583">
                                    <g id="Grupo_1146973" data-name="Grupo 1146973">
                                      <g id="Grupo_1146954" data-name="Grupo 1146954">
                                        <g transform="matrix(1, 0, 0, 1, -9, -6)" filter="url(#Trazado_982547)">
                                          <g id="Trazado_982547-2" data-name="Trazado 982547" transform="translate(9 6)" fill="#fcebe9">
                                            <path d="M 47.5000114440918 93.49987030029297 C 41.28938293457031 93.49987030029297 35.26534652709961 92.28384399414062 29.5951976776123 89.88558959960938 C 24.11773109436035 87.56881713867188 19.19814491271973 84.25183868408203 14.97310447692871 80.02680206298828 C 10.74805164337158 75.80176544189453 7.43107795715332 70.88218688964844 5.114304542541504 65.40472412109375 C 2.716038227081299 59.73458862304688 1.500011444091797 53.71054840087891 1.500011444091797 47.49993515014648 C 1.500011444091797 41.28932189941406 2.716038227081299 35.26528167724609 5.114304542541504 29.59514808654785 C 7.43107795715332 24.1176815032959 10.74805164337158 19.1981086730957 14.97310447692871 14.97306823730469 C 19.19814491271973 10.74802875518799 24.11773109436035 7.431055068969727 29.5951976776123 5.11428165435791 C 35.26534652709961 2.716028451919556 41.28938293457031 1.500001788139343 47.5000114440918 1.500001788139343 C 53.71063995361328 1.500001788139343 59.73467636108398 2.716028451919556 65.40482330322266 5.11428165435791 C 70.88229370117188 7.431055068969727 75.8018798828125 10.74802875518799 80.02691650390625 14.97306823730469 C 84.25196838378906 19.1981086730957 87.56894683837891 24.1176815032959 89.88571929931641 29.59514808654785 C 92.28398132324219 35.26528167724609 93.50001525878906 41.28932189941406 93.50001525878906 47.49993515014648 C 93.50001525878906 53.71054840087891 92.28398132324219 59.73458862304688 89.88571929931641 65.40472412109375 C 87.56894683837891 70.88218688964844 84.25196838378906 75.80176544189453 80.02691650390625 80.02680206298828 C 75.8018798828125 84.25183868408203 70.88229370117188 87.56881713867188 65.40482330322266 89.88558959960938 C 59.73467636108398 92.28384399414062 53.71063995361328 93.49987030029297 47.5000114440918 93.49987030029297 Z" stroke="none"/>
                                            <path d="M 47.5000114440918 3 C 41.49122619628906 3 35.66378021240234 4.1761474609375 30.17951965332031 6.495796203613281 C 24.880859375 8.7369384765625 20.12153625488281 11.94596862792969 16.03376770019531 16.03373718261719 C 11.94598388671875 20.12149047851562 8.736968994140625 24.88081359863281 6.495811462402344 30.17947387695312 C 4.176162719726562 35.66371917724609 3.000007629394531 41.49116516113281 3.000007629394531 47.49993515014648 C 3.000007629394531 53.50870513916016 4.176162719726562 59.33615112304688 6.495811462402344 64.82039642333984 C 8.736968994140625 70.11905670166016 11.94598388671875 74.87837982177734 16.03376770019531 78.96613311767578 C 20.12153625488281 83.05390167236328 24.880859375 86.26293182373047 30.17951965332031 88.50407409667969 C 35.66378021240234 90.82372283935547 41.49122619628906 91.99987030029297 47.5000114440918 91.99987030029297 C 53.50879669189453 91.99987030029297 59.33624267578125 90.82372283935547 64.82050323486328 88.50407409667969 C 70.11916351318359 86.26293182373047 74.87848663330078 83.05390167236328 78.96625518798828 78.96613311767578 C 83.05403900146484 74.87837982177734 86.2630615234375 70.11905670166016 88.50421142578125 64.82039642333984 C 90.82386016845703 59.33615112304688 92.00001525878906 53.50870513916016 92.00001525878906 47.49993515014648 C 92.00001525878906 41.49116516113281 90.82386016845703 35.66371917724609 88.50421142578125 30.17947387695312 C 86.2630615234375 24.88081359863281 83.05403900146484 20.12149047851562 78.96625518798828 16.03373718261719 C 74.87848663330078 11.94596862792969 70.11916351318359 8.7369384765625 64.82050323486328 6.495796203613281 C 59.33624267578125 4.1761474609375 53.50879669189453 3 47.5000114440918 3 M 47.5000114440918 0 C 73.73353576660156 0 95.00001525878906 21.26644134521484 95.00001525878906 47.49993515014648 C 95.00001525878906 73.73342895507812 73.73353576660156 94.99987030029297 47.5000114440918 94.99987030029297 C 21.26648712158203 94.99987030029297 7.62939453125e-06 73.73342895507812 7.62939453125e-06 47.49993515014648 C 7.62939453125e-06 21.26644134521484 21.26648712158203 0 47.5000114440918 0 Z" stroke="none" fill="#e44b36"/>
                                          </g>
                                        </g>
                                      </g>
                                    </g>
                                  </g>
                                </g>
                              </g>
                            </g>
                          </g>
                        </g>
                      </g>
                    </g>
                  </g>
                </g>
              </g>
            </g>
          </g>
        </g>
      </g>
    </g>
    <g id="performance_10520469" transform="translate(1970.664 3844.469)">
      <g id="Grupo_1209809" data-name="Grupo 1209809" transform="translate(0.955 4.563)">
        <path id="Trazado_1051269" data-name="Trazado 1051269" d="M66.887,160.44h5.082a.406.406,0,0,1,.407.4l0,24.322a.407.407,0,0,1-.407.407H66.884a.406.406,0,0,1-.4-.407l0-24.322A.405.405,0,0,1,66.887,160.44Z" transform="translate(-59.434 -142.506)" fill="#ff4155" fill-rule="evenodd"/>
        <path id="Trazado_1051270" data-name="Trazado 1051270" d="M176.931,108.8h5.082a.406.406,0,0,1,.407.4l0,26.784a.406.406,0,0,1-.407.4h-5.082a.408.408,0,0,1-.407-.4l0-26.784A.408.408,0,0,1,176.931,108.8Z" transform="translate(-156.216 -97.088)" fill="#ffd23b" fill-rule="evenodd"/>
        <path id="Trazado_1051271" data-name="Trazado 1051271" d="M287,138.17h5.082a.408.408,0,0,1,.407.4l0,23.246a.408.408,0,0,1-.407.4H287a.406.406,0,0,1-.407-.4l0-23.246A.406.406,0,0,1,287,138.17Z" transform="translate(-253.024 -122.919)" fill="#ff4155" fill-rule="evenodd"/>
        <g id="Grupo_1209808" data-name="Grupo 1209808" transform="translate(7.087 0)">
          <path id="Trazado_1051272" data-name="Trazado 1051272" d="M69.727,69.059a2.91,2.91,0,1,0-2.907-2.911A2.916,2.916,0,0,0,69.727,69.059Z" transform="translate(-66.82 -57.017)" fill="#70da40" fill-rule="evenodd"/>
          <path id="Trazado_1051273" data-name="Trazado 1051273" d="M179.8,17.411a2.91,2.91,0,1,0-2.907-2.91A2.917,2.917,0,0,0,179.8,17.411Z" transform="translate(-163.628 -11.59)" fill="#70da40" fill-rule="evenodd"/>
          <path id="Trazado_1051274" data-name="Trazado 1051274" d="M289.822,46.781a2.91,2.91,0,1,0-2.912-2.91A2.914,2.914,0,0,0,289.822,46.781Z" transform="translate(-260.392 -37.421)" fill="#70da40" fill-rule="evenodd"/>
        </g>
        <path id="Trazado_1051275" data-name="Trazado 1051275" d="M402.143,108.821h-5.082a.406.406,0,0,0-.407.4l0,32.219a.406.406,0,0,0,.407.4h5.082a.405.405,0,0,0,.4-.4l0-32.219A.408.408,0,0,0,402.143,108.821Z" transform="translate(-349.824 -97.105)" fill="#ffd23b" fill-rule="evenodd"/>
        <path id="Trazado_1051276" data-name="Trazado 1051276" d="M399.892,17.431a2.91,2.91,0,1,0-2.912-2.91A2.914,2.914,0,0,0,399.892,17.431Z" transform="translate(-350.114 -11.608)" fill="#70da40" fill-rule="evenodd"/>
        <path id="Trazado_1051277" data-name="Trazado 1051277" d="M37.884,252.38a29.88,29.88,0,0,1,29.877,29.884H57.03a19.15,19.15,0,1,0-38.3,0H8A29.881,29.881,0,0,1,37.884,252.38Z" transform="translate(-8 -223.368)" fill="#70da40" fill-rule="evenodd"/>
        <path id="Trazado_1051278" data-name="Trazado 1051278" d="M256.021,252.38a29.79,29.79,0,0,1,21.128,8.754l-7.588,7.589a19.1,19.1,0,0,0-13.541-5.613Z" transform="translate(-226.137 -223.368)" fill="#ffd23b" fill-rule="evenodd"/>
        <path id="Trazado_1051279" data-name="Trazado 1051279" d="M101.788,263.109a19.086,19.086,0,0,0-13.543,5.61l-7.586-7.591a29.786,29.786,0,0,1,21.129-8.748Z" transform="translate(-71.906 -223.368)" fill="#ff4155" fill-rule="evenodd"/>
        <path id="Trazado_1051280" data-name="Trazado 1051280" d="M254.412,275.84,250.2,287.194l-4.219,11.352-2.539-1.3-2.537-1.3,6.758-10.051Z" transform="translate(-212.839 -244.002)" fill="#0593fc" fill-rule="evenodd"/>
        <path id="Trazado_1051281" data-name="Trazado 1051281" d="M225.015,438.4a4.245,4.245,0,1,0-4.245-4.246A4.253,4.253,0,0,0,225.015,438.4Z" transform="translate(-195.134 -379.509)" fill="#407093" fill-rule="evenodd"/>
        <path id="Trazado_1051282" data-name="Trazado 1051282" d="M66.887,160.44h1.628a.406.406,0,0,0-.407.4l0,19.508q-.849.853-1.625,1.776l0-21.285a.407.407,0,0,1,.4-.4Z" transform="translate(-59.434 -142.506)" fill="#e63b4d" fill-rule="evenodd"/>
        <path id="Trazado_1051283" data-name="Trazado 1051283" d="M176.94,108.8h1.624a.405.405,0,0,0-.4.4l0,17.965q-.824.224-1.628.5l0-18.462A.408.408,0,0,1,176.94,108.8Z" transform="translate(-156.225 -97.088)" fill="#e6bd35" fill-rule="evenodd"/>
        <path id="Trazado_1051284" data-name="Trazado 1051284" d="M287.008,138.17h1.624a.405.405,0,0,0-.4.4V152.4c-.54-.1-1.078-.176-1.628-.245V138.574A.406.406,0,0,1,287.008,138.17Z" transform="translate(-253.033 -122.919)" fill="#e63b4d" fill-rule="evenodd"/>
        <path id="Trazado_1051285" data-name="Trazado 1051285" d="M397.06,108.83h1.624a.405.405,0,0,0-.4.4l0,23.366c-.529-.421-1.072-.821-1.628-1.2l0-22.161A.408.408,0,0,1,397.06,108.83Z" transform="translate(-349.824 -97.114)" fill="#e6bd35" fill-rule="evenodd"/>
      </g>
      <path id="Trazado_1051286" data-name="Trazado 1051286" d="M10.944,17.573A3.88,3.88,0,0,0,14.819,13.7a3.924,3.924,0,0,0-.067-.719l6.469-3.036a3.87,3.87,0,0,0,6.36-.566l6.01,1.6c0,.012,0,.024,0,.036a3.875,3.875,0,0,0,7.75,0c0-.012,0-.024,0-.035l6.012-1.6a3.874,3.874,0,1,0-.5-1.9c0,.012,0,.024,0,.035l-6.012,1.6a3.871,3.871,0,0,0-6.75,0l-6.01-1.6c0-.012,0-.024,0-.036a3.875,3.875,0,0,0-7.75,0,3.924,3.924,0,0,0,.067.719L13.931,11.23a3.874,3.874,0,1,0-2.987,6.342ZM50.726,5.53a1.945,1.945,0,1,1-1.945,1.945A1.947,1.947,0,0,1,50.726,5.53ZM37.464,9.069a1.945,1.945,0,1,1-1.945,1.945,1.947,1.947,0,0,1,1.945-1.945ZM24.206,5.53a1.945,1.945,0,1,1-1.945,1.945A1.947,1.947,0,0,1,24.206,5.53ZM10.944,11.753A1.945,1.945,0,1,1,9,13.7,1.947,1.947,0,0,1,10.944,11.753ZM54.638,43.835V16.682a1.371,1.371,0,0,0-1.371-1.368H48.185a1.37,1.37,0,0,0-1.371,1.368V37.059a30.419,30.419,0,0,0-5.437-2.607V20.221a1.373,1.373,0,0,0-1.371-1.371H34.923a1.373,1.373,0,0,0-1.371,1.371V32.73q-1.348-.117-2.717-.119c-.913,0-1.821.042-2.721.119V16.682a1.369,1.369,0,0,0-1.368-1.368H21.665a1.37,1.37,0,0,0-1.371,1.368V34.451a30.5,30.5,0,0,0-5.437,2.607V22.905a1.373,1.373,0,0,0-1.371-1.371H8.4a1.373,1.373,0,0,0-1.371,1.371V43.835A30.611,30.611,0,0,0-.01,63.456a.965.965,0,0,0,.965.965h10.73a.965.965,0,0,0,.965-.965A18.193,18.193,0,0,1,35.069,45.769l-.1.148L29.405,54.2a5.209,5.209,0,1,0,6.334,3.246l3.475-9.357.241-.648a18.269,18.269,0,0,1,9.567,16.012.965.965,0,0,0,.965.965H60.716a.965.965,0,0,0,.965-.965,30.611,30.611,0,0,0-7.042-19.621Zm-5.9-26.59h3.965V41.708c-.02-.022-.041-.043-.063-.064a31.153,31.153,0,0,0-3.9-3.31ZM35.482,20.78h3.965V33.825a30.491,30.491,0,0,0-3.965-.867ZM17.318,48.573l-6.224-6.224a28.828,28.828,0,0,1,16.123-7.583c.031,0,.061-.006.092-.011q1.265-.155,2.563-.2v8.806a20.037,20.037,0,0,0-12.553,5.21Zm4.9-31.328h3.962V32.957a30.637,30.637,0,0,0-3.962.867ZM8.962,23.464h3.965v14.87a31.255,31.255,0,0,0-3.9,3.31l-.063.064Zm1.781,39.026H1.936A28.8,28.8,0,0,1,9.729,43.713l6.225,6.225a20.031,20.031,0,0,0-5.211,12.552ZM31.8,43.365V34.557q1.29.043,2.549.2a1.02,1.02,0,0,0,.106.012A28.655,28.655,0,0,1,41.3,36.5l-5.088,7.57a20.019,20.019,0,0,0-4.41-.7Zm5.6,2.4c.013-.018.025-.036.037-.054l1.354-2.018L34.425,55.44A5.2,5.2,0,0,0,31.8,54.092Zm-6.56,16.723a3.281,3.281,0,1,1,3.281-3.281A3.284,3.284,0,0,1,30.835,62.491ZM43.213,37.326a29.02,29.02,0,0,1,7.365,5.023l-6.219,6.219a20.131,20.131,0,0,0-4.227-2.951Zm7.715,25.164a20.01,20.01,0,0,0-3.213-9.979,20.293,20.293,0,0,0-1.992-2.578l6.221-6.221a28.821,28.821,0,0,1,7.793,18.778Z"/>
    </g>
  </g>
</svg>
