<svg xmlns="http://www.w3.org/2000/svg" xmlns:xlink="http://www.w3.org/1999/xlink" width="113" height="113" viewBox="0 0 113 113">
  <defs>
    <filter id="Trazado_982547" x="0" y="0" width="113" height="113" filterUnits="userSpaceOnUse">
      <feOffset dy="3" input="SourceAlpha"/>
      <feGaussianBlur stdDeviation="3" result="blur"/>
      <feFlood flood-opacity="0.161"/>
      <feComposite operator="in" in2="blur"/>
      <feComposite in="SourceGraphic"/>
    </filter>
  </defs>
  <g id="Grupo_1209813" data-name="Grupo 1209813" transform="translate(-2284 -3824.98)">
    <g id="Grupo_1209742" data-name="Grupo 1209742" transform="translate(1930 728.979)">
      <g id="Grupo_1209277" data-name="Grupo 1209277" transform="translate(363 3102)">
        <g id="Grupo_1208028" data-name="Grupo 1208028" transform="translate(0)">
          <g id="Grupo_1177675" data-name="Grupo 1177675" transform="translate(0 0)">
            <g id="Grupo_1176928" data-name="Grupo 1176928" transform="translate(0)">
              <g id="Grupo_1172322" data-name="Grupo 1172322">
                <g id="Grupo_1164700" data-name="Grupo 1164700">
                  <g id="Grupo_1160931" data-name="Grupo 1160931">
                    <g id="Grupo_1160749" data-name="Grupo 1160749">
                      <g id="Grupo_1158891" data-name="Grupo 1158891">
                        <g id="Grupo_1157406" data-name="Grupo 1157406">
                          <g id="Grupo_1155793" data-name="Grupo 1155793">
                            <g id="Grupo_1154704" data-name="Grupo 1154704">
                              <g id="Grupo_1150790" data-name="Grupo 1150790">
                                <g id="Grupo_1154214" data-name="Grupo 1154214">
                                  <g id="Grupo_1152583" data-name="Grupo 1152583">
                                    <g id="Grupo_1146973" data-name="Grupo 1146973">
                                      <g id="Grupo_1146954" data-name="Grupo 1146954">
                                        <g transform="matrix(1, 0, 0, 1, -9, -6)" filter="url(#Trazado_982547)">
                                          <g id="Trazado_982547-2" data-name="Trazado 982547" transform="translate(9 6)" fill="#fcebe9">
                                            <path d="M 47.5000114440918 93.49987030029297 C 41.28938293457031 93.49987030029297 35.26534652709961 92.28384399414062 29.5951976776123 89.88558959960938 C 24.11773109436035 87.56881713867188 19.19814491271973 84.25183868408203 14.97310447692871 80.02680206298828 C 10.74805164337158 75.80176544189453 7.43107795715332 70.88218688964844 5.114304542541504 65.40472412109375 C 2.716038227081299 59.73458862304688 1.500011444091797 53.71054840087891 1.500011444091797 47.49993515014648 C 1.500011444091797 41.28932189941406 2.716038227081299 35.26528167724609 5.114304542541504 29.59514808654785 C 7.43107795715332 24.1176815032959 10.74805164337158 19.1981086730957 14.97310447692871 14.97306823730469 C 19.19814491271973 10.74802875518799 24.11773109436035 7.431055068969727 29.5951976776123 5.11428165435791 C 35.26534652709961 2.716028451919556 41.28938293457031 1.500001788139343 47.5000114440918 1.500001788139343 C 53.71063995361328 1.500001788139343 59.73467636108398 2.716028451919556 65.40482330322266 5.11428165435791 C 70.88229370117188 7.431055068969727 75.8018798828125 10.74802875518799 80.02691650390625 14.97306823730469 C 84.25196838378906 19.1981086730957 87.56894683837891 24.1176815032959 89.88571929931641 29.59514808654785 C 92.28398132324219 35.26528167724609 93.50001525878906 41.28932189941406 93.50001525878906 47.49993515014648 C 93.50001525878906 53.71054840087891 92.28398132324219 59.73458862304688 89.88571929931641 65.40472412109375 C 87.56894683837891 70.88218688964844 84.25196838378906 75.80176544189453 80.02691650390625 80.02680206298828 C 75.8018798828125 84.25183868408203 70.88229370117188 87.56881713867188 65.40482330322266 89.88558959960938 C 59.73467636108398 92.28384399414062 53.71063995361328 93.49987030029297 47.5000114440918 93.49987030029297 Z" stroke="none"/>
                                            <path d="M 47.5000114440918 3 C 41.49122619628906 3 35.66378021240234 4.1761474609375 30.17951965332031 6.495796203613281 C 24.880859375 8.7369384765625 20.12153625488281 11.94596862792969 16.03376770019531 16.03373718261719 C 11.94598388671875 20.12149047851562 8.736968994140625 24.88081359863281 6.495811462402344 30.17947387695312 C 4.176162719726562 35.66371917724609 3.000007629394531 41.49116516113281 3.000007629394531 47.49993515014648 C 3.000007629394531 53.50870513916016 4.176162719726562 59.33615112304688 6.495811462402344 64.82039642333984 C 8.736968994140625 70.11905670166016 11.94598388671875 74.87837982177734 16.03376770019531 78.96613311767578 C 20.12153625488281 83.05390167236328 24.880859375 86.26293182373047 30.17951965332031 88.50407409667969 C 35.66378021240234 90.82372283935547 41.49122619628906 91.99987030029297 47.5000114440918 91.99987030029297 C 53.50879669189453 91.99987030029297 59.33624267578125 90.82372283935547 64.82050323486328 88.50407409667969 C 70.11916351318359 86.26293182373047 74.87848663330078 83.05390167236328 78.96625518798828 78.96613311767578 C 83.05403900146484 74.87837982177734 86.2630615234375 70.11905670166016 88.50421142578125 64.82039642333984 C 90.82386016845703 59.33615112304688 92.00001525878906 53.50870513916016 92.00001525878906 47.49993515014648 C 92.00001525878906 41.49116516113281 90.82386016845703 35.66371917724609 88.50421142578125 30.17947387695312 C 86.2630615234375 24.88081359863281 83.05403900146484 20.12149047851562 78.96625518798828 16.03373718261719 C 74.87848663330078 11.94596862792969 70.11916351318359 8.7369384765625 64.82050323486328 6.495796203613281 C 59.33624267578125 4.1761474609375 53.50879669189453 3 47.5000114440918 3 M 47.5000114440918 0 C 73.73353576660156 0 95.00001525878906 21.26644134521484 95.00001525878906 47.49993515014648 C 95.00001525878906 73.73342895507812 73.73353576660156 94.99987030029297 47.5000114440918 94.99987030029297 C 21.26648712158203 94.99987030029297 7.62939453125e-06 73.73342895507812 7.62939453125e-06 47.49993515014648 C 7.62939453125e-06 21.26644134521484 21.26648712158203 0 47.5000114440918 0 Z" stroke="none" fill="#e44b36"/>
                                          </g>
                                        </g>
                                      </g>
                                    </g>
                                  </g>
                                </g>
                              </g>
                            </g>
                          </g>
                        </g>
                      </g>
                    </g>
                  </g>
                </g>
              </g>
            </g>
          </g>
        </g>
      </g>
    </g>
    <g id="data-collection_12458880" transform="translate(2293.371 3835.126)">
      <path id="Trazado_1051287" data-name="Trazado 1051287" d="M48.348,40.662v6.109H66.924A1.681,1.681,0,0,0,68.6,45.094V40.662H61.71a2.082,2.082,0,0,1-2.079-2.079V21.811a.716.716,0,0,1,.217-.515c.545-.541,4.787-4.825,4.954-4.933a.711.711,0,0,1,.406-.119H76.934a2.082,2.082,0,0,1,2.079,2.079V38.583a2.082,2.082,0,0,1-2.079,2.079h-6.9v4.432a3.119,3.119,0,0,1-3.115,3.114H48.348v4.653h9.694a.719.719,0,0,1,.719.719v2.846h5.784a1.838,1.838,0,0,1,1.678,2.739l-7.384,17.66A3.687,3.687,0,0,1,55.7,79.013H30.714a1.766,1.766,0,0,1-1.877-1.8l.011-25.09a3.071,3.071,0,0,1,3.065-3.068h6.341a.716.716,0,0,1,.453.161l5,3.641h3.2V48.209H28.334a3.119,3.119,0,0,1-3.114-3.114V40.662h-6.9a2.082,2.082,0,0,1-2.079-2.079V21.811a.716.716,0,0,1,.217-.515c.545-.541,4.787-4.825,4.954-4.933a.711.711,0,0,1,.406-.119H33.548a2.082,2.082,0,0,1,2.079,2.079V38.583a2.082,2.082,0,0,1-2.079,2.079H26.657v4.432a1.681,1.681,0,0,0,1.677,1.677H46.911V40.662H40.017a2.082,2.082,0,0,1-2.079-2.079V21.811a.716.716,0,0,1,.217-.515c.545-.541,4.787-4.825,4.954-4.933a.711.711,0,0,1,.406-.119H55.241a2.082,2.082,0,0,1,2.079,2.079V38.583a2.082,2.082,0,0,1-2.079,2.079Z" transform="translate(0 0)" fill-rule="evenodd"/>
      <g id="Grupo_1209812" data-name="Grupo 1209812" transform="translate(17.682 17.682)">
        <path id="Trazado_1051288" data-name="Trazado 1051288" d="M123.82,353.9h24.987a2.261,2.261,0,0,0,1.812-1.3L158,334.936c.171-.409.142-.751-.353-.751H132.663a2.261,2.261,0,0,0-1.812,1.3l-7.384,17.66c-.149.356-.175.751.353.751Zm30.748-18a.718.718,0,0,1,.644,1.038l-1.848,4.41a.718.718,0,0,1-.663.442H140.425a.718.718,0,0,1-.644-1.038l1.848-4.41a.718.718,0,0,1,.663-.442Z" transform="translate(-110.788 -294.004)" fill="#3d7dbd" fill-rule="evenodd"/>
        <g id="Grupo_1209811" data-name="Grupo 1209811" transform="translate(0 0)">
          <path id="Trazado_1051289" data-name="Trazado 1051289" d="M363.515,27.226v2.769a2.082,2.082,0,0,1-2.079,2.079h-2.769V48.127a.644.644,0,0,0,.642.642h15.224a.644.644,0,0,0,.642-.642V27.868a.644.644,0,0,0-.642-.642Zm6.254,13.338,4.1,3.3A2.457,2.457,0,0,1,372,47.924a2.126,2.126,0,0,1-1.725-.794L367.134,43.2a5.47,5.47,0,1,1,2.634-2.634Z" transform="translate(-315.281 -27.226)" fill="#fff" fill-rule="evenodd"/>
          <path id="Trazado_1051290" data-name="Trazado 1051290" d="M197.795,27.226v2.769a2.082,2.082,0,0,1-2.079,2.079h-2.769V48.127a.644.644,0,0,0,.642.642h15.224a.644.644,0,0,0,.642-.642V27.868a.644.644,0,0,0-.642-.642Zm1.839,3.83a.719.719,0,1,1,0-1.438h6.909a.719.719,0,1,1,0,1.438Zm2.659,3.83a.719.719,0,1,1,0-1.438h4.25a.719.719,0,1,1,0,1.438Zm-6.433,0a.719.719,0,0,1,0-1.438h3.388a.719.719,0,1,1,0,1.438Zm0,3.83a.719.719,0,0,1,0-1.438h10.683a.719.719,0,1,1,0,1.438Zm8.56,3.83a.719.719,0,1,1,0-1.438h2.123a.719.719,0,1,1,0,1.438Zm-8.56,0a.719.719,0,0,1,0-1.438h5.515a.719.719,0,1,1,0,1.438Zm0,3.83a.719.719,0,0,1,0-1.438h8.222a.719.719,0,1,1,0,1.438Z" transform="translate(-171.254 -27.226)" fill="#fff" fill-rule="evenodd"/>
          <path id="Trazado_1051291" data-name="Trazado 1051291" d="M32.074,27.226v2.769a2.082,2.082,0,0,1-2.079,2.079H27.226V48.127a.644.644,0,0,0,.642.642H43.092a.644.644,0,0,0,.642-.642V27.868a.644.644,0,0,0-.642-.642Zm4.805,6.689a.718.718,0,0,1,.371-1.387l2.452.657a.718.718,0,0,1,.508.879l-.657,2.452a.718.718,0,0,1-1.387-.371l.209-.779-7.919,4.572a.717.717,0,0,1-.719-1.241l7.921-4.573-.778-.209Zm3.265,3.2a.719.719,0,0,1,1.438,0v10.54a.719.719,0,0,1-1.438,0Zm-3.589,2.077a.719.719,0,0,1,1.438,0v8.463a.719.719,0,0,1-1.438,0Zm-3.589,2.072a.719.719,0,1,1,1.438,0v6.39a.719.719,0,0,1-1.438,0Zm-3.589,2.072a.719.719,0,1,1,1.438,0v4.318a.719.719,0,0,1-1.438,0Z" transform="translate(-27.226 -27.226)" fill="#fff" fill-rule="evenodd"/>
          <path id="Trazado_1051292" data-name="Trazado 1051292" d="M273.857,358.246H263.136l-1.264,3.016h10.721Z" transform="translate(-231.157 -314.915)" fill="#fff" fill-rule="evenodd"/>
        </g>
        <path id="Trazado_1051293" data-name="Trazado 1051293" d="M432.6,139.015l3.1,3.866a1.029,1.029,0,0,0,1.616-.867.754.754,0,0,0-.2-.547l-3.868-3.1-.647.647Z" transform="translate(-379.533 -123.819)" fill="#3d7dbd" fill-rule="evenodd"/>
        <path id="Trazado_1051294" data-name="Trazado 1051294" d="M378.859,80.6a4.032,4.032,0,1,0,4.032,4.032A4.032,4.032,0,0,0,378.859,80.6Zm-.708,2.811a.717.717,0,0,1-.719-1.241,2.847,2.847,0,0,1,4.233,2,.717.717,0,0,1-1.415.23,1.413,1.413,0,0,0-2.1-.989Z" transform="translate(-329.326 -73.612)" fill="#3d7dbd" fill-rule="evenodd"/>
        <path id="Trazado_1051295" data-name="Trazado 1051295" d="M150.447,283.84v-2.127H136.6a.715.715,0,0,1-.421-.137l-5.037-3.664h-6.109a1.643,1.643,0,0,0-1.634,1.631l-.009,21.193,6.149-14.706a3.687,3.687,0,0,1,3.137-2.189h17.766Z" transform="translate(-110.806 -245.096)" fill="#fff" fill-rule="evenodd"/>
        <path id="Trazado_1051296" data-name="Trazado 1051296" d="M200.71,37.384h1.753a.644.644,0,0,0,.642-.642V34.99Z" transform="translate(-178.001 -33.974)" fill="#3d7dbd" fill-rule="evenodd"/>
        <path id="Trazado_1051297" data-name="Trazado 1051297" d="M34.99,37.384h1.753a.644.644,0,0,0,.642-.642V34.99Z" transform="translate(-33.974 -33.974)" fill="#3d7dbd" fill-rule="evenodd"/>
        <path id="Trazado_1051298" data-name="Trazado 1051298" d="M366.431,37.384h1.753a.644.644,0,0,0,.642-.642V34.99Z" transform="translate(-322.029 -33.974)" fill="#3d7dbd" fill-rule="evenodd"/>
      </g>
    </g>
  </g>
</svg>
