<svg xmlns="http://www.w3.org/2000/svg" xmlns:xlink="http://www.w3.org/1999/xlink" width="108" height="108" viewBox="0 0 108 108">
  <defs>
    <filter id="Trazado_904820" x="0" y="0" width="108" height="108" filterUnits="userSpaceOnUse">
      <feOffset dy="3" input="SourceAlpha"/>
      <feGaussianBlur stdDeviation="3" result="blur"/>
      <feFlood flood-opacity="0.161"/>
      <feComposite operator="in" in2="blur"/>
      <feComposite in="SourceGraphic"/>
    </filter>
  </defs>
  <g id="Grupo_1209821" data-name="Grupo 1209821" transform="translate(-200 -333)">
    <g id="Grupo_1174993" data-name="Grupo 1174993" transform="translate(209 339)">
      <g id="Grupo_1173585" data-name="Grupo 1173585" transform="translate(0 0)">
        <g id="Grupo_1173428" data-name="Grupo 1173428">
          <g id="Grupo_1171958" data-name="Grupo 1171958">
            <g id="Grupo_1167341" data-name="Grupo 1167341">
              <g id="Grupo_1166792" data-name="Grupo 1166792">
                <g transform="matrix(1, 0, 0, 1, -9, -6)" filter="url(#Trazado_904820)">
                  <g id="Trazado_904820-2" data-name="Trazado 904820" transform="translate(9 6)" fill="#fef7ea">
                    <path d="M 44.99999618530273 88.50002288818359 C 39.12687301635742 88.50002288818359 33.43022155761719 87.35009765625 28.06829643249512 85.08218383789062 C 22.88852119445801 82.89133453369141 18.23629570007324 79.75460815429688 14.24084663391113 75.75916290283203 C 10.24540901184082 71.76371002197266 7.108683586120605 67.11148834228516 4.917821407318115 61.93171310424805 C 2.649921178817749 56.56978607177734 1.499996185302734 50.87313461303711 1.499996185302734 45.0000114440918 C 1.499996185302734 39.12688827514648 2.649921178817749 33.43023681640625 4.917821407318115 28.06829833984375 C 7.108683586120605 22.88852310180664 10.24540901184082 18.2363109588623 14.24084663391113 14.2408618927002 C 18.23629570007324 10.24541187286377 22.88852119445801 7.108686447143555 28.06829643249512 4.917823791503906 C 33.43022155761719 2.649924039840698 39.12687301635742 1.499998927116394 44.99999618530273 1.499998927116394 C 50.87311935424805 1.499998927116394 56.56977081298828 2.649924039840698 61.93169784545898 4.917823791503906 C 67.11147308349609 7.108686447143555 71.76369476318359 10.24541187286377 75.75914764404297 14.2408618927002 C 79.75458526611328 18.2363109588623 82.89131164550781 22.88852310180664 85.08216857910156 28.06829833984375 C 87.35007476806641 33.43023681640625 88.5 39.12688827514648 88.5 45.0000114440918 C 88.5 50.87313461303711 87.35007476806641 56.56978607177734 85.08216857910156 61.93171310424805 C 82.89131164550781 67.11148834228516 79.75458526611328 71.76371002197266 75.75914764404297 75.75916290283203 C 71.76369476318359 79.75460815429688 67.11147308349609 82.89133453369141 61.93169784545898 85.08218383789062 C 56.56977081298828 87.35009765625 50.87311935424805 88.50002288818359 44.99999618530273 88.50002288818359 Z" stroke="none"/>
                    <path d="M 44.99999618530273 3 C 39.32870864868164 3 33.82865142822266 4.110054016113281 28.65262603759766 6.299339294433594 C 23.65165710449219 8.414566040039062 19.15968322753906 11.44333648681641 15.301513671875 15.30152893066406 C 11.44333648681641 19.15969848632812 8.414566040039062 23.65165710449219 6.299339294433594 28.65264129638672 C 4.110054016113281 33.82866668701172 2.999992370605469 39.3287239074707 2.999992370605469 45.0000114440918 C 2.999992370605469 50.67129898071289 4.110054016113281 56.17135620117188 6.299339294433594 61.34738159179688 C 8.414566040039062 66.34836578369141 11.44333648681641 70.84032440185547 15.301513671875 74.69849395751953 C 19.15968322753906 78.55668640136719 23.65165710449219 81.58545684814453 28.65262603759766 83.70068359375 C 33.82865142822266 85.88996887207031 39.32870864868164 87.00002288818359 44.99999618530273 87.00002288818359 C 50.67128372192383 87.00002288818359 56.17134094238281 85.88996887207031 61.34736633300781 83.70068359375 C 66.34834289550781 81.58545684814453 70.84030914306641 78.55668640136719 74.69847869873047 74.69849395751953 C 78.55665588378906 70.84032440185547 81.58542633056641 66.34836578369141 83.70065307617188 61.34738159179688 C 85.88993835449219 56.17135620117188 87 50.67129898071289 87 45.0000114440918 C 87 39.3287239074707 85.88993835449219 33.82866668701172 83.70065307617188 28.65264129638672 C 81.58542633056641 23.65165710449219 78.55665588378906 19.15969848632812 74.69847869873047 15.30152893066406 C 70.84030914306641 11.44333648681641 66.34834289550781 8.414566040039062 61.34736633300781 6.299339294433594 C 56.17134094238281 4.110054016113281 50.67128372192383 3 44.99999618530273 3 M 44.99999618530273 0 C 69.85281372070312 0 90 20.14719390869141 90 45.0000114440918 C 90 69.85282897949219 69.85281372070312 90.00002288818359 44.99999618530273 90.00002288818359 C 20.14717864990234 90.00002288818359 -7.62939453125e-06 69.85282897949219 -7.62939453125e-06 45.0000114440918 C -7.62939453125e-06 20.14719390869141 20.14717864990234 0 44.99999618530273 0 Z" stroke="none" fill="#896521"/>
                  </g>
                </g>
              </g>
            </g>
          </g>
        </g>
      </g>
    </g>
    <g id="Layer_32" data-name="Layer 32" transform="translate(227.003 354.004)">
      <path id="Trazado_1051343" data-name="Trazado 1051343" d="M2,2H43.543V56.187H2Z" transform="translate(-0.097 -0.097)" fill="#c8cded"/>
      <path id="Trazado_1051344" data-name="Trazado 1051344" d="M2,2H39.028V52.574H2Z" transform="translate(-0.097 -0.097)" fill="#e2e7f6"/>
      <path id="Trazado_1051345" data-name="Trazado 1051345" d="M47.6,43.08A12.71,12.71,0,0,1,43.08,47.6l2.637,2.637,4.516-4.516Z" transform="translate(-4.077 -4.077)" fill="#559b2d"/>
      <path id="Trazado_1051346" data-name="Trazado 1051346" d="M36.287,21.353V15.934H34.126a10.762,10.762,0,0,0-1.154-2.787L34.5,11.619,30.668,7.787,29.14,9.315a10.761,10.761,0,0,0-2.787-1.154V6H20.934V8.161a10.761,10.761,0,0,0-2.787,1.154L16.619,7.787l-3.832,3.832,1.528,1.528a10.762,10.762,0,0,0-1.154,2.787H11v5.419h2.161a10.761,10.761,0,0,0,1.154,2.787l-1.528,1.528L16.619,29.5l1.528-1.528a10.761,10.761,0,0,0,2.787,1.154v2.161h5.419V29.126a10.761,10.761,0,0,0,2.787-1.154L30.668,29.5,34.5,25.668,32.972,24.14a10.762,10.762,0,0,0,1.154-2.787Z" transform="translate(-0.969 -0.484)" fill="#939393"/>
      <ellipse id="Elipse_12616" data-name="Elipse 12616" cx="7.5" cy="7" rx="7.5" ry="7" transform="translate(14.996 10.996)" fill="#f2f2f2"/>
      <path id="Trazado_1051347" data-name="Trazado 1051347" d="M22.738,23.253a.9.9,0,0,1-.638-.264l-1.806-1.806,1.277-1.277,1.168,1.168,4.78-4.78,1.277,1.277-5.419,5.419a.9.9,0,0,1-.639.265Z" transform="translate(-1.869 -1.482)" fill="#559b2d"/>
      <path id="Trazado_1051348" data-name="Trazado 1051348" d="M8,38h7.225v7.225H8Z" transform="translate(-0.678 -3.585)" fill="#fff"/>
      <path id="Trazado_1051349" data-name="Trazado 1051349" d="M8,50h7.225v7.225H8Z" transform="translate(-0.678 -4.748)" fill="#fff"/>
      <g id="Grupo_1209820" data-name="Grupo 1209820" transform="translate(19.062 47.059)">
        <path id="Trazado_1051350" data-name="Trazado 1051350" d="M21,56H40.868v1.806H21Z" transform="translate(-21 -52.388)" fill="#9da1bf"/>
        <path id="Trazado_1051351" data-name="Trazado 1051351" d="M25,52H35.837v1.806H25Z" transform="translate(-21.388 -52)" fill="#9da1bf"/>
        <path id="Trazado_1051352" data-name="Trazado 1051352" d="M39,52h3.612v1.806H39Z" transform="translate(-22.744 -52)" fill="#9da1bf"/>
      </g>
      <path id="Trazado_1051353" data-name="Trazado 1051353" d="M27.344,41h8.72" transform="translate(-2.552 -3.876)" fill="none" stroke="#000" stroke-linejoin="round" stroke-width="2"/>
      <path id="Trazado_1051354" data-name="Trazado 1051354" d="M39,41h1.806" transform="translate(-3.682 -3.876)" fill="none" stroke="#000" stroke-linejoin="round" stroke-width="2"/>
      <circle id="Elipse_12617" data-name="Elipse 12617" cx="12.5" cy="12.5" r="12.5" transform="translate(19.996 19.996)" fill="#6bc13b"/>
      <circle id="Elipse_12618" data-name="Elipse 12618" cx="9" cy="9" r="9" transform="translate(23.996 23.996)" fill="#fff"/>
      <path id="Trazado_1051355" data-name="Trazado 1051355" d="M47,49.709,57.277,59.986a1.916,1.916,0,0,0,2.709-2.709L49.709,47" transform="translate(-4.457 -4.457)" fill="#4a8722"/>
      <path id="Trazado_1051356" data-name="Trazado 1051356" d="M27.518,16.293l-4.78,4.78L21.57,19.905l-1.277,1.277L22.1,22.989a.9.9,0,0,0,1.277,0l5.419-5.419Z" transform="translate(-1.869 -1.482)"/>
      <path id="Trazado_1051357" data-name="Trazado 1051357" d="M39,40h1.806v1.806H39Z" transform="translate(-3.682 -3.779)"/>
      <path id="Trazado_1051358" data-name="Trazado 1051358" d="M21,56H40.868v1.806H21Z" transform="translate(-1.938 -5.329)"/>
      <path id="Trazado_1051359" data-name="Trazado 1051359" d="M25,52H35.837v1.806H25Z" transform="translate(-2.325 -4.941)"/>
      <path id="Trazado_1051360" data-name="Trazado 1051360" d="M39,52h3.612v1.806H39Z" transform="translate(-3.682 -4.941)"/>
      <path id="Trazado_1051361" data-name="Trazado 1051361" d="M34.934,44.868A9.934,9.934,0,1,0,25,34.934a9.934,9.934,0,0,0,9.934,9.934Zm0-18.062a8.128,8.128,0,1,1-6.041,13.547h6.944V38.547H27.664a8.11,8.11,0,0,1,7.27-11.74Z" transform="translate(-2.325 -2.325)"/>
      <path id="Trazado_1051362" data-name="Trazado 1051362" d="M15.543,36.948a.877.877,0,0,0-.415-.114H7.9a.9.9,0,0,0-.9.9v7.225a.9.9,0,0,0,.9.9h7.225a.9.9,0,0,0,.9-.9V39.015l2.445-2.445L17.2,35.293ZM14.225,44.06H8.806V38.641h5.045l-2.335,2.335-1.168-1.168L9.071,41.086l1.806,1.806a.9.9,0,0,0,1.277,0l2.071-2.071Z" transform="translate(-0.581 -3.323)"/>
      <path id="Trazado_1051363" data-name="Trazado 1051363" d="M17.2,47.293l-1.655,1.655a.877.877,0,0,0-.415-.114H7.9a.9.9,0,0,0-.9.9v7.225a.9.9,0,0,0,.9.9h7.225a.9.9,0,0,0,.9-.9V51.015l2.445-2.445ZM14.225,56.06H8.806V50.641h5.045l-2.335,2.335-1.168-1.168L9.071,53.086l1.806,1.806a.9.9,0,0,0,1.277,0l2.071-2.071Z" transform="translate(-0.581 -4.485)"/>
      <path id="Trazado_1051364" data-name="Trazado 1051364" d="M56.167,52.181l-9.638-9.638.265-.265a.9.9,0,0,0,0-1.277l-2.167-2.167a13.445,13.445,0,0,0-.277-12.955V1.9a.9.9,0,0,0-.9-.9H1.9a.9.9,0,0,0-.9.9V56.09a.9.9,0,0,0,.9.9H43.446a.9.9,0,0,0,.9-.9V48.336l7.832,7.832a2.819,2.819,0,1,0,3.986-3.986ZM44.879,41.64,41.64,44.879l-1.22-1.22a13.681,13.681,0,0,0,3.239-3.239ZM20,27.7a9.844,9.844,0,0,1-2.358-.993.9.9,0,0,0-1.1.139l-.89.889L13.1,25.182l.889-.89a.9.9,0,0,0,.139-1.1,9.86,9.86,0,0,1-1.057-2.553.9.9,0,0,0-.874-.677H10.934V16.353h1.259a.9.9,0,0,0,.874-.677,9.911,9.911,0,0,1,1.057-2.555.9.9,0,0,0-.139-1.1l-.889-.889L15.65,8.581l.89.889a.9.9,0,0,0,1.1.139,9.86,9.86,0,0,1,2.553-1.057.9.9,0,0,0,.677-.874V6.419h3.612V7.678a.9.9,0,0,0,.677.874,9.86,9.86,0,0,1,2.553,1.057.9.9,0,0,0,1.1-.139l.89-.889,2.554,2.554-.889.889a.9.9,0,0,0-.139,1.1,9.911,9.911,0,0,1,1.057,2.555.9.9,0,0,0,.874.677h1.259V19.2a12.17,12.17,0,0,0-3.692.013,8.3,8.3,0,0,0,.079-1.05,8.128,8.128,0,1,0-10.041,7.9A13.508,13.508,0,0,0,20,27.7Zm1.846-3.281a6.389,6.389,0,1,1,6.968-4.806,13.579,13.579,0,0,0-6.968,4.806Zm10.767-3.552a11.74,11.74,0,1,1-11.74,11.74,11.74,11.74,0,0,1,11.74-11.74Zm9.934,34.318H2.806V2.806H42.543V23.43a13.547,13.547,0,0,0-6.322-3.864V15.45a.9.9,0,0,0-.9-.9H33.834a11.47,11.47,0,0,0-.714-1.725l1.049-1.049a.9.9,0,0,0,0-1.277L30.338,6.664a.9.9,0,0,0-1.277,0L28.012,7.713A11.65,11.65,0,0,0,26.287,7V5.516a.9.9,0,0,0-.9-.9H19.965a.9.9,0,0,0-.9.9V7a11.65,11.65,0,0,0-1.725.713L16.289,6.664a.9.9,0,0,0-1.277,0L11.18,10.5a.9.9,0,0,0,0,1.277l1.049,1.049a11.47,11.47,0,0,0-.714,1.725H10.031a.9.9,0,0,0-.9.9v5.419a.9.9,0,0,0,.9.9h1.484a11.65,11.65,0,0,0,.713,1.725L11.18,24.545a.9.9,0,0,0,0,1.277l3.832,3.832a.9.9,0,0,0,1.277,0L17.337,28.6a11.74,11.74,0,0,0,2.119.819,13.334,13.334,0,0,0,1.713,10.41H19.062V41.64H22.54a13.471,13.471,0,0,0,16.295,2.987L41,46.795a.9.9,0,0,0,1.277,0l.264-.266Zm11.631,0a1.02,1.02,0,0,1-.716-.3L43.82,45.252l1.432-1.432,9.638,9.638a1.012,1.012,0,0,1-.716,1.729Z"/>
    </g>
  </g>
</svg>
