<svg xmlns="http://www.w3.org/2000/svg" xmlns:xlink="http://www.w3.org/1999/xlink" width="108" height="108" viewBox="0 0 108 108">
  <defs>
    <filter id="Trazado_904820" x="0" y="0" width="108" height="108" filterUnits="userSpaceOnUse">
      <feOffset dy="3" input="SourceAlpha"/>
      <feGaussianBlur stdDeviation="3" result="blur"/>
      <feFlood flood-opacity="0.161"/>
      <feComposite operator="in" in2="blur"/>
      <feComposite in="SourceGraphic"/>
    </filter>
  </defs>
  <g id="Grupo_1209822" data-name="Grupo 1209822" transform="translate(-200 -333)">
    <g id="Grupo_1209745" data-name="Grupo 1209745" transform="translate(209 339)">
      <g id="Grupo_1173585" data-name="Grupo 1173585" transform="translate(0 0)">
        <g id="Grupo_1173428" data-name="Grupo 1173428">
          <g id="Grupo_1171958" data-name="Grupo 1171958">
            <g id="Grupo_1167341" data-name="Grupo 1167341">
              <g id="Grupo_1166792" data-name="Grupo 1166792">
                <g transform="matrix(1, 0, 0, 1, -9, -6)" filter="url(#Trazado_904820)">
                  <g id="Trazado_904820-2" data-name="Trazado 904820" transform="translate(9 6)" fill="#fcebe9">
                    <path d="M 44.99999618530273 88.50002288818359 C 39.12687301635742 88.50002288818359 33.43022155761719 87.35009765625 28.06829643249512 85.08218383789062 C 22.88852119445801 82.89133453369141 18.23629570007324 79.75460815429688 14.24084663391113 75.75916290283203 C 10.24540901184082 71.76371002197266 7.108683586120605 67.11148834228516 4.917821407318115 61.93171310424805 C 2.649921178817749 56.56978607177734 1.499996185302734 50.87313461303711 1.499996185302734 45.0000114440918 C 1.499996185302734 39.12688827514648 2.649921178817749 33.43023681640625 4.917821407318115 28.06829833984375 C 7.108683586120605 22.88852310180664 10.24540901184082 18.2363109588623 14.24084663391113 14.2408618927002 C 18.23629570007324 10.24541187286377 22.88852119445801 7.108686447143555 28.06829643249512 4.917823791503906 C 33.43022155761719 2.649924039840698 39.12687301635742 1.499998927116394 44.99999618530273 1.499998927116394 C 50.87311935424805 1.499998927116394 56.56977081298828 2.649924039840698 61.93169784545898 4.917823791503906 C 67.11147308349609 7.108686447143555 71.76369476318359 10.24541187286377 75.75914764404297 14.2408618927002 C 79.75458526611328 18.2363109588623 82.89131164550781 22.88852310180664 85.08216857910156 28.06829833984375 C 87.35007476806641 33.43023681640625 88.5 39.12688827514648 88.5 45.0000114440918 C 88.5 50.87313461303711 87.35007476806641 56.56978607177734 85.08216857910156 61.93171310424805 C 82.89131164550781 67.11148834228516 79.75458526611328 71.76371002197266 75.75914764404297 75.75916290283203 C 71.76369476318359 79.75460815429688 67.11147308349609 82.89133453369141 61.93169784545898 85.08218383789062 C 56.56977081298828 87.35009765625 50.87311935424805 88.50002288818359 44.99999618530273 88.50002288818359 Z" stroke="none"/>
                    <path d="M 44.99999618530273 3 C 39.32870864868164 3 33.82865142822266 4.110054016113281 28.65262603759766 6.299339294433594 C 23.65165710449219 8.414566040039062 19.15968322753906 11.44333648681641 15.301513671875 15.30152893066406 C 11.44333648681641 19.15969848632812 8.414566040039062 23.65165710449219 6.299339294433594 28.65264129638672 C 4.110054016113281 33.82866668701172 2.999992370605469 39.3287239074707 2.999992370605469 45.0000114440918 C 2.999992370605469 50.67129898071289 4.110054016113281 56.17135620117188 6.299339294433594 61.34738159179688 C 8.414566040039062 66.34836578369141 11.44333648681641 70.84032440185547 15.301513671875 74.69849395751953 C 19.15968322753906 78.55668640136719 23.65165710449219 81.58545684814453 28.65262603759766 83.70068359375 C 33.82865142822266 85.88996887207031 39.32870864868164 87.00002288818359 44.99999618530273 87.00002288818359 C 50.67128372192383 87.00002288818359 56.17134094238281 85.88996887207031 61.34736633300781 83.70068359375 C 66.34834289550781 81.58545684814453 70.84030914306641 78.55668640136719 74.69847869873047 74.69849395751953 C 78.55665588378906 70.84032440185547 81.58542633056641 66.34836578369141 83.70065307617188 61.34738159179688 C 85.88993835449219 56.17135620117188 87 50.67129898071289 87 45.0000114440918 C 87 39.3287239074707 85.88993835449219 33.82866668701172 83.70065307617188 28.65264129638672 C 81.58542633056641 23.65165710449219 78.55665588378906 19.15969848632812 74.69847869873047 15.30152893066406 C 70.84030914306641 11.44333648681641 66.34834289550781 8.414566040039062 61.34736633300781 6.299339294433594 C 56.17134094238281 4.110054016113281 50.67128372192383 3 44.99999618530273 3 M 44.99999618530273 0 C 69.85281372070312 0 90 20.14719390869141 90 45.0000114440918 C 90 69.85282897949219 69.85281372070312 90.00002288818359 44.99999618530273 90.00002288818359 C 20.14717864990234 90.00002288818359 -7.62939453125e-06 69.85282897949219 -7.62939453125e-06 45.0000114440918 C -7.62939453125e-06 20.14719390869141 20.14717864990234 0 44.99999618530273 0 Z" stroke="none" fill="#e44b36"/>
                  </g>
                </g>
              </g>
            </g>
          </g>
        </g>
      </g>
    </g>
    <g id="risk-assessment_14779608" transform="translate(217.921 347.921)">
      <path id="Trazado_1051365" data-name="Trazado 1051365" d="M394.5,7.5V32.8a12.651,12.651,0,0,0,0-25.3Z" transform="translate(-342.493)" fill="#dedede"/>
      <path id="Trazado_1051366" data-name="Trazado 1051366" d="M306.351,20.151c0-6.987-4.119-12.651-9.2-12.651a12.651,12.651,0,1,0,0,25.3C302.232,32.8,306.351,27.137,306.351,20.151Z" transform="translate(-245.143)" fill="#f2f2f2"/>
      <path id="Trazado_1051367" data-name="Trazado 1051367" d="M220.221,109.571l-2.189-4.313v-4.313l-.876-3.45-1.751-3.45V90.6l-1.547-6.1H210.3v41.4h14.067Z" transform="translate(-179.476 -68.145)" fill="#fd7154"/>
      <path id="Trazado_1051368" data-name="Trazado 1051368" d="M103.734,84.5h-3.341l-1.547,6.1v3.45L97.1,97.5l-.876,3.45v4.313l-2.189,4.313L89.886,125.9h24.356Z" transform="translate(-72.911 -68.145)" fill="#fc945a"/>
      <path id="Trazado_1051369" data-name="Trazado 1051369" d="M248.779,236.125h3.56L250.15,227.5h-3.56v4.313Z" transform="translate(-211.593 -194.699)" fill="#dedede"/>
      <path id="Trazado_1051370" data-name="Trazado 1051370" d="M225.5,144.4h3.56l-1.751-6.9h-3.56v3.45Z" transform="translate(-191.38 -115.049)" fill="#dedede"/>
      <path id="Trazado_1051371" data-name="Trazado 1051371" d="M139.8,227.5H128.113l-2.189,8.625H141.99Z" transform="translate(-104.805 -194.699)" fill="#f2f2f2"/>
      <path id="Trazado_1051372" data-name="Trazado 1051372" d="M160.758,137.5h-6.435l-1.751,6.9h9.937Z" transform="translate(-128.388 -115.049)" fill="#f2f2f2"/>
      <path id="Trazado_1051373" data-name="Trazado 1051373" d="M317.9,414.5h-3.56l-1.261,8.625h7.01Z" transform="translate(-270.439 -360.192)" fill="#fc945a"/>
      <path id="Trazado_1051374" data-name="Trazado 1051374" d="M50.655,414.5l-2.189,8.625H82.349L80.16,414.5Z" transform="translate(-36.255 -360.192)" fill="#fab85f"/>
      <path id="Trazado_1051375" data-name="Trazado 1051375" d="M412,107.712l2.588,4.483a9.2,9.2,0,0,0,4.6-7.969L416.6,102.5l-2.588,1.725A4.023,4.023,0,0,1,412,107.712Z" transform="translate(-357.983 -84.074)" fill="#ff4d4f"/>
      <path id="Trazado_1051376" data-name="Trazado 1051376" d="M319.1,112.194l2.588-4.483a4.024,4.024,0,0,1-2.012-3.487l-2.588-1.725-2.588,1.725A9.2,9.2,0,0,0,319.1,112.194Z" transform="translate(-271.693 -84.074)" fill="#43c2f9"/>
      <path id="Trazado_1051377" data-name="Trazado 1051377" d="M414.585,48.226H412v4.481a4.022,4.022,0,0,1,2.013,3.485h5.175A9.2,9.2,0,0,0,414.585,48.226Z" transform="translate(-357.978 -36.042)" fill="#fc945a"/>
      <path id="Trazado_1051378" data-name="Trazado 1051378" d="M314.5,56.193h5.175a4.022,4.022,0,0,1,2.013-3.485V48.226H319.1A9.2,9.2,0,0,0,314.5,56.193Z" transform="translate(-271.693 -36.042)" fill="#82d97e"/>
      <path id="Trazado_1051379" data-name="Trazado 1051379" d="M359.1,37.5a9.155,9.155,0,0,0-4.6,1.234l2.587,4.481a4.022,4.022,0,0,1,4.025,0l2.587-4.481A9.154,9.154,0,0,0,359.1,37.5Z" transform="translate(-307.097 -26.55)" fill="#fdd56f"/>
      <path id="Trazado_1051380" data-name="Trazado 1051380" d="M373.45,474.5H370v3.45h3.45a1.725,1.725,0,1,0,0-3.45Z" transform="translate(-320.81 -413.292)" fill="#373e69"/>
      <path id="Trazado_1051381" data-name="Trazado 1051381" d="M49.19,474.5H9.225a1.725,1.725,0,0,0,0,3.45H49.19a1.725,1.725,0,0,0,0-3.45Z" transform="translate(0 -413.292)" fill="#51577d"/>
      <path id="Trazado_1051382" data-name="Trazado 1051382" d="M52.64,474.5H9.225a1.725,1.725,0,0,0,0,3.45H52.64a1.725,1.725,0,0,0,0-3.45Z" transform="translate(0 -413.292)" fill="none" stroke="#000" stroke-linecap="round" stroke-linejoin="round" stroke-miterlimit="10" stroke-width="1"/>
      <path id="Trazado_1051383" data-name="Trazado 1051383" d="M88.84,421.4l-1.751-6.9H54.024l-1.751,6.9" transform="translate(-39.624 -360.192)" fill="none" stroke="#000" stroke-linecap="round" stroke-linejoin="round" stroke-miterlimit="10" stroke-width="1"/>
      <line id="Línea_841" data-name="Línea 841" x2="19.626" transform="translate(21.119 41.427)" fill="none" stroke="#000" stroke-linecap="round" stroke-linejoin="round" stroke-miterlimit="10" stroke-width="1"/>
      <line id="Línea_842" data-name="Línea 842" x1="9.994" transform="translate(25.935 22.451)" fill="none" stroke="#000" stroke-linecap="round" stroke-linejoin="round" stroke-miterlimit="10" stroke-width="1"/>
      <line id="Línea_843" data-name="Línea 843" x1="13.497" transform="translate(24.184 29.351)" fill="none" stroke="#000" stroke-linecap="round" stroke-linejoin="round" stroke-miterlimit="10" stroke-width="1"/>
      <line id="Línea_844" data-name="Línea 844" x1="15.248" transform="translate(23.309 32.801)" fill="none" stroke="#000" stroke-linecap="round" stroke-linejoin="round" stroke-miterlimit="10" stroke-width="1"/>
      <path id="Trazado_1051384" data-name="Trazado 1051384" d="M323.7,37.5a9.2,9.2,0,0,0-4.6,17.17l2.588-4.483a4.025,4.025,0,1,1,4.026,0L328.3,54.67a9.2,9.2,0,0,0-4.6-17.17Z" transform="translate(-271.693 -26.55)" fill="none" stroke="#000" stroke-linecap="round" stroke-linejoin="round" stroke-miterlimit="10" stroke-width="1"/>
      <line id="Línea_845" data-name="Línea 845" y1="4.482" x2="2.588" transform="translate(54.02 12.183)" fill="none" stroke="#000" stroke-linecap="round" stroke-linejoin="round" stroke-miterlimit="10" stroke-width="1"/>
      <line id="Línea_846" data-name="Línea 846" x2="5" transform="translate(56.5 20.658)" fill="none" stroke="#000" stroke-linecap="round" stroke-linejoin="round" stroke-miterlimit="10" stroke-width="1"/>
      <line id="Línea_847" data-name="Línea 847" x1="5" transform="translate(42.5 20.658)" fill="none" stroke="#000" stroke-linecap="round" stroke-linejoin="round" stroke-miterlimit="10" stroke-width="1"/>
      <line id="Línea_848" data-name="Línea 848" x1="2.588" y1="4.482" transform="translate(47.407 12.183)" fill="none" stroke="#000" stroke-linecap="round" stroke-linejoin="round" stroke-miterlimit="10" stroke-width="1"/>
      <path id="Trazado_1051385" data-name="Trazado 1051385" d="M139.507,122.452,129.875,84.5h-6.9L115.4,114.34" transform="translate(-95.493 -68.145)" fill="none" stroke="#000" stroke-linecap="round" stroke-linejoin="round" stroke-miterlimit="10" stroke-width="1"/>
      <line id="Línea_849" data-name="Línea 849" x1="1.21" y2="4.768" transform="translate(17.851 49.539)" fill="none" stroke="#000" stroke-linecap="round" stroke-linejoin="round" stroke-miterlimit="10" stroke-width="1"/>
      <path id="Trazado_1051386" data-name="Trazado 1051386" d="M285.433,15.377a12.665,12.665,0,1,0,1.727-2.987" transform="translate(-245.143)" fill="none" stroke="#000" stroke-linecap="round" stroke-linejoin="round" stroke-miterlimit="10" stroke-width="1"/>
    </g>
  </g>
</svg>
