<svg xmlns="http://www.w3.org/2000/svg" xmlns:xlink="http://www.w3.org/1999/xlink" width="93" height="93" viewBox="0 0 93 93">
  <defs>
    <filter id="Trazado_982547" x="0" y="0" width="93" height="93" filterUnits="userSpaceOnUse">
      <feOffset dy="3" input="SourceAlpha"/>
      <feGaussianBlur stdDeviation="3" result="blur"/>
      <feFlood flood-opacity="0.161"/>
      <feComposite operator="in" in2="blur"/>
      <feComposite in="SourceGraphic"/>
    </filter>
  </defs>
  <g id="Grupo_1209788" data-name="Grupo 1209788" transform="translate(-195 -1308.49)">
    <g id="Grupo_1209736" data-name="Grupo 1209736" transform="translate(0 -1430.391)">
      <g id="Grupo_1209036" data-name="Grupo 1209036" transform="translate(-598.49 -604.119)">
        <g id="Grupo_1208891" data-name="Grupo 1208891" transform="translate(802.49 3349)">
          <g id="Grupo_1177675" data-name="Grupo 1177675" transform="translate(0 0)">
            <g id="Grupo_1176928" data-name="Grupo 1176928" transform="translate(0 0)">
              <g id="Grupo_1172322" data-name="Grupo 1172322" transform="translate(0 0)">
                <g id="Grupo_1164700" data-name="Grupo 1164700">
                  <g id="Grupo_1160931" data-name="Grupo 1160931">
                    <g id="Grupo_1160749" data-name="Grupo 1160749">
                      <g id="Grupo_1158891" data-name="Grupo 1158891">
                        <g id="Grupo_1157406" data-name="Grupo 1157406">
                          <g id="Grupo_1155793" data-name="Grupo 1155793">
                            <g id="Grupo_1154704" data-name="Grupo 1154704">
                              <g id="Grupo_1150790" data-name="Grupo 1150790">
                                <g id="Grupo_1154214" data-name="Grupo 1154214">
                                  <g id="Grupo_1152583" data-name="Grupo 1152583">
                                    <g id="Grupo_1146973" data-name="Grupo 1146973">
                                      <g id="Grupo_1146954" data-name="Grupo 1146954">
                                        <g transform="matrix(1, 0, 0, 1, -9, -6)" filter="url(#Trazado_982547)">
                                          <g id="Trazado_982547-2" data-name="Trazado 982547" transform="translate(9 6)" fill="#fef7ea">
                                            <path d="M 37.49999237060547 73.49986267089844 C 32.63936996459961 73.49986267089844 27.92492485046387 72.54824066162109 23.48763656616211 70.67143249511719 C 19.20095825195312 68.85832214355469 15.35081481933594 66.26239013671875 12.04415893554688 62.95573043823242 C 8.737492561340332 59.64907455444336 6.14155912399292 55.79894256591797 4.328447818756104 51.51226425170898 C 2.45162558555603 47.07498550415039 1.500003457069397 42.36055374145508 1.500003457069397 37.49993133544922 C 1.500003457069397 32.63930892944336 2.45162558555603 27.92487525939941 4.328447818756104 23.48759841918945 C 6.14155912399292 19.20092010498047 8.737492561340332 15.35078716278076 12.04415893554688 12.0441312789917 C 15.35081481933594 8.737475395202637 19.20095825195312 6.141542434692383 23.48763656616211 4.328431129455566 C 27.92492485046387 2.45162034034729 32.63936996459961 1.499997973442078 37.49999237060547 1.499997973442078 C 42.36061477661133 1.499997973442078 47.07505798339844 2.45162034034729 51.51234817504883 4.328431129455566 C 55.79902648925781 6.141542434692383 59.649169921875 8.737475395202637 62.95582580566406 12.0441312789917 C 66.26248931884766 15.35078716278076 68.85842895507812 19.20092010498047 70.67153930664062 23.48759841918945 C 72.54836273193359 27.92487525939941 73.49998474121094 32.63930892944336 73.49998474121094 37.49993133544922 C 73.49998474121094 42.36055374145508 72.54836273193359 47.07498550415039 70.67153930664062 51.51226425170898 C 68.85842895507812 55.79894256591797 66.26248931884766 59.64907455444336 62.95582580566406 62.95573043823242 C 59.649169921875 66.26239013671875 55.79902648925781 68.85832214355469 51.51234817504883 70.67143249511719 C 47.07505798339844 72.54824066162109 42.36061477661133 73.49986267089844 37.49999237060547 73.49986267089844 Z" stroke="none"/>
                                            <path d="M 37.49999237060547 2.999992370605469 C 32.84120559692383 2.999992370605469 28.32336807250977 3.911758422851562 24.07196807861328 5.709945678710938 C 19.96409225463867 7.447418212890625 16.27420425415039 9.935409545898438 13.10481643676758 13.10479354858398 C 9.935432434082031 16.2741813659668 7.447441101074219 19.96405792236328 5.709953308105469 24.07191848754883 C 3.911766052246094 28.32331848144531 3.000007629394531 32.84114456176758 3.000007629394531 37.49993133544922 C 3.000007629394531 42.15870666503906 3.911766052246094 46.67654418945312 5.709953308105469 50.92793273925781 C 7.447441101074219 55.03580474853516 9.935432434082031 58.72568130493164 13.10481643676758 61.89505767822266 C 16.27420425415039 65.06444549560547 19.96409225463867 67.55242919921875 24.07196807861328 69.28990936279297 C 28.32336807250977 71.08809661865234 32.84120559692383 71.99985504150391 37.49999237060547 71.99985504150391 C 42.15877914428711 71.99985504150391 46.67661666870117 71.08809661865234 50.92801666259766 69.28990936279297 C 55.03589248657227 67.55242919921875 58.72578048706055 65.06444549560547 61.89516830444336 61.89505767822266 C 65.06455230712891 58.72568130493164 67.55254364013672 55.03580474853516 69.29003143310547 50.92793273925781 C 71.08821868896484 46.67654418945312 71.99997711181641 42.15870666503906 71.99997711181641 37.49993133544922 C 71.99997711181641 32.84114456176758 71.08821868896484 28.32331848144531 69.29003143310547 24.07191848754883 C 67.55254364013672 19.96405792236328 65.06455230712891 16.2741813659668 61.89516830444336 13.10479354858398 C 58.72578048706055 9.935409545898438 55.03589248657227 7.447418212890625 50.92801666259766 5.709945678710938 C 46.67661666870117 3.911758422851562 42.15877914428711 2.999992370605469 37.49999237060547 2.999992370605469 M 37.49999237060547 -7.62939453125e-06 C 58.21065521240234 -7.62939453125e-06 74.99997711181641 16.7892951965332 74.99997711181641 37.49993133544922 C 74.99997711181641 58.2105712890625 58.21065521240234 74.99985504150391 37.49999237060547 74.99985504150391 C 16.78932952880859 74.99985504150391 7.62939453125e-06 58.2105712890625 7.62939453125e-06 37.49993133544922 C 7.62939453125e-06 16.7892951965332 16.78932952880859 -7.62939453125e-06 37.49999237060547 -7.62939453125e-06 Z" stroke="none" fill="#896521"/>
                                          </g>
                                        </g>
                                      </g>
                                    </g>
                                  </g>
                                </g>
                              </g>
                            </g>
                          </g>
                        </g>
                      </g>
                    </g>
                  </g>
                </g>
              </g>
            </g>
          </g>
        </g>
      </g>
    </g>
    <g id="warning_12688039" transform="translate(209.693 1309.669)">
      <g id="Grupo_1209782" data-name="Grupo 1209782" transform="translate(9.872 20.819)">
        <g id="Grupo_1209780" data-name="Grupo 1209780" transform="translate(0 0)">
          <circle id="Elipse_12609" data-name="Elipse 12609" cx="14.192" cy="14.192" r="14.192" transform="translate(0 17.624)" fill="#fe646f"/>
          <g id="Grupo_1209778" data-name="Grupo 1209778" transform="translate(18.075)">
            <path id="Trazado_1051171" data-name="Trazado 1051171" d="M246.625,24.48V21.4a.579.579,0,0,0-.578-.578H235.634a.578.578,0,0,0-.578.578V24.48Z" transform="translate(-233.244 -20.819)" fill="#cbc4cc"/>
            <path id="Trazado_1051172" data-name="Trazado 1051172" d="M319.324,20.819h-3.046V24.48H319.9V21.4A.579.579,0,0,0,319.324,20.819Z" transform="translate(-306.522 -20.819)" fill="#b5adb6"/>
            <path id="Trazado_1051173" data-name="Trazado 1051173" d="M370.411,145.7h8.53v-16.08a.579.579,0,0,0-.578-.578h-7.952Z" transform="translate(-355.36 -118.454)" fill="#ffd15b"/>
            <path id="Trazado_1051174" data-name="Trazado 1051174" d="M370.411,145.7h8.53v-16.08a.579.579,0,0,0-.578-.578h-7.952Z" transform="translate(-355.36 -118.454)" fill="#ffd15b"/>
            <path id="Trazado_1051175" data-name="Trazado 1051175" d="M378.363,129.039h-2.319v12.81a.978.978,0,0,1-.978.978h-4.655v2.87h8.53v-16.08A.578.578,0,0,0,378.363,129.039Z" transform="translate(-355.36 -118.454)" fill="#ffc344"/>
            <path id="Trazado_1051176" data-name="Trazado 1051176" d="M231.149,57.245H217.113a.579.579,0,0,0-.578.578V77.529a8.927,8.927,0,0,1,3.711,3.4h11.482v-23.1A.578.578,0,0,0,231.149,57.245Z" transform="translate(-216.535 -53.682)" fill="#e5e1e5"/>
            <path id="Trazado_1051177" data-name="Trazado 1051177" d="M231.149,57.245H217.113a.579.579,0,0,0-.578.578V77.529a8.927,8.927,0,0,1,3.711,3.4h11.482v-23.1A.578.578,0,0,0,231.149,57.245Z" transform="translate(-216.535 -53.682)" fill="#e5e1e5"/>
            <g id="Grupo_1209776" data-name="Grupo 1209776" transform="translate(0.927 3.563)">
              <path id="Trazado_1051178" data-name="Trazado 1051178" d="M239.7,57.245h-2.342V77.077a.978.978,0,0,1-.978.978H226.017a8.933,8.933,0,0,1,2.783,2.87h11.482v-23.1A.578.578,0,0,0,239.7,57.245Z" transform="translate(-226.017 -57.245)" fill="#d7d0d6"/>
            </g>
            <path id="Trazado_1051179" data-name="Trazado 1051179" d="M295.175,57.245H287.5V73.406a.579.579,0,0,0,.578.578h7.672V57.823A.579.579,0,0,0,295.175,57.245Z" transform="translate(-280.561 -53.682)" fill="#8ac9fe"/>
            <g id="Grupo_1209777" data-name="Grupo 1209777" transform="translate(12.272 3.563)">
              <path id="Trazado_1051180" data-name="Trazado 1051180" d="M344.342,57.245H342V73.984h2.92V57.823A.579.579,0,0,0,344.342,57.245Z" transform="translate(-342 -57.245)" fill="#60b7ff"/>
            </g>
          </g>
          <g id="Grupo_1209779" data-name="Grupo 1209779" transform="translate(3.933 11.741)">
            <path id="Trazado_1051181" data-name="Trazado 1051181" d="M74.032,143.861h-.093a1.978,1.978,0,0,1-1.978-1.978v-1.03h3.7a.347.347,0,0,1,.347.347v.683A1.978,1.978,0,0,1,74.032,143.861Z" transform="translate(-71.961 -140.853)" fill="#ffd15b"/>
            <path id="Trazado_1051182" data-name="Trazado 1051182" d="M84.252,140.854H82.065a.347.347,0,0,1,.347.347v.683a1.975,1.975,0,0,1-.931,1.676,1.966,1.966,0,0,0,1.047.3h.093a1.978,1.978,0,0,0,1.978-1.978V141.2A.347.347,0,0,0,84.252,140.854Z" transform="translate(-80.55 -140.854)" fill="#ffc344"/>
          </g>
          <circle id="Elipse_12610" data-name="Elipse 12610" cx="8.964" cy="8.964" r="8.964" transform="translate(5.229 22.852)" fill="#fb2b3a"/>
        </g>
        <g id="Grupo_1209781" data-name="Grupo 1209781" transform="translate(8.896 26.245)">
          <path id="Trazado_1051183" data-name="Trazado 1051183" d="M125.878,290.3l-2.866,4.965a2.317,2.317,0,0,0,2.007,3.476h5.733a2.317,2.317,0,0,0,2.007-3.476l-2.866-4.965A2.317,2.317,0,0,0,125.878,290.3Z" transform="translate(-122.698 -289.136)" fill="#ffd15b"/>
          <path id="Trazado_1051184" data-name="Trazado 1051184" d="M165.658,295.261l-2.866-4.965a2.32,2.32,0,0,0-3.627-.5L162.748,296a2.308,2.308,0,0,1-.31,2.737h1.214A2.317,2.317,0,0,0,165.658,295.261Z" transform="translate(-155.598 -289.138)" fill="#ffc344"/>
        </g>
      </g>
      <g id="Grupo_1209787" data-name="Grupo 1209787" transform="translate(7.5 20.819)">
        <path id="Trazado_1051185" data-name="Trazado 1051185" d="M49.824,201.534a14.191,14.191,0,1,0,9.554,9.08" transform="translate(-29.377 -183.37)" fill="none" stroke="#000" stroke-linejoin="round" stroke-miterlimit="10" stroke-width="1"/>
        <path id="Trazado_1051186" data-name="Trazado 1051186" d="M246.625,24.382V21.4a.579.579,0,0,0-.578-.578H235.634a.578.578,0,0,0-.578.578v2.985Z" transform="translate(-212.798 -20.819)" fill="none" stroke="#000" stroke-linecap="round" stroke-linejoin="round" stroke-miterlimit="10" stroke-width="1"/>
        <path id="Trazado_1051187" data-name="Trazado 1051187" d="M433.6,145.7v-16.08a.578.578,0,0,0-.578-.578H431" transform="translate(-389.576 -118.454)" fill="none" stroke="#000" stroke-linecap="round" stroke-linejoin="round" stroke-miterlimit="10" stroke-width="1"/>
        <line id="Línea_818" data-name="Línea 818" x1="2.362" transform="translate(35.639 10.585)" fill="none" stroke="#000" stroke-linecap="round" stroke-linejoin="round" stroke-miterlimit="10" stroke-width="1"/>
        <path id="Trazado_1051188" data-name="Trazado 1051188" d="M231.727,80.926v-23.1a.579.579,0,0,0-.578-.578H217.113a.579.579,0,0,0-.578.578v2.723" transform="translate(-196.088 -53.682)" fill="none" stroke="#000" stroke-linecap="round" stroke-linejoin="round" stroke-miterlimit="10" stroke-width="1"/>
        <line id="Línea_819" data-name="Línea 819" y2="13.449" transform="translate(20.447 10.288)" fill="none" stroke="#000" stroke-linecap="round" stroke-linejoin="round" stroke-miterlimit="10" stroke-width="1"/>
        <g id="Grupo_1209783" data-name="Grupo 1209783" transform="translate(39.706 15.083)">
          <line id="Línea_820" data-name="Línea 820" y2="0.835" fill="none" stroke="#000" stroke-linecap="square" stroke-linejoin="round" stroke-miterlimit="10" stroke-width="1"/>
          <line id="Línea_821" data-name="Línea 821" y2="0.835" transform="translate(0 5.843)" fill="none" stroke="#000" stroke-linecap="square" stroke-linejoin="round" stroke-miterlimit="10" stroke-width="1"/>
        </g>
        <g id="Grupo_1209784" data-name="Grupo 1209784" transform="translate(27.388 3.563)">
          <rect id="Rectángulo_419445" data-name="Rectángulo 419445" width="4.125" height="5.58" fill="none" stroke="#000" stroke-linecap="round" stroke-linejoin="round" stroke-miterlimit="10" stroke-width="1"/>
          <path id="Trazado_1051189" data-name="Trazado 1051189" d="M333.225,57.245h-3.547v5.58H333.8v-5A.579.579,0,0,0,333.225,57.245Z" transform="translate(-325.553 -57.245)" fill="none" stroke="#000" stroke-linecap="round" stroke-linejoin="round" stroke-miterlimit="10" stroke-width="1"/>
          <rect id="Rectángulo_419446" data-name="Rectángulo 419446" width="4.125" height="5.58" transform="translate(0 5.58)" fill="none" stroke="#000" stroke-linecap="round" stroke-linejoin="round" stroke-miterlimit="10" stroke-width="1"/>
          <rect id="Rectángulo_419447" data-name="Rectángulo 419447" width="4.125" height="5.58" transform="translate(4.125 5.58)" fill="none" stroke="#000" stroke-linecap="round" stroke-linejoin="round" stroke-miterlimit="10" stroke-width="1"/>
          <path id="Trazado_1051190" data-name="Trazado 1051190" d="M287.5,171.335h4.125v5.58h-3.547a.579.579,0,0,1-.578-.578Z" transform="translate(-287.503 -160.175)" fill="none" stroke="#000" stroke-linecap="round" stroke-linejoin="round" stroke-miterlimit="10" stroke-width="1"/>
          <rect id="Rectángulo_419448" data-name="Rectángulo 419448" width="4.125" height="5.58" transform="translate(4.125 11.16)" fill="none" stroke="#000" stroke-linecap="round" stroke-linejoin="round" stroke-miterlimit="10" stroke-width="1"/>
        </g>
        <g id="Grupo_1209785" data-name="Grupo 1209785" transform="translate(0 27.244)">
          <line id="Línea_822" data-name="Línea 822" x1="8.857" fill="none" stroke="#000" stroke-linecap="round" stroke-linejoin="round" stroke-miterlimit="10" stroke-width="1"/>
          <line id="Línea_823" data-name="Línea 823" x1="23.839" transform="translate(24.271)" fill="none" stroke="#000" stroke-linecap="round" stroke-linejoin="round" stroke-miterlimit="10" stroke-width="1"/>
        </g>
        <path id="Trazado_1051191" data-name="Trazado 1051191" d="M32.93,156.356V142.01a1.157,1.157,0,0,1,1.157-1.157h3.7" transform="translate(-30.443 -129.112)" fill="none" stroke="#000" stroke-linecap="round" stroke-linejoin="round" stroke-miterlimit="10" stroke-width="1"/>
        <path id="Trazado_1051192" data-name="Trazado 1051192" d="M74.032,143.861h-.093a1.978,1.978,0,0,1-1.978-1.978v-1.03h3.7a.347.347,0,0,1,.347.347v.683A1.978,1.978,0,0,1,74.032,143.861Z" transform="translate(-65.656 -129.112)" fill="none" stroke="#000" stroke-linecap="round" stroke-linejoin="round" stroke-miterlimit="10" stroke-width="1"/>
        <path id="Trazado_1051193" data-name="Trazado 1051193" d="M87.657,269.567a8.931,8.931,0,1,0-1.838-2.892" transform="translate(-77.603 -231.597)" fill="none" stroke="#000" stroke-linecap="round" stroke-linejoin="round" stroke-miterlimit="10" stroke-width="1"/>
        <g id="Grupo_1209786" data-name="Grupo 1209786" transform="translate(14.4 5.092)">
          <path id="Trazado_1051194" data-name="Trazado 1051194" d="M484.51,147.572l1.955,1.955-1.711,1.711,1.711,1.711-1.711,1.711,1.711,1.711-1.955,1.955" transform="translate(-452.252 -140.266)" fill="none" stroke="#000" stroke-linecap="round" stroke-linejoin="round" stroke-miterlimit="10" stroke-width="1"/>
          <path id="Trazado_1051195" data-name="Trazado 1051195" d="M156.675,79.963l-1.955-1.955,1.711-1.711-1.711-1.711,1.711-1.711" transform="translate(-154.72 -72.875)" fill="none" stroke="#000" stroke-linecap="round" stroke-linejoin="round" stroke-miterlimit="10" stroke-width="1"/>
        </g>
        <path id="Trazado_1051196" data-name="Trazado 1051196" d="M125.878,290.3l-2.866,4.965a2.317,2.317,0,0,0,2.007,3.476h5.733a2.317,2.317,0,0,0,2.007-3.476l-2.866-4.965A2.317,2.317,0,0,0,125.878,290.3Z" transform="translate(-111.43 -262.891)" fill="none" stroke="#000" stroke-linecap="round" stroke-linejoin="round" stroke-miterlimit="10" stroke-width="1"/>
        <line id="Línea_824" data-name="Línea 824" y1="1.965" transform="translate(16.455 29.045)" fill="none" stroke="#000" stroke-linecap="round" stroke-linejoin="round" stroke-miterlimit="10" stroke-width="1"/>
        <line id="Línea_825" data-name="Línea 825" y1="0.101" transform="translate(16.455 33.227)" fill="none" stroke="#000" stroke-linecap="round" stroke-linejoin="round" stroke-miterlimit="10" stroke-width="1"/>
      </g>
    </g>
  </g>
</svg>
