<svg xmlns="http://www.w3.org/2000/svg" xmlns:xlink="http://www.w3.org/1999/xlink" width="93" height="93" viewBox="0 0 93 93">
  <defs>
    <filter id="Trazado_982547" x="0" y="0" width="93" height="93" filterUnits="userSpaceOnUse">
      <feOffset dy="3" input="SourceAlpha"/>
      <feGaussianBlur stdDeviation="3" result="blur"/>
      <feFlood flood-opacity="0.161"/>
      <feComposite operator="in" in2="blur"/>
      <feComposite in="SourceGraphic"/>
    </filter>
    <clipPath id="clip-path">
      <path id="path13101" d="M0-682.665H45.67v45.67H0Z" transform="translate(0 682.665)"/>
    </clipPath>
  </defs>
  <g id="Grupo_1209795" data-name="Grupo 1209795" transform="translate(-615 -1308.49)">
    <g id="Grupo_1209735" data-name="Grupo 1209735" transform="translate(0 -1430.391)">
      <g id="Grupo_1209037" data-name="Grupo 1209037" transform="translate(-178.49 -604.119)">
        <g id="Grupo_1208891" data-name="Grupo 1208891" transform="translate(802.49 3349)">
          <g id="Grupo_1177675" data-name="Grupo 1177675" transform="translate(0 0)">
            <g id="Grupo_1176928" data-name="Grupo 1176928" transform="translate(0 0)">
              <g id="Grupo_1172322" data-name="Grupo 1172322" transform="translate(0 0)">
                <g id="Grupo_1164700" data-name="Grupo 1164700">
                  <g id="Grupo_1160931" data-name="Grupo 1160931">
                    <g id="Grupo_1160749" data-name="Grupo 1160749">
                      <g id="Grupo_1158891" data-name="Grupo 1158891">
                        <g id="Grupo_1157406" data-name="Grupo 1157406">
                          <g id="Grupo_1155793" data-name="Grupo 1155793">
                            <g id="Grupo_1154704" data-name="Grupo 1154704">
                              <g id="Grupo_1150790" data-name="Grupo 1150790">
                                <g id="Grupo_1154214" data-name="Grupo 1154214">
                                  <g id="Grupo_1152583" data-name="Grupo 1152583">
                                    <g id="Grupo_1146973" data-name="Grupo 1146973">
                                      <g id="Grupo_1146954" data-name="Grupo 1146954">
                                        <g transform="matrix(1, 0, 0, 1, -9, -6)" filter="url(#Trazado_982547)">
                                          <g id="Trazado_982547-2" data-name="Trazado 982547" transform="translate(9 6)" fill="#fef7ea">
                                            <path d="M 37.49999237060547 73.49986267089844 C 32.63936996459961 73.49986267089844 27.92492485046387 72.54824066162109 23.48763656616211 70.67143249511719 C 19.20095825195312 68.85832214355469 15.35081481933594 66.26239013671875 12.04415893554688 62.95573043823242 C 8.737492561340332 59.64907455444336 6.14155912399292 55.79894256591797 4.328447818756104 51.51226425170898 C 2.45162558555603 47.07498550415039 1.500003457069397 42.36055374145508 1.500003457069397 37.49993133544922 C 1.500003457069397 32.63930892944336 2.45162558555603 27.92487525939941 4.328447818756104 23.48759841918945 C 6.14155912399292 19.20092010498047 8.737492561340332 15.35078716278076 12.04415893554688 12.0441312789917 C 15.35081481933594 8.737475395202637 19.20095825195312 6.141542434692383 23.48763656616211 4.328431129455566 C 27.92492485046387 2.45162034034729 32.63936996459961 1.499997973442078 37.49999237060547 1.499997973442078 C 42.36061477661133 1.499997973442078 47.07505798339844 2.45162034034729 51.51234817504883 4.328431129455566 C 55.79902648925781 6.141542434692383 59.649169921875 8.737475395202637 62.95582580566406 12.0441312789917 C 66.26248931884766 15.35078716278076 68.85842895507812 19.20092010498047 70.67153930664062 23.48759841918945 C 72.54836273193359 27.92487525939941 73.49998474121094 32.63930892944336 73.49998474121094 37.49993133544922 C 73.49998474121094 42.36055374145508 72.54836273193359 47.07498550415039 70.67153930664062 51.51226425170898 C 68.85842895507812 55.79894256591797 66.26248931884766 59.64907455444336 62.95582580566406 62.95573043823242 C 59.649169921875 66.26239013671875 55.79902648925781 68.85832214355469 51.51234817504883 70.67143249511719 C 47.07505798339844 72.54824066162109 42.36061477661133 73.49986267089844 37.49999237060547 73.49986267089844 Z" stroke="none"/>
                                            <path d="M 37.49999237060547 2.999992370605469 C 32.84120559692383 2.999992370605469 28.32336807250977 3.911758422851562 24.07196807861328 5.709945678710938 C 19.96409225463867 7.447418212890625 16.27420425415039 9.935409545898438 13.10481643676758 13.10479354858398 C 9.935432434082031 16.2741813659668 7.447441101074219 19.96405792236328 5.709953308105469 24.07191848754883 C 3.911766052246094 28.32331848144531 3.000007629394531 32.84114456176758 3.000007629394531 37.49993133544922 C 3.000007629394531 42.15870666503906 3.911766052246094 46.67654418945312 5.709953308105469 50.92793273925781 C 7.447441101074219 55.03580474853516 9.935432434082031 58.72568130493164 13.10481643676758 61.89505767822266 C 16.27420425415039 65.06444549560547 19.96409225463867 67.55242919921875 24.07196807861328 69.28990936279297 C 28.32336807250977 71.08809661865234 32.84120559692383 71.99985504150391 37.49999237060547 71.99985504150391 C 42.15877914428711 71.99985504150391 46.67661666870117 71.08809661865234 50.92801666259766 69.28990936279297 C 55.03589248657227 67.55242919921875 58.72578048706055 65.06444549560547 61.89516830444336 61.89505767822266 C 65.06455230712891 58.72568130493164 67.55254364013672 55.03580474853516 69.29003143310547 50.92793273925781 C 71.08821868896484 46.67654418945312 71.99997711181641 42.15870666503906 71.99997711181641 37.49993133544922 C 71.99997711181641 32.84114456176758 71.08821868896484 28.32331848144531 69.29003143310547 24.07191848754883 C 67.55254364013672 19.96405792236328 65.06455230712891 16.2741813659668 61.89516830444336 13.10479354858398 C 58.72578048706055 9.935409545898438 55.03589248657227 7.447418212890625 50.92801666259766 5.709945678710938 C 46.67661666870117 3.911758422851562 42.15877914428711 2.999992370605469 37.49999237060547 2.999992370605469 M 37.49999237060547 -7.62939453125e-06 C 58.21065521240234 -7.62939453125e-06 74.99997711181641 16.7892951965332 74.99997711181641 37.49993133544922 C 74.99997711181641 58.2105712890625 58.21065521240234 74.99985504150391 37.49999237060547 74.99985504150391 C 16.78932952880859 74.99985504150391 7.62939453125e-06 58.2105712890625 7.62939453125e-06 37.49993133544922 C 7.62939453125e-06 16.7892951965332 16.78932952880859 -7.62939453125e-06 37.49999237060547 -7.62939453125e-06 Z" stroke="none" fill="#896521"/>
                                          </g>
                                        </g>
                                      </g>
                                    </g>
                                  </g>
                                </g>
                              </g>
                            </g>
                          </g>
                        </g>
                      </g>
                    </g>
                  </g>
                </g>
              </g>
            </g>
          </g>
        </g>
      </g>
    </g>
    <g id="g13095" transform="translate(638.664 2013.491)">
      <g id="g13097" transform="translate(0 -682.665)">
        <g id="g13099" clip-path="url(#clip-path)">
          <g id="g13105" transform="translate(0.669 0.671)">
            <path id="path13107" d="M-609.629-91.7l-5.928-5.928-.023-.022a2.13,2.13,0,0,0-1.506-.624H-650.82a2.517,2.517,0,0,0-2.517,2.517v25.313a2.517,2.517,0,0,0,2.517,2.517h39.3A2.517,2.517,0,0,0-609-70.446V-90.195a2.131,2.131,0,0,0-.624-1.507" transform="translate(653.337 98.276)" fill="#f0f0f3"/>
          </g>
          <g id="g13109" transform="translate(25.962 11.609)">
            <path id="path13111" d="M0,0H13.021" fill="none" stroke="#000" stroke-linecap="round" stroke-linejoin="round" stroke-miterlimit="10" stroke-width="1"/>
          </g>
          <g id="g13113" transform="translate(25.962 15.454)">
            <path id="path13115" d="M0,0H13.021" fill="none" stroke="#000" stroke-linecap="round" stroke-linejoin="round" stroke-miterlimit="10" stroke-width="1"/>
          </g>
          <g id="g13117" transform="translate(25.962 19.3)">
            <path id="path13119" d="M0,0H6.485" fill="none" stroke="#000" stroke-linecap="round" stroke-linejoin="round" stroke-miterlimit="10" stroke-width="1"/>
          </g>
          <g id="g13121" transform="translate(0.669 4.748)">
            <path id="path13123" d="M-609.629-34.834l-2.5-2.5v23.761a.8.8,0,0,1-.8.784H-650.82a2.517,2.517,0,0,1-2.517-2.517v1.724a2.517,2.517,0,0,0,2.517,2.517h39.3c.044,0,.087,0,.129,0A2.517,2.517,0,0,0-609-13.579V-33.328a2.13,2.13,0,0,0-.624-1.507" transform="translate(653.337 37.332)" fill="#e0dde2"/>
          </g>
          <g id="g13125" transform="translate(3.943 3.825)">
            <path id="path13127" d="M-225.64-97.032h-.016a.562.562,0,0,1-.524-.4,7.173,7.173,0,0,0-.479-1.153.563.563,0,0,1,.088-.654l.012-.013a1.3,1.3,0,0,0,0-1.838l-.682-.682a1.3,1.3,0,0,0-1.838,0l-.013.012a.563.563,0,0,1-.654.088,7.186,7.186,0,0,0-1.153-.479.563.563,0,0,1-.4-.524c0-.006,0-.011,0-.016a1.3,1.3,0,0,0-1.3-1.3h-.964a1.3,1.3,0,0,0-1.185.767,1.364,1.364,0,0,0-.115.549.563.563,0,0,1-.4.524,7.186,7.186,0,0,0-1.153.479.563.563,0,0,1-.654-.088l-.013-.012a1.3,1.3,0,0,0-1.838,0l-.682.682a1.3,1.3,0,0,0,0,1.838l.012.013a.563.563,0,0,1,.088.654,7.186,7.186,0,0,0-.479,1.153.563.563,0,0,1-.524.4h-.016a1.273,1.273,0,0,0-1.3,1.264v1.036a1.273,1.273,0,0,0,1.3,1.264h.016a.563.563,0,0,1,.524.4,7.194,7.194,0,0,0,.479,1.153.563.563,0,0,1-.088.654l-.012.012a1.3,1.3,0,0,0,0,1.838l.682.682a1.3,1.3,0,0,0,1.838,0l.013-.012a.563.563,0,0,1,.654-.088,7.178,7.178,0,0,0,1.153.479.563.563,0,0,1,.4.524,1.39,1.39,0,0,0,.073.442,1.306,1.306,0,0,0,.265.446,1.306,1.306,0,0,0,.4.3,1.293,1.293,0,0,0,.493.128l.074,0h.964a1.3,1.3,0,0,0,1.3-1.3c0-.005,0-.011,0-.016a.563.563,0,0,1,.4-.524,7.171,7.171,0,0,0,1.153-.479.563.563,0,0,1,.654.088l.013.012a1.3,1.3,0,0,0,1.838,0l.682-.682a1.3,1.3,0,0,0,0-1.838l-.012-.013a.563.563,0,0,1-.088-.654,7.176,7.176,0,0,0,.479-1.153.563.563,0,0,1,.524-.4h.016a1.3,1.3,0,0,0,1.3-1.3v-.964a1.3,1.3,0,0,0-1.3-1.3" transform="translate(241.818 103.989)" fill="#7aabdc"/>
          </g>
          <g id="g13129" transform="translate(15.049 5.663)">
            <path id="path13131" d="M-70.734-71.4h-.017a.562.562,0,0,1-.524-.4,7.171,7.171,0,0,0-.479-1.153.563.563,0,0,1,.088-.654l.012-.013a1.3,1.3,0,0,0,0-1.838l-.682-.682a1.3,1.3,0,0,0-1.838,0l-.013.012a.563.563,0,0,1-.654.088,7.175,7.175,0,0,0-.966-.415,8.722,8.722,0,0,1,3.294,6.835,8.722,8.722,0,0,1-3.294,6.835,7.187,7.187,0,0,0,.966-.415.563.563,0,0,1,.654.088l.013.012a1.3,1.3,0,0,0,1.838,0l.682-.682a1.3,1.3,0,0,0,0-1.838l-.012-.013a.563.563,0,0,1-.088-.654,7.176,7.176,0,0,0,.479-1.153.563.563,0,0,1,.524-.4h.017a1.3,1.3,0,0,0,1.3-1.3V-70.1a1.3,1.3,0,0,0-1.3-1.3" transform="translate(75.805 76.516)" fill="#5f98d5"/>
          </g>
          <g id="g13133" transform="translate(8.496 8.377)">
            <path id="path13135" d="M-116.773-58.387a4.186,4.186,0,0,1-4.186,4.186,4.186,4.186,0,0,1-4.186-4.186,4.186,4.186,0,0,1,4.186-4.186,4.186,4.186,0,0,1,4.186,4.186" transform="translate(125.145 62.573)" fill="#f0f0f3"/>
          </g>
          <g id="g13137" transform="translate(37.803 0.863)">
            <path id="path13139" d="M-97.726-97.728a2.128,2.128,0,0,0-.432-.624l-5.951-5.951a2.129,2.129,0,0,0-.624-.432v5.849a1.157,1.157,0,0,0,1.157,1.157Z" transform="translate(104.733 104.734)" fill="#fb636f"/>
          </g>
          <g id="g13141" transform="translate(3.943 3.825)">
            <path id="path13143" d="M-225.64-97.032h-.016a.562.562,0,0,1-.524-.4,7.173,7.173,0,0,0-.479-1.153.563.563,0,0,1,.088-.654l.012-.013a1.3,1.3,0,0,0,0-1.838l-.682-.682a1.3,1.3,0,0,0-1.838,0l-.013.012a.563.563,0,0,1-.654.088,7.186,7.186,0,0,0-1.153-.479.563.563,0,0,1-.4-.524c0-.006,0-.011,0-.016a1.3,1.3,0,0,0-1.3-1.3h-.964a1.3,1.3,0,0,0-1.185.767,1.364,1.364,0,0,0-.115.549.563.563,0,0,1-.4.524,7.186,7.186,0,0,0-1.153.479.563.563,0,0,1-.654-.088l-.013-.012a1.3,1.3,0,0,0-1.838,0l-.682.682a1.3,1.3,0,0,0,0,1.838l.012.013a.563.563,0,0,1,.088.654,7.186,7.186,0,0,0-.479,1.153.563.563,0,0,1-.524.4h-.016a1.273,1.273,0,0,0-1.3,1.264v1.036a1.273,1.273,0,0,0,1.3,1.264h.016a.563.563,0,0,1,.524.4,7.194,7.194,0,0,0,.479,1.153.563.563,0,0,1-.088.654l-.012.012a1.3,1.3,0,0,0,0,1.838l.682.682a1.3,1.3,0,0,0,1.838,0l.013-.012a.563.563,0,0,1,.654-.088,7.178,7.178,0,0,0,1.153.479.563.563,0,0,1,.4.524,1.39,1.39,0,0,0,.073.442,1.306,1.306,0,0,0,.265.446,1.306,1.306,0,0,0,.4.3,1.293,1.293,0,0,0,.493.128l.074,0h.964a1.3,1.3,0,0,0,1.3-1.3c0-.005,0-.011,0-.016a.563.563,0,0,1,.4-.524,7.171,7.171,0,0,0,1.153-.479.563.563,0,0,1,.654.088l.013.012a1.3,1.3,0,0,0,1.838,0l.682-.682a1.3,1.3,0,0,0,0-1.838l-.012-.013a.563.563,0,0,1-.088-.654,7.176,7.176,0,0,0,.479-1.153.563.563,0,0,1,.524-.4h.016a1.3,1.3,0,0,0,1.3-1.3v-.964A1.3,1.3,0,0,0-225.64-97.032Z" transform="translate(241.818 103.989)" fill="none" stroke="#000" stroke-linecap="round" stroke-linejoin="round" stroke-miterlimit="10" stroke-width="1"/>
          </g>
          <g id="g13145" transform="translate(8.496 8.377)">
            <path id="path13147" d="M-116.773-58.387a4.186,4.186,0,0,1-4.186,4.186,4.186,4.186,0,0,1-4.186-4.186,4.186,4.186,0,0,1,4.186-4.186A4.186,4.186,0,0,1-116.773-58.387Z" transform="translate(125.145 62.573)" fill="none" stroke="#000" stroke-linecap="round" stroke-linejoin="round" stroke-miterlimit="10" stroke-width="1"/>
          </g>
          <g id="g13149" transform="translate(2.995 24.559)">
            <path id="path13151" d="M-153.477-17a1.29,1.29,0,0,0-1.29,1.29v-.55a1.29,1.29,0,0,0-1.29-1.29,1.29,1.29,0,0,0-1.29,1.29v-.606a1.29,1.29,0,0,0-1.29-1.29,1.314,1.314,0,0,0-1.287,1.229,1.291,1.291,0,0,0-1.293-1.291,1.29,1.29,0,0,0-1.29,1.29v4a1.165,1.165,0,0,1-1.165,1.164h-.618c-.064,0-.128,0-.191-.008a3.624,3.624,0,0,0,1.289,2.678l.875.689a2.27,2.27,0,0,1,.866,1.783V-3.7h7.85V-7.544a2.272,2.272,0,0,1,.161-.84l.735-1.844a6.03,6.03,0,0,0,.518-2.352V-15.71a1.29,1.29,0,0,0-1.29-1.29" transform="translate(164.481 18.219)" fill="#efada0"/>
          </g>
          <g id="g13153" transform="translate(12.578 25.778)">
            <path id="path13155" d="M-19.82,0a1.282,1.282,0,0,0-.649.176,1.289,1.289,0,0,1,.641,1.114V4.419a6.03,6.03,0,0,1-.518,2.352l-.735,1.844a2.27,2.27,0,0,0-.161.84V13.3h1.3V9.456a2.272,2.272,0,0,1,.161-.84l.735-1.844a6.03,6.03,0,0,0,.518-2.352V1.29A1.29,1.29,0,0,0-19.82,0" transform="translate(21.241)" fill="#e79b8b"/>
          </g>
          <g id="g13157" transform="translate(5.719 37.272)">
            <path id="path13159" d="M0,0S.007,2.667.013,7.159a.569.569,0,0,0,.569.568h7.3a.569.569,0,0,0,.569-.568C8.456,2.667,8.462,0,8.462,0Z" fill="#fc8086"/>
          </g>
          <g id="g13161" transform="translate(10.456 37.272)">
            <path id="path13163" d="M-8.118,0s-.007,2.667-.013,7.159a.569.569,0,0,1-.569.568h3.144a.569.569,0,0,0,.569-.568C-4.981,2.667-4.974,0-4.974,0Z" transform="translate(8.7)" fill="#fb636f"/>
          </g>
          <g id="g13165" transform="translate(4.983 35.61)">
            <path id="path13167" d="M-125.351,0h-8.04a.947.947,0,0,0-.947.947v1.43a.947.947,0,0,0,.947.947h8.04a.947.947,0,0,0,.947-.947V.947A.947.947,0,0,0-125.351,0" transform="translate(134.338 0)" fill="#fb636f"/>
          </g>
          <g id="g13169" transform="translate(10.841 35.61)">
            <path id="path13171" d="M-56.854-33.152v-1.43a.947.947,0,0,0-.947-.947h-2.182v2.377a.947.947,0,0,1-.947.947H-57.8a.947.947,0,0,0,.947-.947" transform="translate(60.931 35.529)" fill="#fa4954"/>
          </g>
          <g id="g13173" transform="translate(5.614 24.559)">
            <path id="path13175" d="M-8.994,0a1.283,1.283,0,0,0-.645.174,1.288,1.288,0,0,1,.646,1.117V4.934A1.264,1.264,0,0,0-7.728,6.2H-7.7V1.291A1.291,1.291,0,0,0-8.994,0" transform="translate(9.639 0)" fill="#e79b8b"/>
          </g>
          <g id="g13177" transform="translate(8.202 24.622)">
            <path id="path13179" d="M-8.879,0a1.254,1.254,0,0,0-.637.178A1.288,1.288,0,0,1-8.878,1.29V4.871A1.264,1.264,0,0,0-7.614,6.136h.025V1.29A1.29,1.29,0,0,0-8.879,0" transform="translate(9.516)" fill="#e79b8b"/>
          </g>
          <g id="g13181" transform="translate(10.774 25.228)">
            <path id="path13183" d="M-10.444-.058a1.282,1.282,0,0,0-.749.17,1.288,1.288,0,0,1,.645,1.116V4.2A1.264,1.264,0,0,0-9.284,5.467h.026v-4.2A1.314,1.314,0,0,0-10.444-.058" transform="translate(11.193 0.062)" fill="#e79b8b"/>
          </g>
          <g id="g13185" transform="translate(2.995 24.559)">
            <path id="path13187" d="M-151.755-154.137v-.377a2.27,2.27,0,0,1,.161-.84l.735-1.844a6.031,6.031,0,0,0,.518-2.352v-3.129a1.29,1.29,0,0,0-1.29-1.29,1.29,1.29,0,0,0-1.29,1.29v-.55a1.29,1.29,0,0,0-1.29-1.29,1.29,1.29,0,0,0-1.29,1.29v-.606a1.29,1.29,0,0,0-1.29-1.29,1.314,1.314,0,0,0-1.287,1.229,1.291,1.291,0,0,0-1.293-1.291,1.29,1.29,0,0,0-1.29,1.29v4a1.165,1.165,0,0,1-1.165,1.164h-.618c-.064,0-.128,0-.191-.008a3.625,3.625,0,0,0,1.289,2.678l.875.689a2.269,2.269,0,0,1,.8,1.233" transform="translate(162.636 165.188)" fill="none" stroke="#000" stroke-linecap="round" stroke-linejoin="round" stroke-miterlimit="10" stroke-width="1"/>
          </g>
          <g id="g13189" transform="translate(7.551 25.85)">
            <path id="path13191" d="M0-68.441v-4.907" transform="translate(0 73.348)" fill="none" stroke="#000" stroke-linecap="round" stroke-linejoin="round" stroke-miterlimit="10" stroke-width="1"/>
          </g>
          <g id="g13193" transform="translate(10.129 25.912)">
            <path id="path13195" d="M0-67.582v-4.845" transform="translate(0 72.428)" fill="none" stroke="#000" stroke-linecap="round" stroke-linejoin="round" stroke-miterlimit="10" stroke-width="1"/>
          </g>
          <g id="g13197" transform="translate(12.709 26.554)">
            <path id="path13199" d="M0-58.623v-4.2" transform="translate(0 62.827)" fill="none" stroke="#000" stroke-linecap="round" stroke-linejoin="round" stroke-miterlimit="10" stroke-width="1"/>
          </g>
          <g id="g13201" transform="translate(4.983 35.61)">
            <path id="path13203" d="M-125.351,0h-8.04a.947.947,0,0,0-.947.947v1.43a.947.947,0,0,0,.947.947h8.04a.947.947,0,0,0,.947-.947V.947A.947.947,0,0,0-125.351,0Z" transform="translate(134.338 0)" fill="none" stroke="#000" stroke-linecap="round" stroke-linejoin="round" stroke-miterlimit="10" stroke-width="1"/>
          </g>
          <g id="g13205" transform="translate(5.723 38.911)">
            <path id="path13207" d="M0,0C0,1.229.006,3.112.009,5.521a.569.569,0,0,0,.569.568h7.3a.569.569,0,0,0,.569-.568c0-2.408.007-4.291.009-5.521" transform="translate(0 0)" fill="none" stroke="#000" stroke-linecap="round" stroke-linejoin="round" stroke-miterlimit="10" stroke-width="1"/>
          </g>
          <g id="g13209" transform="translate(16.535 24.559)">
            <path id="path13211" d="M-153.468-17a1.29,1.29,0,0,0-1.29,1.29v-.55a1.29,1.29,0,0,0-1.29-1.29,1.29,1.29,0,0,0-1.29,1.29v-.606a1.29,1.29,0,0,0-1.29-1.29,1.314,1.314,0,0,0-1.287,1.229,1.291,1.291,0,0,0-1.293-1.291,1.29,1.29,0,0,0-1.29,1.29v4a1.165,1.165,0,0,1-1.165,1.164h-.808a3.622,3.622,0,0,0,1.288,2.67l.875.689a2.27,2.27,0,0,1,.866,1.783V-3.7h7.85V-7.544a2.272,2.272,0,0,1,.161-.84l.735-1.844a6.03,6.03,0,0,0,.518-2.352V-15.71a1.29,1.29,0,0,0-1.29-1.29" transform="translate(164.472 18.219)" fill="#ffece3"/>
          </g>
          <g id="g13213" transform="translate(26.117 25.778)">
            <path id="path13215" d="M-19.82,0a1.283,1.283,0,0,0-.649.176,1.288,1.288,0,0,1,.641,1.114V4.419a6.03,6.03,0,0,1-.518,2.352l-.735,1.844a2.272,2.272,0,0,0-.161.84V13.3h1.3V9.456a2.27,2.27,0,0,1,.161-.84l.735-1.844a6.03,6.03,0,0,0,.518-2.352V1.29A1.29,1.29,0,0,0-19.82,0" transform="translate(21.241)" fill="#ffdbcc"/>
          </g>
          <g id="g13217" transform="translate(19.258 37.272)">
            <path id="path13219" d="M0,0S.007,2.667.013,7.159a.569.569,0,0,0,.569.568h7.3a.569.569,0,0,0,.569-.568C8.456,2.667,8.462,0,8.462,0Z" fill="#acdf91"/>
          </g>
          <g id="g13221" transform="translate(24.008 37.272)">
            <path id="path13223" d="M-51.6-99.854c.006-4.492.013-7.159.013-7.159h-3.131s-.007,2.667-.013,7.159a.569.569,0,0,1-.569.568h3.13a.569.569,0,0,0,.569-.568" transform="translate(55.297 107.013)" fill="#93d87b"/>
          </g>
          <g id="g13225" transform="translate(18.522 35.61)">
            <path id="path13227" d="M-125.35,0h-8.04a.947.947,0,0,0-.947.947v1.43a.947.947,0,0,0,.947.947h8.04a.947.947,0,0,0,.947-.947V.947A.947.947,0,0,0-125.35,0" transform="translate(134.337 0)" fill="#93d87b"/>
          </g>
          <g id="g13229" transform="translate(24.38 35.61)">
            <path id="path13231" d="M-56.853-33.152v-1.43a.947.947,0,0,0-.947-.947h-2.182v2.377a.947.947,0,0,1-.947.947H-57.8a.947.947,0,0,0,.947-.947" transform="translate(60.929 35.529)" fill="#7fd061"/>
          </g>
          <g id="g13233" transform="translate(19.152 24.559)">
            <path id="path13235" d="M-8.994,0a1.283,1.283,0,0,0-.645.174,1.288,1.288,0,0,1,.646,1.117V4.934A1.264,1.264,0,0,0-7.728,6.2H-7.7V1.291A1.291,1.291,0,0,0-8.994,0" transform="translate(9.639 0)" fill="#ffdbcc"/>
          </g>
          <g id="g13237" transform="translate(21.741 24.622)">
            <path id="path13239" d="M-8.879,0a1.254,1.254,0,0,0-.637.178A1.288,1.288,0,0,1-8.878,1.29V4.871A1.264,1.264,0,0,0-7.614,6.136h.025V1.29A1.29,1.29,0,0,0-8.879,0" transform="translate(9.516)" fill="#ffdbcc"/>
          </g>
          <g id="g13241" transform="translate(24.313 25.228)">
            <path id="path13243" d="M-10.446-.058a1.283,1.283,0,0,0-.749.17,1.288,1.288,0,0,1,.645,1.116V4.2A1.264,1.264,0,0,0-9.285,5.467h.026v-4.2A1.314,1.314,0,0,0-10.446-.058" transform="translate(11.195 0.062)" fill="#ffdbcc"/>
          </g>
          <g id="g13245" transform="translate(16.535 24.559)">
            <path id="path13247" d="M-153.468-17a1.29,1.29,0,0,0-1.29,1.29v-.55a1.29,1.29,0,0,0-1.29-1.29,1.29,1.29,0,0,0-1.29,1.29v-.606a1.29,1.29,0,0,0-1.29-1.29,1.314,1.314,0,0,0-1.287,1.229,1.291,1.291,0,0,0-1.293-1.291,1.29,1.29,0,0,0-1.29,1.29v4a1.165,1.165,0,0,1-1.165,1.164h-.808a3.622,3.622,0,0,0,1.288,2.67l.875.689a2.269,2.269,0,0,1,.8,1.233h7.919v-.377a2.272,2.272,0,0,1,.161-.84l.735-1.844a6.03,6.03,0,0,0,.518-2.352V-15.71A1.29,1.29,0,0,0-153.468-17Z" transform="translate(164.472 18.219)" fill="none" stroke="#000" stroke-linecap="round" stroke-linejoin="round" stroke-miterlimit="10" stroke-width="1"/>
          </g>
          <g id="g13249" transform="translate(21.09 25.85)">
            <path id="path13251" d="M0-68.441v-4.907" transform="translate(0 73.348)" fill="none" stroke="#000" stroke-linecap="round" stroke-linejoin="round" stroke-miterlimit="10" stroke-width="1"/>
          </g>
          <g id="g13253" transform="translate(23.668 25.912)">
            <path id="path13255" d="M0-67.582v-4.845" transform="translate(0 72.428)" fill="none" stroke="#000" stroke-linecap="round" stroke-linejoin="round" stroke-miterlimit="10" stroke-width="1"/>
          </g>
          <g id="g13257" transform="translate(26.248 26.554)">
            <path id="path13259" d="M0-58.623v-4.2" transform="translate(0 62.827)" fill="none" stroke="#000" stroke-linecap="round" stroke-linejoin="round" stroke-miterlimit="10" stroke-width="1"/>
          </g>
          <g id="g13261" transform="translate(18.522 35.61)">
            <path id="path13263" d="M-125.35,0h-8.04a.947.947,0,0,0-.947.947v1.43a.947.947,0,0,0,.947.947h8.04a.947.947,0,0,0,.947-.947V.947A.947.947,0,0,0-125.35,0Z" transform="translate(134.337 0)" fill="none" stroke="#000" stroke-linecap="round" stroke-linejoin="round" stroke-miterlimit="10" stroke-width="1"/>
          </g>
          <g id="g13265" transform="translate(19.262 38.911)">
            <path id="path13267" d="M0,0C0,1.229.006,3.112.009,5.521a.569.569,0,0,0,.569.568h7.3a.569.569,0,0,0,.569-.568c0-2.408.007-4.291.009-5.521" transform="translate(0 0)" fill="none" stroke="#000" stroke-linecap="round" stroke-linejoin="round" stroke-miterlimit="10" stroke-width="1"/>
          </g>
          <g id="g13269" transform="translate(30.098 24.559)">
            <path id="path13271" d="M-153.468-17a1.29,1.29,0,0,0-1.29,1.29v-.55a1.29,1.29,0,0,0-1.29-1.29,1.29,1.29,0,0,0-1.29,1.29v-.606a1.29,1.29,0,0,0-1.29-1.29,1.314,1.314,0,0,0-1.287,1.229,1.291,1.291,0,0,0-1.293-1.291,1.29,1.29,0,0,0-1.29,1.29v4a1.165,1.165,0,0,1-1.165,1.164h-.808a3.622,3.622,0,0,0,1.288,2.67l.875.689a2.27,2.27,0,0,1,.866,1.783V-3.7h7.85V-7.544a2.272,2.272,0,0,1,.161-.84l.735-1.844a6.03,6.03,0,0,0,.518-2.352V-15.71a1.29,1.29,0,0,0-1.29-1.29" transform="translate(164.472 18.219)" fill="#efada0"/>
          </g>
          <g id="g13273" transform="translate(39.68 25.778)">
            <path id="path13275" d="M-19.82,0a1.283,1.283,0,0,0-.649.176,1.288,1.288,0,0,1,.641,1.114V4.419a6.03,6.03,0,0,1-.518,2.352l-.735,1.844a2.272,2.272,0,0,0-.161.84V13.3h1.3V9.456a2.272,2.272,0,0,1,.161-.84l.735-1.844a6.03,6.03,0,0,0,.518-2.352V1.29A1.29,1.29,0,0,0-19.82,0" transform="translate(21.241)" fill="#e79b8b"/>
          </g>
          <g id="g13277" transform="translate(32.821 37.272)">
            <path id="path13279" d="M0,0S.007,2.667.013,7.159a.569.569,0,0,0,.569.568h7.3a.569.569,0,0,0,.569-.568C8.456,2.667,8.462,0,8.462,0Z" fill="#e4c8f2"/>
          </g>
          <g id="g13281" transform="translate(37.555 37.272)">
            <path id="path13283" d="M-51.825-99.854c.006-4.492.013-7.159.013-7.159h-3.147s-.007,2.667-.013,7.159a.569.569,0,0,1-.569.568h3.147a.569.569,0,0,0,.569-.568" transform="translate(55.541 107.013)" fill="#d5b0ec"/>
          </g>
          <g id="g13285" transform="translate(32.085 35.61)">
            <path id="path13287" d="M-125.351,0h-8.04a.947.947,0,0,0-.947.947v1.43a.947.947,0,0,0,.947.947h8.04a.947.947,0,0,0,.947-.947V.947A.947.947,0,0,0-125.351,0" transform="translate(134.338 0)" fill="#d5b0ec"/>
          </g>
          <g id="g13289" transform="translate(37.951 35.61)">
            <path id="path13291" d="M-56.749-33.152v-1.43a.947.947,0,0,0-.947-.947H-59.87v2.377a.947.947,0,0,1-.947.947H-57.7a.947.947,0,0,0,.947-.947" transform="translate(60.817 35.529)" fill="#c995e4"/>
          </g>
          <g id="g13293" transform="translate(32.716 24.559)">
            <path id="path13295" d="M-8.994,0a1.283,1.283,0,0,0-.645.174,1.288,1.288,0,0,1,.646,1.117V4.934A1.264,1.264,0,0,0-7.728,6.2H-7.7V1.291A1.291,1.291,0,0,0-8.994,0" transform="translate(9.639 0)" fill="#e79b8b"/>
          </g>
          <g id="g13297" transform="translate(35.304 24.622)">
            <path id="path13299" d="M-8.879,0a1.254,1.254,0,0,0-.637.178A1.288,1.288,0,0,1-8.878,1.29V4.871A1.264,1.264,0,0,0-7.614,6.136h.025V1.29A1.29,1.29,0,0,0-8.879,0" transform="translate(9.516)" fill="#e79b8b"/>
          </g>
          <g id="g13301" transform="translate(37.876 25.228)">
            <path id="path13303" d="M-10.446-.058a1.283,1.283,0,0,0-.749.17,1.288,1.288,0,0,1,.645,1.116V4.2A1.264,1.264,0,0,0-9.285,5.467h.026v-4.2A1.314,1.314,0,0,0-10.446-.058" transform="translate(11.195 0.062)" fill="#e79b8b"/>
          </g>
          <g id="g13305" transform="translate(30.098 24.559)">
            <path id="path13307" d="M-153.468-17a1.29,1.29,0,0,0-1.29,1.29v-.55a1.29,1.29,0,0,0-1.29-1.29,1.29,1.29,0,0,0-1.29,1.29v-.606a1.29,1.29,0,0,0-1.29-1.29,1.314,1.314,0,0,0-1.287,1.229,1.291,1.291,0,0,0-1.293-1.291,1.29,1.29,0,0,0-1.29,1.29v4a1.165,1.165,0,0,1-1.165,1.164h-.808a3.622,3.622,0,0,0,1.288,2.67l.875.689a2.269,2.269,0,0,1,.8,1.233h7.919v-.377a2.272,2.272,0,0,1,.161-.84l.735-1.844a6.03,6.03,0,0,0,.518-2.352V-15.71A1.29,1.29,0,0,0-153.468-17Z" transform="translate(164.472 18.219)" fill="none" stroke="#000" stroke-linecap="round" stroke-linejoin="round" stroke-miterlimit="10" stroke-width="1"/>
          </g>
          <g id="g13309" transform="translate(34.653 25.85)">
            <path id="path13311" d="M0-68.441v-4.907" transform="translate(0 73.348)" fill="none" stroke="#000" stroke-linecap="round" stroke-linejoin="round" stroke-miterlimit="10" stroke-width="1"/>
          </g>
          <g id="g13313" transform="translate(37.231 25.912)">
            <path id="path13315" d="M0-67.582v-4.845" transform="translate(0 72.428)" fill="none" stroke="#000" stroke-linecap="round" stroke-linejoin="round" stroke-miterlimit="10" stroke-width="1"/>
          </g>
          <g id="g13317" transform="translate(39.811 26.554)">
            <path id="path13319" d="M0-58.623v-4.2" transform="translate(0 62.827)" fill="none" stroke="#000" stroke-linecap="round" stroke-linejoin="round" stroke-miterlimit="10" stroke-width="1"/>
          </g>
          <g id="g13321" transform="translate(32.085 35.61)">
            <path id="path13323" d="M-76.23-46.366h3.522a.947.947,0,0,0,.947-.947v-1.43a.947.947,0,0,0-.947-.947h-8.04a.947.947,0,0,0-.947.947v1.43a.947.947,0,0,0,.947.947h1.374" transform="translate(81.696 49.691)" fill="none" stroke="#000" stroke-linecap="round" stroke-linejoin="round" stroke-miterlimit="10" stroke-width="1"/>
          </g>
          <g id="g13325" transform="translate(32.825 38.911)">
            <path id="path13327" d="M0,0C0,1.229.006,3.112.009,5.521a.569.569,0,0,0,.569.568h7.3a.569.569,0,0,0,.569-.568c0-2.408.007-4.291.009-5.521" transform="translate(0 0)" fill="none" stroke="#000" stroke-linecap="round" stroke-linejoin="round" stroke-miterlimit="10" stroke-width="1"/>
          </g>
          <g id="g13329" transform="translate(0.669 25.504)">
            <path id="path13331" d="M0,0V3A2.517,2.517,0,0,0,2.326,5.506h0" fill="none" stroke="#000" stroke-linecap="round" stroke-linejoin="round" stroke-miterlimit="10" stroke-width="1"/>
          </g>
          <g id="g13333" transform="translate(0.669 0.671)">
            <path id="path13335" d="M-581-423.272h.16a2.517,2.517,0,0,0,2.517-2.517v-19.749a2.131,2.131,0,0,0-.624-1.507l-5.928-5.928-.023-.022a2.131,2.131,0,0,0-1.506-.624h-33.734a2.517,2.517,0,0,0-2.517,2.517v19.19" transform="translate(622.653 453.619)" fill="none" stroke="#000" stroke-linecap="round" stroke-linejoin="round" stroke-miterlimit="10" stroke-width="1"/>
          </g>
          <g id="g13337" transform="translate(15.222 31.018)">
            <path id="path13339" d="M0,0H1.312" fill="none" stroke="#000" stroke-linecap="round" stroke-linejoin="round" stroke-miterlimit="10" stroke-width="1"/>
          </g>
          <g id="g13341" transform="translate(28.761 31.018)">
            <path id="path13343" d="M-18.642,0h-1.337" transform="translate(19.979)" fill="none" stroke="#000" stroke-linecap="round" stroke-linejoin="round" stroke-miterlimit="10" stroke-width="1"/>
          </g>
          <g id="g13345" transform="translate(37.803 0.863)">
            <path id="path13347" d="M0,0V5.849A1.157,1.157,0,0,0,1.157,7.007H7.007" fill="none" stroke="#000" stroke-linecap="round" stroke-linejoin="round" stroke-miterlimit="10" stroke-width="1"/>
          </g>
        </g>
      </g>
    </g>
  </g>
</svg>
