<svg xmlns="http://www.w3.org/2000/svg" xmlns:xlink="http://www.w3.org/1999/xlink" width="93" height="93" viewBox="0 0 93 93">
  <defs>
    <filter id="Trazado_982547" x="0" y="0" width="93" height="93" filterUnits="userSpaceOnUse">
      <feOffset dy="3" input="SourceAlpha"/>
      <feGaussianBlur stdDeviation="3" result="blur"/>
      <feFlood flood-opacity="0.161"/>
      <feComposite operator="in" in2="blur"/>
      <feComposite in="SourceGraphic"/>
    </filter>
  </defs>
  <g id="Grupo_1209797" data-name="Grupo 1209797" transform="translate(-1035 -1308.49)">
    <g id="Grupo_1209734" data-name="Grupo 1209734" transform="translate(0 -1430.391)">
      <g id="Grupo_1209038" data-name="Grupo 1209038" transform="translate(241.51 -604.119)">
        <g id="Grupo_1208891" data-name="Grupo 1208891" transform="translate(802.49 3349)">
          <g id="Grupo_1177675" data-name="Grupo 1177675" transform="translate(0 0)">
            <g id="Grupo_1176928" data-name="Grupo 1176928" transform="translate(0 0)">
              <g id="Grupo_1172322" data-name="Grupo 1172322" transform="translate(0 0)">
                <g id="Grupo_1164700" data-name="Grupo 1164700">
                  <g id="Grupo_1160931" data-name="Grupo 1160931">
                    <g id="Grupo_1160749" data-name="Grupo 1160749">
                      <g id="Grupo_1158891" data-name="Grupo 1158891">
                        <g id="Grupo_1157406" data-name="Grupo 1157406">
                          <g id="Grupo_1155793" data-name="Grupo 1155793">
                            <g id="Grupo_1154704" data-name="Grupo 1154704">
                              <g id="Grupo_1150790" data-name="Grupo 1150790">
                                <g id="Grupo_1154214" data-name="Grupo 1154214">
                                  <g id="Grupo_1152583" data-name="Grupo 1152583">
                                    <g id="Grupo_1146973" data-name="Grupo 1146973">
                                      <g id="Grupo_1146954" data-name="Grupo 1146954">
                                        <g transform="matrix(1, 0, 0, 1, -9, -6)" filter="url(#Trazado_982547)">
                                          <g id="Trazado_982547-2" data-name="Trazado 982547" transform="translate(9 6)" fill="#fef7ea">
                                            <path d="M 37.49999237060547 73.49986267089844 C 32.63936996459961 73.49986267089844 27.92492485046387 72.54824066162109 23.48763656616211 70.67143249511719 C 19.20095825195312 68.85832214355469 15.35081481933594 66.26239013671875 12.04415893554688 62.95573043823242 C 8.737492561340332 59.64907455444336 6.14155912399292 55.79894256591797 4.328447818756104 51.51226425170898 C 2.45162558555603 47.07498550415039 1.500003457069397 42.36055374145508 1.500003457069397 37.49993133544922 C 1.500003457069397 32.63930892944336 2.45162558555603 27.92487525939941 4.328447818756104 23.48759841918945 C 6.14155912399292 19.20092010498047 8.737492561340332 15.35078716278076 12.04415893554688 12.0441312789917 C 15.35081481933594 8.737475395202637 19.20095825195312 6.141542434692383 23.48763656616211 4.328431129455566 C 27.92492485046387 2.45162034034729 32.63936996459961 1.499997973442078 37.49999237060547 1.499997973442078 C 42.36061477661133 1.499997973442078 47.07505798339844 2.45162034034729 51.51234817504883 4.328431129455566 C 55.79902648925781 6.141542434692383 59.649169921875 8.737475395202637 62.95582580566406 12.0441312789917 C 66.26248931884766 15.35078716278076 68.85842895507812 19.20092010498047 70.67153930664062 23.48759841918945 C 72.54836273193359 27.92487525939941 73.49998474121094 32.63930892944336 73.49998474121094 37.49993133544922 C 73.49998474121094 42.36055374145508 72.54836273193359 47.07498550415039 70.67153930664062 51.51226425170898 C 68.85842895507812 55.79894256591797 66.26248931884766 59.64907455444336 62.95582580566406 62.95573043823242 C 59.649169921875 66.26239013671875 55.79902648925781 68.85832214355469 51.51234817504883 70.67143249511719 C 47.07505798339844 72.54824066162109 42.36061477661133 73.49986267089844 37.49999237060547 73.49986267089844 Z" stroke="none"/>
                                            <path d="M 37.49999237060547 2.999992370605469 C 32.84120559692383 2.999992370605469 28.32336807250977 3.911758422851562 24.07196807861328 5.709945678710938 C 19.96409225463867 7.447418212890625 16.27420425415039 9.935409545898438 13.10481643676758 13.10479354858398 C 9.935432434082031 16.2741813659668 7.447441101074219 19.96405792236328 5.709953308105469 24.07191848754883 C 3.911766052246094 28.32331848144531 3.000007629394531 32.84114456176758 3.000007629394531 37.49993133544922 C 3.000007629394531 42.15870666503906 3.911766052246094 46.67654418945312 5.709953308105469 50.92793273925781 C 7.447441101074219 55.03580474853516 9.935432434082031 58.72568130493164 13.10481643676758 61.89505767822266 C 16.27420425415039 65.06444549560547 19.96409225463867 67.55242919921875 24.07196807861328 69.28990936279297 C 28.32336807250977 71.08809661865234 32.84120559692383 71.99985504150391 37.49999237060547 71.99985504150391 C 42.15877914428711 71.99985504150391 46.67661666870117 71.08809661865234 50.92801666259766 69.28990936279297 C 55.03589248657227 67.55242919921875 58.72578048706055 65.06444549560547 61.89516830444336 61.89505767822266 C 65.06455230712891 58.72568130493164 67.55254364013672 55.03580474853516 69.29003143310547 50.92793273925781 C 71.08821868896484 46.67654418945312 71.99997711181641 42.15870666503906 71.99997711181641 37.49993133544922 C 71.99997711181641 32.84114456176758 71.08821868896484 28.32331848144531 69.29003143310547 24.07191848754883 C 67.55254364013672 19.96405792236328 65.06455230712891 16.2741813659668 61.89516830444336 13.10479354858398 C 58.72578048706055 9.935409545898438 55.03589248657227 7.447418212890625 50.92801666259766 5.709945678710938 C 46.67661666870117 3.911758422851562 42.15877914428711 2.999992370605469 37.49999237060547 2.999992370605469 M 37.49999237060547 -7.62939453125e-06 C 58.21065521240234 -7.62939453125e-06 74.99997711181641 16.7892951965332 74.99997711181641 37.49993133544922 C 74.99997711181641 58.2105712890625 58.21065521240234 74.99985504150391 37.49999237060547 74.99985504150391 C 16.78932952880859 74.99985504150391 7.62939453125e-06 58.2105712890625 7.62939453125e-06 37.49993133544922 C 7.62939453125e-06 16.7892951965332 16.78932952880859 -7.62939453125e-06 37.49999237060547 -7.62939453125e-06 Z" stroke="none" fill="#896521"/>
                                          </g>
                                        </g>
                                      </g>
                                    </g>
                                  </g>
                                </g>
                              </g>
                            </g>
                          </g>
                        </g>
                      </g>
                    </g>
                  </g>
                </g>
              </g>
            </g>
          </g>
        </g>
      </g>
    </g>
    <g id="training_18152503" transform="translate(1033.467 1305.09)">
      <g id="Grupo_1209796" data-name="Grupo 1209796" transform="translate(23.956 23.483)">
        <path id="Trazado_1051201" data-name="Trazado 1051201" d="M104.993,56.9c-10.672-5.455-9.979-7.984-9.74-20.748A1.756,1.756,0,0,1,96.7,34.413c3.491-.563,6.66-1.3,9.113-3.533a.877.877,0,0,1,1.184,0c2.452,2.232,5.622,2.97,9.116,3.533a1.76,1.76,0,0,1,1.452,1.741c.235,12.764.928,15.293-9.74,20.748A3.044,3.044,0,0,1,104.993,56.9Z" transform="translate(-88.02 -30.65)" fill="#feb602" fill-rule="evenodd"/>
        <path id="Trazado_1051202" data-name="Trazado 1051202" d="M122.36,86.1v-.834a.872.872,0,0,1,.869-.869h.119a.852.852,0,0,0,.834-.625,6.783,6.783,0,0,1,.577-1.39.857.857,0,0,0-.146-1.033l-.086-.086a.87.87,0,0,1,0-1.229l.589-.589a.876.876,0,0,1,1.229,0l.083.086a.858.858,0,0,0,1.033.146,6.7,6.7,0,0,1,1.393-.574.862.862,0,0,0,.625-.837v-.119a.87.87,0,0,1,.869-.869h.834a.87.87,0,0,1,.869.869v.119a.862.862,0,0,0,.625.837,6.7,6.7,0,0,1,1.393.574.858.858,0,0,0,1.033-.146l.086-.086a.866.866,0,0,1,1.226,0l.589.589a.87.87,0,0,1,0,1.229l-.086.086a.862.862,0,0,0-.146,1.033,6.782,6.782,0,0,1,.577,1.39.855.855,0,0,0,.834.625h.122a.871.871,0,0,1,.866.869V86.1a.87.87,0,0,1-.866.869h-.122a.858.858,0,0,0-.834.628,6.856,6.856,0,0,1-.577,1.39.861.861,0,0,0,.146,1.033l.086.086a.866.866,0,0,1,0,1.226l-.589.589a.866.866,0,0,1-1.226,0l-.086-.083a.86.86,0,0,0-1.033-.149,6.883,6.883,0,0,1-1.393.577.859.859,0,0,0-.625.834v.122a.87.87,0,0,1-.869.869h-.834a.87.87,0,0,1-.869-.869V93.1a.859.859,0,0,0-.625-.834,6.783,6.783,0,0,1-1.39-.577.86.86,0,0,0-1.035.149l-.083.083a.87.87,0,0,1-1.229,0l-.589-.589a.866.866,0,0,1,0-1.226l.086-.086a.858.858,0,0,0,.146-1.033,6.857,6.857,0,0,1-.577-1.39.855.855,0,0,0-.834-.628h-.119A.871.871,0,0,1,122.36,86.1Z" transform="translate(-112.375 -72.385)" fill="#378f8d" fill-rule="evenodd"/>
        <path id="Trazado_1051203" data-name="Trazado 1051203" d="M169.527,120.6a3.859,3.859,0,1,1-3.857,3.857A3.859,3.859,0,0,1,169.527,120.6Z" transform="translate(-151.138 -111.157)" fill="#ccc" fill-rule="evenodd"/>
        <path id="Trazado_1051204" data-name="Trazado 1051204" d="M255.213,180.7l.083-5.28-5.089,3.505L244.7,176.69c-2.613-.378-3.285,2.56-1.215,3.776l7.092,2.851Z" transform="translate(-219.692 -160.221)" fill="#f8be9b" fill-rule="evenodd"/>
        <path id="Trazado_1051205" data-name="Trazado 1051205" d="M360.968,308.912l-.688,13.5c-.824,1.851-4.357.735-4.276-.464-1.03,1.589-3.869.869-4.026-.482L351.55,307.1Z" transform="translate(-317.504 -278.077)" fill="#378f8d" fill-rule="evenodd"/>
        <path id="Trazado_1051206" data-name="Trazado 1051206" d="M353.615,171.2l4.128.788a4.967,4.967,0,0,1,2.514,1.465c-1.324-.851-3.262.065-3.262,2.746v10.972l-9.116-1.839V175.9C347.88,173.325,348.389,170.594,353.615,171.2Z" transform="translate(-314.219 -156.37)" fill="#378f8d" fill-rule="evenodd"/>
        <path id="Trazado_1051207" data-name="Trazado 1051207" d="M439.177,193.528v10.639c0,3.52-4.467,3.52-4.467,0V193.528C434.71,189.457,439.177,189.457,439.177,193.528Z" transform="translate(-391.933 -173.696)" fill="#f8be9b" fill-rule="evenodd"/>
        <path id="Trazado_1051208" data-name="Trazado 1051208" d="M374.079,97.9a4.418,4.418,0,1,1-4.419,4.417A4.417,4.417,0,0,1,374.079,97.9Z" transform="translate(-333.712 -90.84)" fill="#f8be9b" fill-rule="evenodd"/>
        <path id="Trazado_1051209" data-name="Trazado 1051209" d="M32.929,305.057l4.086.78a4.952,4.952,0,0,1,2.511,1.476c-1.52.3-3.256,1.737-3.256,3.44v10.433l-7.791-1.854a1.581,1.581,0,0,1-1.229-1.554V309.7A4.517,4.517,0,0,1,32.929,305.057Z" transform="translate(-27.25 -276.151)" fill="#8f2d56" fill-rule="evenodd"/>
        <path id="Trazado_1051210" data-name="Trazado 1051210" d="M116.436,327.47a4.679,4.679,0,0,1,1.166,3.1v8.246a2.482,2.482,0,0,1-.75,1.741,2.378,2.378,0,0,1-1.7.777l-1.976.008V330.91A3.382,3.382,0,0,1,116.436,327.47Z" transform="translate(-104.159 -296.309)" fill="#f8be9b" fill-rule="evenodd"/>
        <path id="Trazado_1051211" data-name="Trazado 1051211" d="M67.8,228.03a4.239,4.239,0,1,1-4.238,4.24A4.239,4.239,0,0,1,67.8,228.03Z" transform="translate(-59.748 -207.308)" fill="#f8be9b" fill-rule="evenodd"/>
        <path id="Trazado_1051212" data-name="Trazado 1051212" d="M160.969,322.156l4.086.783a4.93,4.93,0,0,1,2.511,1.476c-1.521.295-3.256,1.735-3.256,3.437v10.436l-7.791-1.854a1.585,1.585,0,0,1-1.229-1.554V326.8a4.52,4.52,0,0,1,5.679-4.649Z" transform="translate(-141.848 -291.455)" fill="#8f2d56" fill-rule="evenodd"/>
        <path id="Trazado_1051213" data-name="Trazado 1051213" d="M244.476,344.6a4.682,4.682,0,0,1,1.17,3.1v8.246a2.478,2.478,0,0,1-.753,1.737,2.37,2.37,0,0,1-1.7.78l-1.976.008V348.037A3.38,3.38,0,0,1,244.476,344.6Z" transform="translate(-218.757 -311.64)" fill="#f8be9b" fill-rule="evenodd"/>
        <path id="Trazado_1051214" data-name="Trazado 1051214" d="M195.848,245.16a4.239,4.239,0,1,1-4.238,4.238A4.239,4.239,0,0,1,195.848,245.16Z" transform="translate(-174.355 -222.64)" fill="#f8be9b" fill-rule="evenodd"/>
      </g>
      <path id="Trazado_1051215" data-name="Trazado 1051215" d="M45.9,45.163a5.065,5.065,0,0,1,2.9.908l1.009-.792-1.919-.771v0a3.364,3.364,0,0,1-.771-.548,1.618,1.618,0,0,1-.5-.345c-.178-.178.039-.1-.881.279a7.539,7.539,0,0,1-.8.277,2.128,2.128,0,0,1-.354,1.166,5.064,5.064,0,0,1,1.311-.172Zm4.113,2.1a5.081,5.081,0,0,1-1.265,7.19,6.434,6.434,0,0,1,1.976,1.408,5.513,5.513,0,0,1,1.053,1.732,5.588,5.588,0,0,1,.357,1.955v8.246a3.453,3.453,0,0,1-3.285,3.354l-1.9.008a.83.83,0,0,1-.268-.018l-7.794-1.854a2.43,2.43,0,0,1-1.322-.827,3.17,3.17,0,0,1-2.157.892l-1.9.008a.8.8,0,0,1-.268-.018l-7.794-1.854a2.435,2.435,0,0,1-1.875-2.372V57.035a5.282,5.282,0,0,1,4.809-5.565,5.084,5.084,0,0,1,3.7-8.089c-1.521-2.881-1.444-6.425-1.315-12.365.015-.66.029-1.351.042-2.042a2.6,2.6,0,0,1,2.157-2.553c3.148-.509,6.315-1.176,8.681-3.327a1.708,1.708,0,0,1,2.313,0c2.363,2.151,5.533,2.818,8.681,3.327a2.6,2.6,0,0,1,2.157,2.553c.083,4.485.333,9.059-.414,12.088l.446.182,3.791-2.616a4.089,4.089,0,0,1,1.658-.946,5.26,5.26,0,1,1,8.434.764,5.172,5.172,0,0,1,.926.428,6.79,6.79,0,0,1,1.354,1.051,3.948,3.948,0,0,1,1.505,3.39V53.957c0,2.524-2.006,3.943-3.934,3.351l-.539,10.547a.829.829,0,0,1-.1.363A2.469,2.469,0,0,1,66,69.587a4.218,4.218,0,0,1-3.3-.91c-1.711,1-4.443.1-4.654-1.714a.829.829,0,0,1,0-.125l-.41-13.674a.836.836,0,0,1-.4-.714h0v-6l-1.476.837a.839.839,0,0,1-.771.075l-3.446-1.386a14.878,14.878,0,0,1-1.526,1.286Zm-8.193,6.005a5.05,5.05,0,0,1-1-2.874c-1.262-.649-2.244-1.181-3.288-1.821a5.078,5.078,0,0,1-2.229,4.086,6.373,6.373,0,0,1,1.976,1.4,5.69,5.69,0,0,1,.837,1.233A5.17,5.17,0,0,1,41.821,53.264Zm-.738-4.625a5.071,5.071,0,0,1,1.982-2.61,2.251,2.251,0,0,1-1.89-.5,1.783,1.783,0,0,1-.5-1.351.035.035,0,0,0-.018-.008,7.476,7.476,0,0,1-1.562-.643l-.036,0a1.713,1.713,0,0,1-1.291.586c-.848,0-1.233-.521-1.8-1.089a1.707,1.707,0,0,1,.045-2.458c.047-.045.06-.05.045-.078a7.546,7.546,0,0,1-.643-1.562c-.012-.033-.05-.018-.152-.018A1.71,1.71,0,0,1,33.556,37.2c0-.8-.1-1.444.5-2.042a1.783,1.783,0,0,1,1.351-.5.035.035,0,0,0,.008-.018,7.546,7.546,0,0,1,.643-1.562l0-.036a1.71,1.71,0,0,1-.086-2.5v0c.566-.566.949-1.089,1.8-1.089a1.712,1.712,0,0,1,1.205.5c.185.185-.047.11.884-.274.908-.378.819-.17.819-.431a1.705,1.705,0,0,1,1.708-1.7v0c.8,0,1.444-.1,2.042.5a1.783,1.783,0,0,1,.5,1.351.054.054,0,0,0,.018.009,7.387,7.387,0,0,1,1.562.646c.036.018.1-.065.122-.092h0a1.71,1.71,0,0,1,2.417,0c.566.566,1.09.949,1.09,1.8a1.7,1.7,0,0,1-.586,1.291l-.006.036a7.387,7.387,0,0,1,.646,1.562c.008.033.05.021.152.021a1.71,1.71,0,0,1,1.708,1.708V37.2h0a1.705,1.705,0,0,1-1.7,1.708c-.214,0-.107-.078-.274.4l2.746,1.116c.619-2.762.389-7.231.313-11.424a.924.924,0,0,0-.746-.928c-3.488-.563-6.9-1.324-9.547-3.737h-.057c-2.652,2.414-6.059,3.176-9.547,3.737a.925.925,0,0,0-.746.928c-.015.738-.027,1.408-.042,2.047C32.3,37.543,32.223,41,34.264,43.7a5.1,5.1,0,0,1,2.777,2.548c.568.4,1.223.813,1.967,1.247.653.383,1.344.761,2.076,1.147Zm7.223-.8a3.4,3.4,0,1,0,0,4.806A3.4,3.4,0,0,0,48.306,47.839ZM46.032,69.254V59.883a4.324,4.324,0,0,1,2.25-3.8,3.108,3.108,0,0,0-.824-.289l-4.086-.783a3.682,3.682,0,0,0-4.678,3.825v8.076a.735.735,0,0,0,.581.738ZM50.211,58.18a3.867,3.867,0,0,0-.456-.866,2.575,2.575,0,0,0-2.042,2.568v9.594l1.131-.006a1.779,1.779,0,0,0,1.613-1.682V59.542A3.855,3.855,0,0,0,50.211,58.18ZM34.864,46.041a3.4,3.4,0,1,0,0,4.809A3.4,3.4,0,0,0,34.864,46.041ZM32.59,67.457V58.086a4.324,4.324,0,0,1,2.25-3.8,3.108,3.108,0,0,0-.824-.289l-4.086-.78a3.679,3.679,0,0,0-4.678,3.821v8.076a.731.731,0,0,0,.581.738Zm4.178-11.074a3.668,3.668,0,0,0-.459-.863,2.57,2.57,0,0,0-2.039,2.565v9.594l1.131-.006a1.776,1.776,0,0,0,1.613-1.679V57.748A3.86,3.86,0,0,0,36.769,56.383ZM66.915,39.765a5.25,5.25,0,0,1-5.356-.646,2.656,2.656,0,0,0-2.151,1.2,5.515,5.515,0,0,0-.5,2.7v8.753l7.437,1.5V43.317a3.951,3.951,0,0,1,1.486-3.374ZM67.3,32.43a3.578,3.578,0,1,0,0,5.062A3.581,3.581,0,0,0,67.3,32.43ZM66.944,56.1A3.447,3.447,0,0,1,66.462,55l-7.139-1.44.4,13.228c.042.435,1.6,1.03,2.354.279l-.05-9.562a.836.836,0,0,1,1.672-.005l.054,9.794c.006.188-.047.071.206.247a2.7,2.7,0,0,0,1.773.4.931.931,0,0,0,.631-.345Zm3.869-2.145V43.316c0-2.958-2.788-2.958-2.788,0V53.958c0,1.08.56,1.8,1.4,1.8S70.813,55.038,70.813,53.958ZM57.231,44.527a27.949,27.949,0,0,1,.075-2.961l-1.9,1.312a.841.841,0,0,1-.792.089l-5.41-2.2a1.4,1.4,0,0,0-1.045.235,1.15,1.15,0,0,0,.054,1.676,1.758,1.758,0,0,0,.363.3l6.66,2.678ZM46.149,41.884a2.632,2.632,0,0,1,2.187-2.744c.271-.631.268-1.128.855-1.568.639-.479,1.179-.277,1.179-.37h0l-.008-.855A1.92,1.92,0,0,1,49.191,36c-.571-.428-.577-.9-.834-1.515s-.584-.946-.485-1.658a1.737,1.737,0,0,1,.485-.97l0,0c.036-.039.113-.1.083-.128l-.61-.6a.036.036,0,0,0-.021.008v0a1.688,1.688,0,0,1-1.056.574c-.709.1-1.048-.232-1.655-.485s-1.087-.261-1.515-.834c-.482-.643-.277-1.176-.372-1.176h-.834v0c-.092,0,.11.539-.37,1.179-.428.571-.9.577-1.515.834s-.946.584-1.658.485a1.751,1.751,0,0,1-1.056-.571h-.039l-.589.589h0c-.027.033.039.078.089.125l0,0a1.681,1.681,0,0,1,.485.964c.1.705-.232,1.056-.482,1.661s-.261,1.087-.834,1.515c-.643.482-1.176.277-1.176.372l.009.851a1.92,1.92,0,0,1,1.166.351c.571.428.577.9.834,1.515s.584.946.482,1.658c-.11.785-.637,1.027-.568,1.095l.61.6.1-.1,0,0a1.692,1.692,0,0,1,2.026-.289,6.223,6.223,0,0,0,1.22.506,1.7,1.7,0,0,1,1.235,1.64c0,.068-.015.149.027.149l.855-.009a1.92,1.92,0,0,1,.351-1.166c.428-.571.9-.577,1.515-.834a7.821,7.821,0,0,1,1.048-.456Zm-3.351-9.8a4.7,4.7,0,1,1-4.7,4.7A4.7,4.7,0,0,1,42.8,32.088Zm2.136,2.562a3.019,3.019,0,1,0,0,4.27,3.023,3.023,0,0,0,0-4.27Z"/>
    </g>
  </g>
</svg>
